SplineFontDB: 3.0
FontName: Untitled
FullName: Untitled 
FamilyName: Untitled
Weight: Normal
Copyright: Copyright 2011 Adobe Systems Incorporated. All rights reserved.
Version: 001.001
ItalicAngle: 0
UnderlinePosition: -50
UnderlineWidth: 50
Ascent: 750
Descent: 250
sfntRevision: 0x00010000
LayerCount: 2
Layer: 0 0 "Back"  1
Layer: 1 0 "Fore"  0
NeedsXUIDChange: 1
XUID: [1021 14 500265001 14779192]
FSType: 4
OS2Version: 3
OS2_WeightWidthSlopeOnly: 0
OS2_UseTypoMetrics: 1
CreationTime: 1313529237
ModificationTime: 1313941164
PfmFamily: 81
TTFWeight: 400
TTFWidth: 5
LineGap: 9
VLineGap: 0
Panose: 0 0 0 0 0 0 0 0 0 0
OS2TypoAscent: 0
OS2TypoAOffset: 1
OS2TypoDescent: 0
OS2TypoDOffset: 1
OS2TypoLinegap: 0
OS2WinAscent: -12
OS2WinAOffset: 1
OS2WinDescent: -259
OS2WinDOffset: 1
HheadAscent: -262
HheadAOffset: 1
HheadDescent: 9
HheadDOffset: 1
OS2SubXSize: 650
OS2SubYSize: 600
OS2SubXOff: 0
OS2SubYOff: 75
OS2SupXSize: 650
OS2SupYSize: 600
OS2SupXOff: 0
OS2SupYOff: 350
OS2StrikeYSize: 50
OS2StrikeYPos: 300
OS2Vendor: 'pyrs'
OS2CodePages: 20000000.00000000
OS2UnicodeRanges: 00000001.00000000.00000000.00000000
DEI: 91125
LangName: 1033 "" "" "Regular" "1.000;pyrs;Untitled" "Untitled" "Version 1.000;PS 001.001;hotconv 1.0.56" "" "Please refer to the Copyright section for the font trademark attribution notices." 
Encoding: ISO8859-1
UnicodeInterp: none
NameList: Adobe Glyph List
DisplaySize: -48
AntiAlias: 1
FitToEm: 1
WidthSeparation: 80
WinInfo: 0 22 12
BeginPrivate: 0
EndPrivate
BeginChars: 266 92

StartChar: exclam
Encoding: 33 33 2
Width: 300
Flags: HW
LayerCount: 2
Fore
SplineSet
263.541992188 778.127929688 m 1
 264.221068571 760.455881902 264.648575384 740.512654064 264.648575384 718.963538581 c 0
 264.648575384 547.914554257 237.713069113 275.684967931 95.8525390625 235 c 1
 82.8466796875 235 62.8515625 241.91015625 58.8525390625 254.590820312 c 1
 55.2285475779 320.797879161 48.6929601587 398.522751293 48.6929601587 473.978453818 c 0
 48.6929601587 629.8124802 76.5686149829 775.968020989 215.537109375 791 c 0
 221.928710938 791 228.924804688 791.530273438 235.583984375 791.530273438 c 0
 248.381835938 791.530273438 259.932617188 789.572265625 263.541992188 778.127929688 c 1
36.48046875 55.4716796875 m 0
 32.0399573525 69.9622158743 29.9997114102 83.6759303371 29.9997114102 96.5052692178 c 0
 29.9997114102 166.403470127 90.5625140021 210.049804687 153.462890625 210.049804688 c 0
 153.846679688 210.049804688 154.23046875 210.048828125 154.616210938 210.044921875 c 0
 172.505859375 210.044921875 195.119140625 207.106445312 199.194335938 194.181640625 c 0
 204.317888159 177.932909734 206.701693343 161.455934107 206.701693343 145.385763775 c 0
 206.701693343 75.0237305304 161.002707599 12.460400574 99.4814453125 11 c 0
 69.1552734375 11 45.6474609375 26.3935546875 36.48046875 55.4716796875 c 0
EndSplineSet
EndChar

StartChar: dollar
Encoding: 36 36 3
Width: 530
Flags: HW
HStem: 495 21G<568.741 593.719>
LayerCount: 2
Back
SplineSet
596.28125 604.146484375 m 4
 594.822265625 561.55078125 556.962890625 495 519.565429688 495 c 4
 504.74609375 495 499.23828125 516 477.565429688 516 c 4
 454.340820312 516 428.918945312 438.379882812 426.103515625 416.325195312 c 5
 426.103515625 416 l 6
 426.103515625 413.556640625 425.1328125 404.719726562 425.1328125 402 c 6
 425.1328125 400.397460938 l 5
 460.096679688 349.936523438 498.2890625 295.817382812 498.2890625 228.982421875 c 4
 498.2890625 48.806640625 356.529296875 2.05859375 233.427734375 -41 c 4
 187.844726562 -56.693359375 203.133789062 -125.166992188 164.045898438 -131.559570312 c 5
 169.122070312 -101.62109375 182.880859375 -78.0302734375 182.880859375 -47.9052734375 c 4
 182.880859375 -36.1572265625 174.384765625 -33 161.221679688 -33 c 4
 114.615234375 -33 118.73828125 -130 84.5654296875 -130 c 4
 78.59765625 -130 77.8935546875 -132.174804688 79.513671875 -117.54296875 c 4
 83.51953125 -84.3818359375 106.013671875 -55.044921875 106.013671875 -17.271484375 c 4
 106.013671875 31.4814453125 30 24.5400390625 30 69.849609375 c 4
 30 115.446289062 107.541992188 176.997070312 143.565429688 179 c 4
 156.241210938 179 162.681640625 171 177.715820312 171 c 4
 206.395507812 171 233.53125 257.857421875 233.53125 285.078125 c 4
 233.53125 343.814453125 137.953125 383.634765625 137.953125 478.00390625 c 4
 137.953125 657.154296875 294.76171875 705.150390625 419.051757812 722.006835938 c 4
 440.795898438 725.552734375 449.685546875 743 463.943359375 743 c 4
 476.52734375 743 474.846679688 714 500.565429688 714 c 4
 527.522460938 714 534.3203125 744 552.565429688 744 c 4
 561.75390625 744 564.540039062 739.208984375 564.540039062 732.247070312 c 4
 564.540039062 721.521484375 557.9296875 705.641601562 557.9296875 694.1796875 c 4
 557.9296875 652.83203125 596.78515625 640.729492188 596.28125 604.146484375 c 4
285.323242188 102.573242188 m 4
 285.323242188 89.8505859375 296.841796875 88.9697265625 302.380859375 88.9697265625 c 4
 303.365234375 88.9697265625 304.203125 89 304.8203125 89 c 4
 305.01171875 89 306.26953125 88.861328125 308.087890625 88.861328125 c 4
 313.76953125 88.861328125 326.12890625 90.1494140625 326.12890625 101.370117188 c 6
 326.12890625 156 l 5
 297.12890625 156 285.323242188 125.416015625 285.323242188 102.573242188 c 4
276.682617188 251 m 4
 269.895507812 251 265.528320312 246.786132812 262.692382812 241.33984375 c 4
 252.65234375 221.793945312 224.118164062 159.239257812 218.646484375 122 c 5
 229.139648438 122 l 5
 269.809570312 117.385742188 274.858398438 193.2890625 293.072265625 216.666992188 c 4
 294.181640625 219.583984375 293.655273438 223.404296875 293.655273438 227.076171875 c 4
 293.655273438 238.705078125 290.81640625 251 276.682617188 251 c 4
375.788085938 491.384765625 m 5
 375.788085938 463 l 5
 411.905273438 463 452.395507812 554.538085938 452.395507812 580.815429688 c 4
 452.395507812 591.16015625 447.188476562 610 435.805664062 610 c 4
 427.631835938 610 424.73046875 604.62890625 420.823242188 597.88671875 c 6
 375.788085938 491.384765625 l 5
370.798828125 637 m 4
 336.548828125 637 330.875976562 586.780273438 328.293945312 555.203125 c 4
 328.293945312 545.655273438 330.85546875 537 340.720703125 537 c 4
 361.94921875 537 383.340820312 587.000976562 383.340820312 616.290039062 c 4
 383.340820312 628.421875 379.670898438 637 370.798828125 637 c 4
EndSplineSet
Fore
SplineSet
43.8173828125 478.00390625 m 0
 34.3416959522 508.05573676 29.9999097075 534.710644866 29.9999097075 558.305268566 c 0
 29.9999097075 689.203570363 163.631873996 725.912109375 295.641601562 725.912109375 c 0
 376.40234375 725.912109375 435.798828125 688.43359375 462.154296875 604.850585938 c 0
 465.125648302 595.4272795 466.53313463 584.854308444 466.53313463 574.089048623 c 0
 466.53313463 535.763121626 448.693724545 495 420.071289062 495 c 0
 356.944335938 495 241.299804688 637 226.530273438 637 c 0
 207.540135037 637 201.398679976 621.593768799 201.398679976 602.465106966 c 0
 201.398679976 587.093932411 205.364346654 569.319106121 209.815429688 555.203125 c 0
 227.727539062 498.401367188 452.30859375 325.27734375 482.622070312 229.145507812 c 0
 493.887072436 193.305137359 499.171652291 160.903674386 499.171652291 132.015651817 c 0
 499.171652291 18.0257719282 416.88916194 -41.2587890625 295.076171875 -41.2587890625 c 0
 218.858398438 -41.2587890625 78.3583984375 26.09375 64.5595703125 69.849609375 c 0
 63.0128824312 74.7552818065 62.2975670581 79.8688114949 62.2975670581 85.088687973 c 0
 62.2975670581 128.385918803 111.512551092 179 143.709960938 179 c 0
 180.907226562 179 309.127929688 89 323.341796875 89 c 0
 323.734375 89 324.17578125 88.9990234375 324.659179688 88.9990234375 c 0
 332.473607091 88.9990234375 351.198092665 89.2733032582 351.198092665 98.6909499403 c 0
 351.198092665 261.991686432 76.3794146241 374.735499185 43.8173828125 478.00390625 c 0
EndSplineSet
EndChar

StartChar: ampersand
Encoding: 38 38 4
Width: 666
Flags: HW
HStem: 57 58<320.594 400.505> 745 83<475.038 561.599>
LayerCount: 2
Fore
SplineSet
153.452706107 400.151346024 m 0
 153.452706107 437.091599962 135.21452705 468.597841505 125.73046875 498.674804688 c 0
 115.20167622 532.066100678 110.213695391 565.85877663 110.213695391 598.431975094 c 0
 110.213695391 721.989214731 181.983267889 828 295.349609375 828 c 0
 377.274414062 828 446.067382812 789.686523438 471.353515625 709.491210938 c 0
 477.169935942 690.512329181 479.769940747 672.494821455 479.769940747 655.357757446 c 0
 479.769940747 547.670199256 377.102586163 474.749048881 324.720703125 416.512695312 c 1
 326.398123564 411.194759773 326.157886078 404.871342555 328.15234375 398.541992188 c 0
 344.763671875 345.862304688 426.775390625 255 455.033203125 255 c 2
 497.487304688 255 l 1
 511.639648438 196.633789062 624.6328125 153.659179688 631.690429688 131.276367188 c 0
 634.254395766 123.144504477 635.432682388 115.145473699 635.432682388 107.357968575 c 0
 635.432682388 48.0433432202 567.076493769 1 522.00390625 1 c 0
 470.658203125 1 425.100585938 57 382.53125 57 c 1
 328.877929688 37.3935546875 288.072265625 -15.3310546875 209.439453125 -15.3310546875 c 0
 202.393554688 -15.3310546875 195.046875 -14.908203125 187.357421875 -14 c 0
 121.0703125 -14 57.6240234375 47.0693359375 37.189453125 111.881835938 c 0
 32.2004155015 127.704194629 29.9997216288 142.295062342 29.9997216288 155.90213363 c 0
 29.9997216288 257.816554206 153.452706107 304.542651538 153.452706107 400.151346024 c 0
193.193368028 214.977096098 m 0
 193.193368028 155.554480286 235.842409551 115 284.333007812 115 c 0
 296.640783351 115 309.093382535 121.629548387 309.093382535 134.712678509 c 0
 309.093382535 137.049235327 308.696200698 139.59163234 307.830078125 142.338867188 c 0
 304.091796875 154.192382812 257.779296875 232.497070312 212.326171875 263.795898438 c 1
 211.529296875 266.3203125 l 1
 198.952112831 254.635260063 193.193368028 235.36335882 193.193368028 214.977096098 c 0
277.666992188 745 m 0
 240.799527053 745 229.277686776 705.988020815 229.277686776 661.626408951 c 0
 229.277686776 625.201894295 237.04542824 585.170788801 244.928710938 560.166992188 c 0
 249.598632812 545.356445312 257.428710938 532 271.741210938 532 c 0
 302.729094058 532 311.870831372 579.890103327 311.870831372 629.462632615 c 0
 311.870831372 667.303973901 306.543869052 706.125678043 301.541015625 725.374023438 c 0
 298.11328125 736.249023438 291.762695312 745 277.666992188 745 c 0
EndSplineSet
EndChar

StartChar: quoteright
Encoding: 257 8217 5
Width: 236
Flags: HW
HStem: 586 255<318.196 355.303>
VStem: 272.669 161.097
LayerCount: 2
Fore
SplineSet
120.942382812 586 m 1
 107.058267359 586 99.3195902179 602.635699742 99.3195902179 618.711810942 c 0
 99.3195902179 633.373359786 106.123900051 644.816161201 106.123900051 660.67498397 c 0
 106.123900051 715.732978515 42.8732645108 727.67940873 31.9267578125 762.3984375 c 0
 30.6114017667 766.569252893 30.0004412398 770.657131835 30.0004412398 774.640177398 c 0
 30.0004412398 812.574601628 85.4182815296 841 115.537109375 841 c 0
 164.496806826 841 201.084482418 775.970767273 201.084482418 716.367142831 c 0
 201.084482418 655.364353724 170.468866206 589.848816435 120.942382812 586 c 1
EndSplineSet
EndChar

StartChar: parenleft
Encoding: 40 40 6
Width: 410
Flags: HW
VStem: 129.906 177.812<147.209 372.246>
LayerCount: 2
Fore
SplineSet
198.97912559 426.20256627 m 0
 198.97912559 369.696381345 211.548886316 297.991218867 232.645507812 238.092773438 c 1
 245.281518946 147.916003176 341.264026216 111.102620835 378.342773438 60.65234375 c 1
 379.75798895 56.1643767551 380.412281131 52.0337476398 380.412281131 48.2332739568 c 0
 380.412281131 12.6254677516 322.975947862 6 295.8046875 6 c 0
 182.1015625 8.197265625 96.47265625 106.03125 61.2958984375 217.592773438 c 0
 41.2348736337 281.216197045 31.999963869 342.724649068 31.999963869 401.062802555 c 0
 31.999963869 591.267888201 130.168326711 747.77226373 271.356445312 834 c 1
 280.814453125 834 289.618164062 830.642578125 292.372070312 821.905273438 c 1
 260.035487667 689.709049105 198.97912559 572.36092458 198.97912559 426.20256627 c 0
EndSplineSet
EndChar

StartChar: plus
Encoding: 43 43 7
Width: 716
Flags: HW
HStem: 338 186<208.579 389.855>
VStem: 486.19 120.125<551.936 771.522>
LayerCount: 2
Fore
SplineSet
306.833305793 272.815305395 m 0
 306.833305793 274.701866412 306.843085437 276.790343246 306.843085437 279.02935152 c 0
 306.843085437 301.758452092 305.835281301 340 283.358398438 340 c 0
 268.33203125 340 246.659179688 338 222.486328125 338 c 0
 143.51953125 338 58.5673828125 353.033203125 36.33984375 423.524414062 c 0
 32.6744389521 435.504073276 30.9997754878 446.277080441 30.9997754878 455.913694493 c 0
 30.9997754878 504.275852129 73.1781608623 524.016601562 117.583007812 524.016601562 c 0
 118.319335938 524.016601562 119.053710938 524.010742188 119.793945312 524 c 0
 164.603515625 524 212.889648438 507 259.010742188 507 c 0
 284.147322611 507 292.461855547 525.538883145 292.461855547 553.209477055 c 0
 292.461855547 607.295323875 260.695443554 696.269683204 260.695443554 749.881223296 c 0
 260.695443554 776.947197452 268.791973437 795 293.16015625 795 c 0
 340.995117188 795 369.6875 751.022460938 385.484375 700.922851562 c 0
 395.853515625 667.012695312 426.098632812 537.755859375 434.795898438 503.290039062 c 1
 456.037109375 485 l 1
 564.08984375 485 l 2
 613.147831381 485 684.80593403 478.747881147 684.80593403 423.558771533 c 0
 684.80593403 351.201150336 482.144773347 381.199953537 463.5625 347.508789062 c 0
 458.207060913 337.799989364 456.461513779 321.944314929 456.461513779 302.580919081 c 0
 456.461513779 266.321832472 462.582230106 217.763010548 462.582230106 174.233338683 c 0
 462.582230106 116.728270911 451.900448252 68 402.314453125 68 c 0
 367.099609375 68 333.376953125 91.8388671875 322.510742188 126.30078125 c 2
 308.319335938 171.306640625 l 1
 305.783054148 185.11692535 305.014504779 198.48731827 305.014504779 211.714080426 c 0
 305.014504779 232.061542732 306.833305793 252.069097426 306.833305793 272.815305395 c 0
EndSplineSet
EndChar

StartChar: zero
Encoding: 48 48 8
Width: 593
Flags: HW
HStem: 42 121<298.334 452.099> 763 67<522.677 558.174>
LayerCount: 2
Fore
SplineSet
282.981445312 744.373046875 m 0
 238.67483354 669.007766082 207.250757778 581.870883302 207.250757778 483.742858761 c 0
 207.250757778 436.956222032 214.394405916 387.670964501 230.69140625 335.971679688 c 0
 267.479492188 219.305664062 300.666992188 175.0703125 328.412109375 175.0703125 c 0
 381.762719652 175.0703125 414.991070091 338.627308966 414.991070091 465.277213719 c 0
 414.991070091 508.87701082 411.053140168 548.102906151 402.642578125 574.776367188 c 0
 385.064453125 630.524414062 334.341796875 667.034179688 315.401367188 727.1015625 c 0
 312.137695312 737.458007812 320.692382812 742.743164062 318.481445312 757.177734375 c 1
 316.647460938 763 l 1
 303.002929688 763 288.869140625 754.876953125 282.981445312 744.373046875 c 0
314.081054688 830 m 0
 478.338093562 830 558.827729098 674.757330351 558.827729098 493.709507203 c 0
 558.827729098 283.622025901 457.086254426 42 289.040039062 42 c 0
 177.861328125 42 91.37109375 142.46875 57.4423828125 250.0703125 c 0
 40.2800986875 304.498277762 32.0004402019 363.19964854 32.0004402019 421.625888265 c 0
 32.0004402019 627.52133494 134.823384568 830 314.081054688 830 c 0
EndSplineSet
EndChar

StartChar: one
Encoding: 49 49 9
Width: 338
Flags: HW
LayerCount: 2
Fore
SplineSet
57.2919921875 602 m 0
 39.1983137217 602 30.0003727816 629.324878794 30.0003727816 650.276665991 c 0
 30.0003727816 742.729055099 209.47925707 830 267.369140625 830 c 0
 285.579101562 830 296.390625 814.7109375 302.458007812 795.473632812 c 1
 303.349471823 777.254430895 303.756069215 759.704742766 303.756069215 742.708280887 c 0
 303.756069215 582.750418252 267.743117034 471.792649763 260.959960938 312.901367188 c 0
 256.197265625 201.291015625 262.157226562 48 131.943359375 48 c 0
 98.4287109375 48 59.380859375 70.2275390625 48.4326171875 104.942382812 c 0
 41.8239755049 125.902360973 39.045659043 148.011083089 39.045659043 170.955988124 c 0
 39.045659043 292.149289654 116.557208101 436.671047161 116.557208101 558.462537162 c 0
 116.557208101 575.236951747 115.409904912 593.869203332 110.952148438 608 c 1
 92.6181640625 608 73.466796875 602 57.2919921875 602 c 0
EndSplineSet
EndChar

StartChar: two
Encoding: 50 50 10
Width: 520
Flags: HW
HStem: 51 183<286.995 443.58> 725 114<387.124 485.723>
LayerCount: 2
Fore
SplineSet
480.939453125 250 m 1
 485.712994274 236.770662958 488.925100248 220.221441582 488.925100248 206.740965906 c 0
 488.925100248 106.391132054 352.961109168 50.994140625 278.16015625 50.994140625 c 0
 277.717773438 50.994140625 277.274414062 50.99609375 276.836914062 51 c 0
 207.24609375 51 98.76171875 71.1845703125 81.0693359375 127.291992188 c 1
 119.0982646 273.240393995 250.934230303 374.78356255 250.934230303 544.609417444 c 0
 250.934230303 581.270779029 243.554452165 625.360216637 229.702148438 666.869140625 c 0
 220.265625 696.798828125 203.987304688 725 173.4140625 725 c 0
 151.316416444 724.55207828 143.81828785 708.071944688 143.81828785 683.752701947 c 0
 143.81828785 632.396886119 177.255653512 546.083126349 177.255653512 501.966969746 c 0
 177.255653512 489.043831038 174.386374862 479.741691754 166.966796875 476 c 1
 110.37109375 476 60.099609375 542.78125 42.1201171875 599.8046875 c 0
 34.4858552439 624.015953471 30.9998404236 646.696079301 30.9998404236 667.699877348 c 0
 30.9998404236 775.379026121 122.621211974 839 216.633789062 839 c 0
 305.319335938 839 393.354492188 784.418945312 421.192382812 696.129882812 c 0
 429.912014781 668.475203163 433.734198359 641.206945724 433.734198359 614.455413378 c 0
 433.734198359 475.285125459 330.289731396 350.099605857 274.794921875 257.245117188 c 1
 277.815429688 247.6640625 l 1
 279.999023438 235.34765625 313.982421875 233.842773438 333.793945312 233.842773438 c 0
 340.203125 233.842773438 345.008789062 234 346.57421875 234 c 0
 393.015625 234 435.27734375 250 480.939453125 250 c 1
EndSplineSet
EndChar

StartChar: three
Encoding: 51 51 11
Width: 581
Flags: HW
HStem: 28 112<239.516 330.824> 733 113<468.251 564.01>
LayerCount: 2
Fore
SplineSet
300.598725549 665.575686612 m 0
 300.598725549 692.432823557 290.472564007 733 263.474609375 733 c 0
 235.899414062 733 195.610351562 554.028320312 174.208007812 554.028320312 c 0
 142.306640625 554.028320312 108.415039062 600.30859375 95.861328125 640.116210938 c 0
 90.3805706889 657.498228537 87.8736057001 673.774931847 87.8736057001 688.948100409 c 0
 87.8736057001 793.845364422 207.692146277 846 293.081054688 846 c 0
 373.868164062 846 449.446289062 797.822265625 474.2578125 719.133789062 c 0
 479.078900879 703.843843989 481.158224533 689.722439086 481.158224533 676.669166644 c 0
 481.158224533 594.723830269 399.211467078 554.873908658 399.211467078 532.277686432 c 0
 399.211467078 507.997912263 515.926738557 487.231752772 543.22265625 400.662109375 c 0
 548.180994066 384.937148897 550.483299911 368.784923789 550.483299911 352.433547769 c 0
 550.483299911 198.986042241 347.727134034 28 234.551757812 28 c 0
 150.805664062 28 64.5009765625 83.1611328125 38.171875 166.661132812 c 0
 32.5704279312 184.42548292 30.000274502 202.078658135 30.000274502 219.252358047 c 0
 30.000274502 316.278930226 112.037825517 398.000976562 192.953125 398.000976562 c 0
 204.172851562 398.000976562 212.791015625 397.711914062 216.025390625 387.448242188 c 0
 218.106233139 380.849394735 218.992082137 374.083760317 218.992082137 367.122557326 c 0
 218.992082137 327.228110969 189.897241227 280.910406783 189.897241227 222.751937976 c 0
 189.897241227 186.837624202 197.529286508 140 237.211914062 140 c 0
 302.109204155 140 352.337591987 244.392055255 352.337591987 327.317318518 c 0
 352.337591987 344.09729682 350.280951832 359.998300735 345.873046875 373.977539062 c 0
 320.935546875 453.067382812 237.73046875 452.403320312 229.029296875 479.997070312 c 0
 226.811637556 487.030753554 225.817441421 493.735512666 225.817441421 500.192890099 c 0
 225.817441421 556.196573997 300.598725549 593.59274268 300.598725549 665.575686612 c 0
EndSplineSet
EndChar

StartChar: four
Encoding: 52 52 12
Width: 526
Flags: HW
HStem: 331 502<274.648 482.674>
LayerCount: 2
Fore
SplineSet
247.863299098 273.373857208 m 0
 247.863299098 296.929049114 240.831007326 316.048282985 230.516601562 332.1328125 c 1
 221.286132812 332.1328125 196.48828125 331 170.280273438 331 c 0
 154.9609375 331 138.123046875 330.123046875 121.53515625 330.123046875 c 0
 80.78515625 330.123046875 41.5400390625 335.416992188 30 372.020507812 c 1
 50.9462890625 537.236328125 41.435546875 803.28515625 220.018554688 833 c 1
 242.936523438 833 257.53515625 832.602539062 264.291015625 811.169921875 c 0
 266.896411517 802.907541345 268.079318151 794.14384717 268.079318151 784.961945758 c 0
 268.079318151 701.179657988 169.589882949 582.577213274 154.62890625 492.29296875 c 1
 156.046875 487.79296875 l 1
 168.434570312 482.268554688 175.65625 476.860351562 187.564453125 476.860351562 c 0
 191.044921875 476.69921875 194.40234375 476.62109375 197.638671875 476.62109375 c 0
 338.293945312 476.62109375 252.719726562 625.147460938 390.192382812 625.147460938 c 0
 392.673828125 625.147460938 395.231445312 625.098632812 397.859375 625 c 0
 418.473632812 625 451.788085938 622.712890625 457.123046875 605.795898438 c 0
 459.50244011 598.249480989 460.396533281 590.915935332 460.396533281 583.697469941 c 0
 460.396533281 561.864231294 452.216984554 541.08379639 452.216984554 518.650207074 c 0
 452.216984554 510.957829808 453.178714114 503.071079047 455.76171875 494.880859375 c 0
 462.374023438 473.908203125 491.685546875 483.294921875 496.16796875 469.077148438 c 1
 479.117135297 399.121100396 409.957671571 294.47552905 409.957671571 179.07088092 c 0
 409.957671571 162.210045469 411.433932734 145.119549371 414.764648438 127.874023438 c 1
 409.71875 81.56640625 331.71484375 46 290.9609375 46 c 0
 260.072265625 46 232.393554688 56.509765625 223.23828125 85.5458984375 c 0
 219.287634278 98.0751198125 217.68248596 110.35802014 217.68248596 122.449191293 c 0
 217.68248596 174.878756126 247.863299098 223.703331735 247.863299098 273.373857208 c 0
EndSplineSet
EndChar

StartChar: five
Encoding: 53 53 13
Width: 526
Flags: HW
HStem: 42 97<192.549 309.133> 660.92 167.322<401.784 530.432>
VStem: 103.478 132.374<140.383 247.286> 440.119 200.011<398.97 539.932>
LayerCount: 2
Fore
SplineSet
111.60546875 483 m 0
 55.0749345642 483 55.2513054094 538.577476261 55.2513054094 601.582800526 c 0
 55.2513054094 701.2553487 78.2400746259 832.620117188 165.709960938 832.620117188 c 0
 170.651367188 832.620117188 175.798828125 832.200195312 181.158203125 831.333007812 c 0
 203.774414062 831.333007812 223.971679688 829.357421875 241.6171875 829.357421875 c 0
 250.727539062 829.357421875 259.383789062 829.389648438 267.80859375 829.389648438 c 0
 275.022460938 828.474609375 283.372070312 828.2421875 292.392578125 828.2421875 c 0
 301.71875 828.2421875 311.762695312 828.491210938 322.009765625 828.491210938 c 0
 354.12890625 828.491210938 388.25 826.049804688 408.540039062 805.870117188 c 1
 406.993164062 707.176757812 307.784179688 665.365234375 209.100585938 660.919921875 c 1
 197.390096169 657.975455933 194.635849497 640.087266001 194.635849497 627.362689194 c 0
 194.635849497 616.053580326 198.079064166 605 209.85546875 605 c 0
 247.073242188 605 281.670898438 621 319.225585938 621 c 0
 429.936218021 621 494.370987991 540.18944151 494.370987991 416.778879047 c 0
 494.370987991 243.890920554 360.016303428 42 225.450195312 42 c 0
 136.000976562 42 68.875 109.743164062 42.2119140625 194.305664062 c 0
 33.9089482717 220.636348435 29.9998294708 247.171161694 29.9998294708 272.736500262 c 0
 29.9998294708 372.793244271 89.8779974665 458 180.575195312 458 c 0
 192.060546875 458 209.270507812 453.421875 212.053710938 444.596679688 c 0
 214.700422342 436.201782858 215.831071253 427.306279215 215.831071253 417.961183295 c 0
 215.831071253 363.131654427 176.909598031 292.825354987 176.909598031 217.345818368 c 0
 176.909598031 189.592632383 179.59378028 139 211.34765625 139 c 0
 280.16615042 139 319.7935521 249.526040388 319.7935521 341.654645898 c 0
 319.7935521 367.145029256 316.759944973 391.22702884 310.471679688 411.169921875 c 0
 291.138671875 472.481445312 262.8203125 492 193.126953125 492 c 0
 161.120117188 492 139.647460938 483 111.60546875 483 c 0
EndSplineSet
EndChar

StartChar: six
Encoding: 54 54 14
Width: 583
Flags: HW
HStem: 41 122<297.693 425.439>
LayerCount: 2
Fore
SplineSet
354.088867188 163 m 1
 382.308734633 178.943662151 390.765402736 214.009892828 390.765402736 254.713645154 c 0
 390.765402736 298.387672628 381.029485393 348.552015689 375.524414062 388.548828125 c 1
 356.841796875 447.796875 303.052734375 499 246.200195312 499 c 0
 199.482783351 499 181.240064414 450.046880667 181.240064414 395.796946788 c 0
 181.240064414 369.1912981 185.627783803 341.311665201 193.196289062 317.307617188 c 0
 218.086914062 238.373046875 290.842773438 163 354.088867188 163 c 1
381.24609375 620 m 0
 493.732168686 620 550.535754225 491.716310222 550.535754225 369.496010901 c 0
 550.535754225 199.25360344 442.009023709 41 292.51171875 41 c 0
 183.71875 41 80.7001953125 85.162109375 47.1435546875 191.58984375 c 0
 36.6448954268 224.886156729 32.0000262195 262.839634167 32.0000262195 303.334369954 c 0
 32.0000262195 492.798649645 133.678972339 737.892584153 213.21875 821.904296875 c 0
 226.016601562 835.420898438 258.211914062 837 285.319335938 837 c 0
 292.619140625 837 302.815429688 837.458007812 314.061523438 837.458007812 c 0
 345.088867188 837.458007812 384.11328125 833.97265625 392.375 807.7734375 c 1
 390.155771771 730.49071217 295.794795165 665.185393281 295.794795165 624.697126552 c 0
 295.794795165 620.910894455 296.619974839 617.341685622 298.422851562 614 c 1
 325.364257812 614 355.4296875 620 381.24609375 620 c 0
EndSplineSet
EndChar

StartChar: seven
Encoding: 55 55 15
Width: 507
Flags: HW
HStem: 807 20G<333.973 448.019>
LayerCount: 2
Fore
SplineSet
178.26171875 40 m 1
 144.199173889 40 107.027004778 49.0691442671 107.027004778 88.0226758628 c 0
 107.027004778 140.227605654 172.738240984 224.754937259 172.738240984 280.23093799 c 0
 172.738240984 336.671189733 122.049657088 314.812137992 110.842773438 350.34765625 c 0
 102.642866964 376.353279707 99.1243785464 396.689361387 99.1243785464 412.610319421 c 0
 99.1243785464 504.624631146 216.648900767 449.165017844 227.200195312 488.390625 c 2
 280.8046875 687.6875 l 1
 278.797851562 694.051757812 268.716796875 705.0390625 260.092773438 705.0390625 c 0
 187.572265625 705.0390625 138.137695312 650 71.1923828125 650 c 0
 57.517578125 650.172851562 38.5693359375 650.297851562 35.1943359375 660.993164062 c 0
 32.3823774244 669.911212971 30.9999424223 681.533304675 30.9999424223 694.490620865 c 0
 30.9999424223 748.951323174 55.421934324 827 100.76953125 827 c 0
 150.756835938 827 183.420898438 827.169921875 206.81640625 827.169921875 c 0
 216.284179688 827.169921875 226.834960938 827.247070312 238.11328125 827.247070312 c 0
 313.299804688 827.247070312 420.84765625 823.8359375 455.982421875 771.537109375 c 1
 459.5758338 760.140757107 461.128443781 749.00443873 461.128443781 738.059716549 c 0
 461.128443781 668.444130076 398.313082469 606.58012609 398.313082469 534.856032161 c 0
 398.313082469 523.182388329 399.97706437 511.247550247 403.846679688 498.975585938 c 0
 409.1171875 482.26171875 422.33203125 478 434.153320312 478 c 0
 441.6015625 478 449.288085938 479 455.83984375 479 c 0
 466.935546875 479 471.764648438 477.872070312 474.090820312 465.657226562 c 0
 475.2037491 459.308718769 475.726336517 453.455982482 475.726336517 448.041148993 c 0
 475.726336517 371.067431156 370.123966963 382.583354634 353.547851562 316.356445312 c 0
 338.142578125 254.822265625 344.01953125 37.669921875 204.438476562 37.669921875 c 0
 196.227539062 37.669921875 187.513671875 38.4208984375 178.26171875 40 c 1
EndSplineSet
EndChar

StartChar: eight
Encoding: 56 56 16
Width: 508
Flags: HW
HStem: 28 90<257.599 339.546> 354 477<337.754 480.776>
LayerCount: 2
Fore
SplineSet
251.734375 354 m 0
 218.767502141 354 209.772030053 296.146186055 209.772030053 241.686166042 c 0
 209.772030053 201.589109341 214.648363064 163.331785922 218.423828125 151.359375 c 0
 224.198242188 133.043945312 234.715820312 118 258.171875 118 c 0
 300.278994359 118 316.121936506 169.324385301 316.121936506 220.147646151 c 0
 316.121936506 243.597271813 312.749198454 266.940215175 307.02734375 285.0859375 c 0
 297.03125 316.7890625 275.545898438 354 251.734375 354 c 0
254.502929688 28 m 0
 148.053134194 28 32.0004832672 87.791047744 32.0004832672 215.873862567 c 0
 32.0004832672 337.260910691 155.648385987 419.413751296 155.648385987 430.627584841 c 0
 155.648385987 441.802441974 65.5519277411 525.033272596 44.3671875 592.224609375 c 0
 37.2442625033 614.814657655 33.974765173 636.39293389 33.974765173 656.687682078 c 0
 33.974765173 760.701089104 119.854816895 831 213.004882812 831 c 0
 242.528320312 831 285.513671875 827.033203125 289.377929688 804.368164062 c 1
 289.462890625 804.10546875 l 1
 244.184025526 779.498177149 215.224268813 733.507374466 215.224268813 673.515304501 c 0
 215.224268813 652.618360747 218.738034216 630.022605465 226.299804688 606.040039062 c 0
 234.03125 581.516601562 245.16015625 559 272.551757812 559 c 0
 305.957386904 559 316.668170997 589.858492177 316.668170997 627.751920392 c 0
 316.668170997 663.078977809 307.35905594 704.520342864 298.451171875 732.772460938 c 0
 296.687619045 738.36543597 295.883120539 743.364160849 295.883120539 747.8312284 c 0
 295.883120539 780.015881673 337.64479192 784.602101329 363.36328125 785 c 0
 403.793945312 785 425.8984375 765.028320312 437.836914062 727.172851562 c 0
 443.073143952 710.566202642 445.324882179 694.242773439 445.324882179 678.384729789 c 0
 445.324882179 580.921759683 360.270250765 501.037740863 360.270250765 481.02260905 c 0
 360.270250765 470.106359921 447.50888886 382.182269492 468.069335938 316.970703125 c 0
 473.947012413 298.330312914 476.646407408 279.695533486 476.646407408 261.374448508 c 0
 476.646407408 137.519128616 353.281001847 28 254.502929688 28 c 0
EndSplineSet
EndChar

StartChar: nine
Encoding: 57 57 17
Width: 581
Flags: HW
HStem: 392 69<421.09 443.485> 766 67<475.278 565.543>
LayerCount: 2
Fore
SplineSet
278.8515625 766 m 0
 229.859844253 766 209.923353453 691.187623697 209.923353453 627.335952549 c 0
 209.923353453 603.318187098 212.744134513 580.851233663 217.900390625 564.5 c 0
 232.94140625 516.796875 270.827148438 461 316.79296875 461 c 0
 346.478060248 461 355.456479218 514.73198699 355.456479218 571.595298088 c 0
 355.456479218 623.065383554 348.100417625 677.100977836 342.0859375 696.176757812 c 0
 331.9609375 728.282226562 310.043945312 766 278.8515625 766 c 0
182.166992188 37 m 0
 163.59765625 37 143.143554688 39.15234375 138.204101562 54.8232421875 c 0
 137.758054565 55.3768254985 137.542412376 56.0828218414 137.542412376 56.9356905167 c 0
 137.542412376 81.8519271193 321.591765952 232.122844911 321.591765952 369.593810066 c 0
 321.591765952 377.108307684 321.041829845 384.584559277 319.881835938 392 c 1
 278.596679688 369 234.86328125 355 188.149414062 355 c 0
 117.7421875 355 65.15625 423.396484375 43.482421875 492.137695312 c 0
 34.2255195113 521.494794555 30.000202293 549.597566055 30.000202293 576.178788287 c 0
 30.000202293 730.098445351 171.676630993 833 298.485351562 833 c 0
 414.768554688 833 493.127929688 732.651367188 527.844726562 622.548828125 c 0
 541.640759792 578.794813109 548.011831146 533.856680233 548.011831146 489.265275312 c 0
 548.011831146 258.489216715 377.367580223 37 182.166992188 37 c 0
EndSplineSet
EndChar

StartChar: equal
Encoding: 61 61 18
Width: 651
Flags: HW
HStem: 208 161<224.651 557.33> 447 162<241.168 563.907>
LayerCount: 2
Fore
SplineSet
36.5537109375 497.01953125 m 0
 32.0584691216 511.27639687 29.9997789346 523.754639854 29.9997789346 534.670094884 c 0
 29.9997789346 598.842256818 101.153996336 609 166.682617188 609 c 0
 298.0703125 609 308.715820312 608.9765625 406.418945312 600.018554688 c 0
 456.572265625 595.71875 560.916015625 595.033203125 575.543945312 548.633789062 c 0
 576.510969529 545.567140509 576.979155411 542.591599461 576.979155411 539.704513483 c 0
 576.979155411 457.468825952 197.122680403 447 145.791015625 447 c 0
 143.4609375 446.955078125 141.129882812 446.931640625 138.807617188 446.931640625 c 0
 92.9384765625 446.931640625 49.4296875 456.188476562 36.5537109375 497.01953125 c 0
349.58984375 369.349609375 m 0
 426.805664062 369.349609375 582.544921875 366.750976562 619.13671875 299.60546875 c 0
 619.929313659 296.904970498 620.31366864 294.283095781 620.31366864 291.737591426 c 0
 620.31366864 216.583503039 285.278770461 208 229.905273438 208 c 0
 169.104492188 208 87.537109375 208.754882812 69.2998046875 266.599609375 c 0
 68.677645056 271.287513877 68.376669758 275.780563985 68.376669758 280.085427516 c 0
 68.376669758 348.695969525 144.829536841 369.50390625 215.918945312 369.50390625 c 0
 216.701171875 369.50390625 217.482421875 369.501953125 218.26171875 369.49609375 c 0
 240.802734375 369.49609375 265.004882812 369 273.483398438 369 c 0
 306.42578125 369 329.943359375 369.349609375 349.58984375 369.349609375 c 0
EndSplineSet
EndChar

StartChar: question
Encoding: 63 63 19
Width: 503
Flags: HW
HStem: 735 98<385.773 455.618>
LayerCount: 2
Fore
SplineSet
460.579101562 388 m 1
 466.442261023 375.91561027 471.80641421 359.727224922 471.80641421 344.305879051 c 0
 471.80641421 258.588627172 324.907092998 231 264.5078125 231 c 0
 220.264648438 231 160.529296875 234.295898438 148.03125 273.940429688 c 1
 169.360378483 377.37374207 257.573527905 468.225401139 257.573527905 591.402142134 c 0
 257.573527905 641.398472242 239.893919488 735 189.788085938 735 c 1
 154.990088299 715.551058763 144.402364984 679.434520022 144.402364984 635.970761436 c 0
 144.402364984 587.512465719 157.563225784 529.921353176 165.005859375 476.114257812 c 1
 107.9765625 479.895507812 61.3583984375 547.927734375 42.306640625 608.356445312 c 0
 34.5674215845 632.901021439 31.0004624416 656.039456048 31.0004624416 677.454394526 c 0
 31.0004624416 772.037395414 100.581459981 833 187.592773438 833 c 0
 292.362304688 833 400.431640625 771.948242188 432.866210938 669.078125 c 0
 439.642077358 647.588957521 442.459377448 627.659222263 442.459377448 609.043998631 c 0
 442.459377448 517.137887168 373.786479254 457.273560443 373.786479254 399.976025536 c 0
 373.786479254 395.974845893 374.121359555 391.986183095 374.837890625 388 c 1
 460.579101562 388 l 1
167.291015625 47.767578125 m 0
 162.338161366 63.4749491486 160.067129066 78.1991109763 160.067129066 91.8578150269 c 0
 160.067129066 164.235875772 223.837391801 206.696034259 290.25390625 207 c 0
 316.22265625 207 339.0390625 196.708984375 347.069335938 171.237304688 c 0
 353.049621159 152.271550099 355.84599998 134.654720617 355.84599998 118.545723957 c 0
 355.84599998 48.6988537271 303.274190863 7.19917975358 229.719726562 7 c 0
 201.9140625 7 175.8515625 20.6162109375 167.291015625 47.767578125 c 0
EndSplineSet
EndChar

StartChar: A
Encoding: 65 65 20
Width: 716
Flags: HW
HStem: 159 122<256.288 389.682> 675.084 20G<268.735 287.934>
LayerCount: 2
Fore
SplineSet
278.603515625 281 m 2
 389.83984375 281 l 1
 367.897482492 343.818991597 337.557429932 458.71344509 307.150390625 488.021484375 c 1
 286.672707981 440.637397919 255.202027905 345.438254871 255.202027905 295.894804103 c 0
 255.202027905 285.561176034 272.175829187 281 278.603515625 281 c 2
79.673828125 4.9921875 m 0
 52.302873664 4.9921875 29.9996096684 8.38191208644 29.9996096684 38.6516140237 c 0
 29.9996096684 82.6158045107 87.0937039078 122.452676433 87.0937039078 152.192639907 c 0
 87.0937039078 176.486429893 42.7329934146 168.058702573 33.509765625 197.314453125 c 0
 31.7936344964 202.756417962 30.9939542231 208.114647866 30.9939542231 213.341262793 c 0
 30.9939542231 255.440108412 82.8758394436 289 125.618164062 289 c 0
 136.422851562 289 141.989257812 289.76171875 143.443359375 293 c 0
 186.833984375 398.641601562 208.084960938 512.443359375 247.64453125 621.424804688 c 1
 242.644243238 637.28798691 210.383938887 663.716190758 210.383938887 679.144774786 c 0
 210.383938887 693.665679011 254.749778156 695.083984375 284.342773438 695.083984375 c 0
 291.525390625 695.083984375 297.838867188 695 302.434570312 695 c 0
 453.33203125 695 472.376953125 468.9921875 548.751953125 299.31640625 c 0
 584.666015625 219.5234375 664.186523438 132.514648438 684.087890625 69.3984375 c 0
 685.474025715 64.7501890347 686.122249254 60.4067362163 686.122249254 56.3509947508 c 0
 686.122249254 15.6204974534 620.745443614 3.9072265625 580.833007812 3.9072265625 c 0
 499.8984375 3.9072265625 474.030273438 120.677734375 428.323242188 178 c 1
 399.978515625 178 386.989257812 156 353.190429688 156 c 0
 318.294921875 156 284.12890625 159 248.677734375 159 c 0
 212.958984375 159 220.637695312 140.375 215.98828125 125.708984375 c 0
 191.25 47.0732421875 165.590820312 4.9921875 79.673828125 4.9921875 c 0
EndSplineSet
EndChar

StartChar: B
Encoding: 66 66 21
Width: 566
Flags: HW
HStem: -11 107<211.513 368.096> 623 89<416.372 493.781>
VStem: 458.77 155.639<201.678 334.425> 501.709 161.603<530.904 614.605>
LayerCount: 2
Fore
SplineSet
37.7958984375 555.83203125 m 1
 32.680471318 566.716559236 28.0003229084 581.733730698 28.0003229084 595.464369048 c 0
 28.0003229084 680.459279466 178.650362086 712 263.225585938 712 c 0
 322.301757812 712 445.442382812 690.965820312 471.138671875 609.463867188 c 0xd0
 476.708275101 591.800192571 479.129547215 575.521798031 479.129547215 560.548205957 c 0
 479.129547215 459.795112036 369.504854773 418.117810611 371.751953125 410.999023438 c 0
 372.288085938 409.29296875 498.953125 366.1640625 521.760742188 293.831054688 c 0
 528.824114978 271.429175084 532.247926489 248.940593385 532.247926489 226.887733077 c 0
 532.247926489 100.824785287 420.367294444 -11 236.907226562 -11 c 0
 189.427734375 -11 113.62109375 6.7744140625 102.716796875 41.3525390625 c 0
 101.836977113 44.1427462818 101.453632921 46.7849313338 101.453632921 49.3072506274 c 0
 101.453632921 67.9863903388 118.306391561 77.6145802763 118.306391561 93.6265644406 c 0
 118.306391561 96.0070955336 117.933889729 98.5287296413 117.078125 101.2421875 c 1
 80.998046875 102.998046875 59.68359375 104.791015625 49.0634765625 138.467773438 c 1xe0
 45.207004671 167.500853028 43.5921595276 195.786167901 43.5921595276 223.474483592 c 0
 43.5921595276 345.620360937 75.0186173007 456.148053318 84.0615234375 568.000976562 c 1
 67.0244140625 568.000976562 50.99609375 555.83203125 37.7958984375 555.83203125 c 1
158.326171875 127.029296875 m 1
 188.071289062 105.912109375 236.448242188 96 273.049804688 96 c 0
 334.851659278 96 380.400408365 155.273479281 380.400408365 224.155558541 c 0
 380.400408365 239.856208159 378.033948182 256.0560673 372.954101562 272.166992188 c 0xe0
 346.548828125 355.904296875 284.82421875 354.689453125 218.921875 379 c 1
 209.549804688 379 l 1
 208.49609375 289.44921875 189.724609375 198.462890625 158.326171875 127.029296875 c 1
326.829125358 540.173813871 m 0
 326.829125358 587.893121547 297.422592792 623 253.436523438 623 c 0
 222.928710938 623 226.836914062 611.625 225.696289062 585.811523438 c 0
 221.696289062 530.576171875 213.735351562 476.782226562 211.821289062 421.106445312 c 1
 213.807617188 414.8046875 222.188476562 412 225.821289062 412 c 0
 280.244136663 412 326.829125358 482.589170017 326.829125358 540.173813871 c 0
EndSplineSet
EndChar

StartChar: C
Encoding: 67 67 22
Width: 609
Flags: HW
HStem: -10 116<232.029 399.577> 631 81<505.934 635.16>
VStem: 106.155 191.139<112.772 271.353> 559.229 150.672<507.296 629.662>
LayerCount: 2
Back
SplineSet
205.578125 -8.2431640625 m 4
 103.750976562 5.849609375 36.65625 102.078125 52.9619140625 221.500976562 c 4
 82.623046875 437.064453125 353.388671875 712 545.009765625 712 c 4
 552.880859375 712 560.388671875 711.490234375 567.5078125 710.489257812 c 4
 629.223632812 701.810546875 663.434570312 656.58203125 652.059570312 578.702148438 c 4
 631.274414062 432.216796875 475.327148438 244 373.430664062 244 c 4
 359.567382812 244 353.393554688 247.372070312 355.86328125 264.291015625 c 5
 358.33984375 282.953125 397.3125 320.084960938 411.734375 346.545898438 c 4
 450.956054688 418.080078125 491.998046875 527.401367188 502.81640625 608.248046875 c 5
 504.696289062 619.8359375 504.10546875 631 489.24609375 631 c 4
 469.232421875 631 448.389648438 605.651367188 437.244140625 594.950195312 c 5
 336.120117188 492.112304688 263.68359375 348.620117188 244.032226562 204.538085938 c 4
 242.001953125 188.580078125 239.555664062 172.280273438 239.498046875 157.48046875 c 4
 239.388671875 129.627929688 249.197265625 106 285.838867188 106 c 4
 398.385742188 106 548.141601562 250 587.009765625 250 c 4
 593.184570312 250 598.452148438 247.068359375 597.06640625 238.754882812 c 5
 592.349609375 204.791015625 546.66796875 131.890625 518.216796875 107.814453125 c 5
 462.9375 58.849609375 299.38671875 -10 231.337890625 -10 c 4
 222.515625 -10 213.920898438 -9.40234375 205.578125 -8.2431640625 c 4
EndSplineSet
Fore
SplineSet
563.830078125 250 m 1
 570.50684999 236.519958698 575.816297407 218.335315479 575.816297407 200.359023694 c 0
 575.816297407 88.922602993 402.160886712 -10 290.139648438 -10 c 0
 180.223632812 -10 82.0087890625 76.5791015625 47.552734375 185.857421875 c 0
 36.2091926706 221.833142458 30.999994557 258.60726366 30.999994557 295.166796152 c 0
 30.999994557 507.192099879 206.204389302 712 376.157226562 712 c 0
 445.159179688 712 497.182617188 674.630859375 518.40234375 607.328125 c 0
 526.970046414 580.15698144 530.823861098 551.845435493 530.823861098 523.546121967 c 0
 530.823861098 383.623538574 436.610031854 244 352.143554688 244 c 0
 340.27734375 244 333.264648438 246.470703125 329.693359375 257.793945312 c 1
 349.40554383 321.708799503 378.957987113 415.453191144 378.957987113 511.066753375 c 0
 378.957987113 546.397211867 374.922899753 581.982886705 364.865234375 616.413085938 c 0
 362.29296875 624.57421875 357.208007812 631 345.934570312 631 c 0
 291.023127683 631 231.922684917 424.669973854 231.922684917 270.70844769 c 0
 231.922684917 198.073340952 245.159811882 106 308.06640625 106 c 0
 420.61328125 106 524.961914062 250 563.830078125 250 c 1
EndSplineSet
EndChar

StartChar: D
Encoding: 68 68 23
Width: 684
Flags: HW
HStem: 584 111<495.615 554.619>
LayerCount: 2
Fore
SplineSet
331.716796875 594.291015625 m 1
 289.106650693 555.405119069 279.84172215 487.327178994 279.84172215 410.726241054 c 0
 279.84172215 351.781581923 285.327810792 287.790157287 285.327810792 228.169812264 c 0
 285.327810792 173.970562605 280.794031246 123.383633607 263.483398438 83.484375 c 1
 267.359375 71.1904296875 273.00390625 75.9150390625 286.370117188 75.9150390625 c 0
 425.237980167 75.9150390625 495.28731857 168.868908033 495.28731857 292.563448142 c 0
 495.28731857 330.519140446 488.691680563 371.369283198 475.46484375 413.31640625 c 0
 453.184570312 483.978515625 372.58984375 594.291015625 331.716796875 594.291015625 c 1
38.8427734375 540 m 1
 33.304057541 552.170399269 28.000364494 569.291504829 28.000364494 584.217113904 c 0
 28.000364494 678.722195481 202.994169731 695 311.059570312 695 c 0
 467.512695312 695 581.100585938 631.603515625 626.279296875 488.317382812 c 0
 641.97285089 438.545339586 649.28941075 391.025649262 649.28941075 346.555358789 c 0
 649.28941075 143.483892817 496.720935601 4 292.560546875 4 c 0
 225.91015625 4 115.526367188 13.146484375 98.953125 65.7119140625 c 1
 119.53515625 229.352539062 110.204101562 419.279296875 162.176757812 561.938476562 c 1
 159.3203125 571 l 1
 115.942382812 571 80.2802734375 540 38.8427734375 540 c 1
EndSplineSet
EndChar

StartChar: E
Encoding: 69 69 24
Width: 608
Flags: HW
HStem: -12 119<288.936 398.098> 233 129<341.815 547.171> 397 316<468.908 563.393>
LayerCount: 2
Fore
SplineSet
363.282226562 713 m 0
 441.818138964 713 523.625390819 653.95320806 523.625390819 560.50165143 c 0
 523.625390819 467.221286295 429.261340202 399.377457627 351.935546875 397 c 1
 344.235351562 398.780273438 340.265625 402.091796875 338.885742188 406.467773438 c 1
 357.933412739 452.461070283 390.802958984 511.89774339 390.802958984 578.556967777 c 0
 390.802958984 611.252301781 384.558489003 632.1845074 365.552734375 648.985351562 c 1
 288.130714259 643.375589114 221.01035551 509.304264377 221.01035551 410.416140624 c 0
 221.01035551 392.863966374 223.124953615 376.420223775 227.671875 362 c 1
 495.95703125 362 l 2
 509.891030415 362 524.386925193 353.252578845 524.386925193 339.005052445 c 0
 524.386925193 306.805699974 462.751994022 233 415.328125 233 c 2
 245.959960938 233 l 2
 241.846463516 233 240.413769539 229.901958199 240.413769539 225.516886143 c 0
 240.413769539 216.634554146 246.292099637 202.471548945 247.67578125 198.079101562 c 0
 261.360351562 154.681640625 292.340820312 107 333.384765625 107 c 0
 427.01171875 107 480.234375 229 563.892578125 229 c 1
 571.48070802 215.916126667 575.523773558 192.575543497 575.523773558 175.959843335 c 0
 575.523773558 55.5896024265 401.358298868 3.02016876982 297.905273438 -12 c 1
 155.544951374 -12 31.0004488524 107.798640275 31.0004488524 276.632614076 c 0
 31.0004488524 484.251088006 204.042219966 713 363.282226562 713 c 0
EndSplineSet
EndChar

StartChar: F
Encoding: 70 70 25
Width: 461
Flags: HW
HStem: 237 122<379.307 489.166> 551.932 135.068<453.347 554.384> 676 20G<339.375 371.776>
LayerCount: 2
Fore
SplineSet
298.208984375 687 m 2
 348.096920476 687 391.331710531 676.258747561 391.331710531 620.636400128 c 0
 391.331710531 565.600971862 310.331318055 578.032976903 279.314453125 551.931640625 c 0
 263.450822788 538.580894713 259.877697161 513.570380875 259.877697161 484.859018995 c 0
 259.877697161 461.322288071 262.27892287 435.298498926 262.27892287 411.172263694 c 0
 262.27892287 399.559050508 261.722559324 388.385500207 260.07421875 378.140625 c 1
 262.130859375 371.62109375 l 2
 262.1875 370.768554688 261.548828125 359 270.92578125 359 c 0
 303.956054688 359 336.733398438 362 368.686523438 362 c 0
 393.560546875 362 418.41015625 361.255859375 425.3828125 339.145507812 c 0
 427.139161566 333.5744672 427.995480977 326.553681001 427.995480977 318.806712386 c 0
 427.995480977 284.51720281 411.219236637 236.000976562 381.45703125 236.000976562 c 0
 369.775390625 236.000976562 344.750976562 237 319.026367188 237 c 0
 315.913085938 237 312.728515625 237.006835938 309.515625 237.006835938 c 0
 281.614257812 237.006835938 251.750976562 236.50390625 251.282226562 226.76953125 c 0
 247.600585938 151.951171875 227.838867188 4 142.567382812 4 c 0
 111.543945312 4 79.97265625 25.7861328125 70.322265625 56.3916015625 c 1
 71.400390625 227.922851562 107.334960938 371.2265625 126.095703125 534.23828125 c 1
 117.916015625 560.172851562 41.416015625 535.352539062 28.16796875 577.370117188 c 1
 25.267578125 618.23046875 59.865234375 696.005859375 128.90625 696.005859375 c 0
 129.265625 696.005859375 129.625 696.00390625 129.987304688 696 c 0xa0
 174.650390625 696 223.749023438 687 272.208984375 687 c 2
 298.208984375 687 l 2
EndSplineSet
EndChar

StartChar: G
Encoding: 71 71 26
Width: 576
Flags: HW
HStem: -152 79<274.27 342.678> 32.3418 19.6582<221.485 231.945> 632 80<512.219 591.824>
LayerCount: 2
Fore
SplineSet
381.427561301 536.638451814 m 0
 381.427561301 548.754974128 374.473554956 632 348.665039062 632 c 0
 278.810861915 632 206.682890558 453.72077747 206.682890558 316.535393091 c 0
 206.682890558 287.020921635 210.021441821 259.408540072 217.439453125 235.8828125 c 0
 227.995117188 202.403320312 250.529296875 164.03125 290.202148438 164.03125 c 1
 375.380859375 213.217773438 355.498046875 382.821289062 517.54296875 382.821289062 c 0
 530.889648438 382.821289062 536.671875 379.092773438 539.7421875 369.358398438 c 1
 529.412109375 170.6953125 558.069335938 -152 324.739257812 -152 c 4
 271.713867188 -152 186.260742188 -118.701171875 172.766601562 -75.900390625 c 0
 171.708144368 -72.5439396091 171.217205247 -69.1502342456 171.217205247 -65.7482336237 c 0
 171.217205247 -27.8878080195 232.020882832 11 248.077148438 11 c 0
 271.006835938 11 314.87890625 -73 349.392578125 -73 c 1
 359.097459689 -68.0696821023 370.56952866 0.687504214467 370.56952866 53.9776084556 c 0
 370.56952866 82.881835246 367.194547739 107.2357837 358.33203125 114.38671875 c 1
 291.330078125 114.38671875 277.53125 32.341796875 216.053710938 32.341796875 c 0
 97.7600295389 32.341796875 31.000348397 169.62086396 31.000348397 301.796846162 c 0
 31.000348397 513.352495026 196.906580919 712 362.75 712 c 0
 423.8359375 712 474.333984375 689.495117188 492.978515625 630.3671875 c 0
 498.832754214 611.800339832 501.538926903 593.64487218 501.538926903 576.355622148 c 0
 501.538926903 497.717823618 445.554673548 437 375.166015625 437 c 0
 366.065166847 437 364.795090794 453.127023042 364.795090794 460.301414157 c 0
 364.795090794 483.354068413 381.427561301 497.128338774 381.427561301 536.638451814 c 0
EndSplineSet
EndChar

StartChar: H
Encoding: 72 72 27
Width: 705
Flags: HW
HStem: 231.937 116.418<249.639 407.126> 235 125<240.135 366.913> 677 31G<105.949 183.868 440.875 540.359>
LayerCount: 2
Fore
SplineSet
154.221679688 -5 m 0
 101.982622488 -5 55.8787248074 19.2689817831 55.8787248074 81.4000116159 c 0
 55.8787248074 113.149572283 67.6038750981 143.78661522 67.6038750981 174.711058565 c 0
 67.6038750981 185.869129612 66.0773889025 197.064617046 61.9228515625 208.36328125 c 0
 54.638671875 228.16796875 29.5029296875 221.439453125 20.650390625 245.512695312 c 0
 16.3983140282 257.076095359 14.5996435216 267.361979438 14.5996435216 276.707371757 c 0
 14.5996435216 328.054150389 68.8975321588 351.009560692 68.8975321588 401.47312405 c 0
 68.8975321588 423.343146281 67.4056218844 455.007000913 67.4056218844 489.885059784 c 0
 67.4056218844 586.801405586 78.7243809466 708 163.706054688 708 c 0
 204.030273438 708 234.374023438 692.7578125 249.202148438 652.43359375 c 0
 257.545313816 629.743196278 260.671866413 609.161804846 260.671866413 589.869171074 c 0
 260.671866413 532.148886578 232.685944078 485.964333742 232.685944078 429.349248021 c 0
 232.685944078 410.904912312 235.656250969 391.35352416 243.532226562 369.935546875 c 0
 245.763671875 363.870117188 249.483398438 360 255.370117188 360 c 0x60
 290.30078125 360 333.583984375 348.354492188 368.55859375 348.354492188 c 0xa0
 434.808895543 348.813765622 440.028064112 418.145778765 440.028064112 494.855334253 c 0
 440.028064112 509.202082426 439.84550255 523.806890027 439.84550255 538.267454096 c 0
 439.84550255 619.934027424 445.668244463 697 523.08203125 697 c 0
 557.63671875 697 589.52734375 678.78515625 602.298828125 644.049804688 c 0
 609.210700685 625.253547824 611.894198193 607.285619851 611.894198193 589.88984382 c 0
 611.894198193 529.455899589 579.506844787 475.927304463 579.506844787 418.562891974 c 0
 579.506844787 403.114646911 581.85565897 387.388218505 587.818359375 371.173828125 c 0
 594.922614809 351.845807174 657.279089549 359.749512403 657.279089549 319.677938253 c 0
 657.279089549 276.359221302 614.035732834 226.338864563 580.470703125 220.141601562 c 1
 565.088867188 130.5 580.712890625 -7 459.00390625 -7 c 0
 409.892358868 -7 398.856632435 40.2505369342 398.856632435 90.5390380563 c 0
 398.856632435 136.269357638 408.020964916 185.856167944 408.020964916 209.687533643 c 0
 408.020964916 213.777942911 407.914096609 217.308820644 407.044921875 219.682617188 c 1
 407.310546875 219.643554688 404.293945312 231.936523438 395.293945312 231.936523438 c 0xa0
 347.415039062 231.936523438 295.647460938 235 247.374023438 235 c 1
 208.612304688 164.440429688 259.612304688 -5 154.221679688 -5 c 0
EndSplineSet
EndChar

StartChar: I
Encoding: 73 73 28
Width: 500
Flags: HW
HStem: -10 21G<217.616 299.882> 594.469 94.5312<181.49 282.071>
LayerCount: 2
Fore
SplineSet
261.028320312 -10 m 0
 159.182417023 -10 49.431045904 58.0283921593 49.431045904 180.774242762 c 0
 49.431045904 220.808717935 59.7001153106 261 82.8173828125 261 c 1
 149.557617188 233.876953125 178.815429688 118.190429688 236.559570312 83 c 1
 269.637561827 187.220834097 283.859750993 361.572679269 283.859750993 507.714105822 c 0
 283.859750993 537.976862032 283.24988176 567.029912326 282.071289062 594 c 1
 278.052734375 594.318359375 274.087890625 594.46875 270.170898438 594.46875 c 0
 194.461914062 594.46875 136.552734375 538 64.9365234375 538 c 0
 43.5154972129 538 27.9999423253 568.349782609 27.9999423253 594.101411317 c 0
 27.9999423253 650.406778471 93.1232480328 689 156.163085938 689 c 2
 289.176757812 689 l 2
 334.106445312 689 458.916992188 670.19921875 466.3203125 646.713867188 c 1
 467.477500584 626.014601616 468.023723526 605.767592208 468.023723526 585.920563325 c 0
 468.023723526 411.829711297 425.996486943 268.513978627 385.63671875 120.692382812 c 0
 365.66796875 47.546875 338.735351562 -10 261.028320312 -10 c 0
EndSplineSet
EndChar

StartChar: J
Encoding: 74 74 29
Width: 401
Flags: HW
HStem: -50 75<158.261 219.469>
LayerCount: 2
Fore
SplineSet
33.5947265625 588.334960938 m 0
 29.7993155286 600.373073402 28.0001115074 611.319653536 28.0001115074 621.242886004 c 0
 28.0001115074 681.575050798 94.5078069313 704.079101562 183.248046875 704.079101562 c 0
 195.23046875 704.079101562 208.124023438 704 222 704 c 0
 271.33203125 704 354.564453125 695.264648438 365.905273438 659.30078125 c 1
 367.266256404 631.624370796 367.90556699 604.531741592 367.90556699 577.922854727 c 0
 367.90556699 427.940630135 347.594250965 293.327216475 321.720703125 156.16796875 c 0
 308.02734375 83.5693359375 281.374023438 -50 201.293945312 -50 c 0
 154.123046875 -50 107.353515625 26.916015625 89.482421875 83.5927734375 c 0
 80.9566071281 110.631869277 76.0531634447 140.369773596 76.0531634447 168.035449921 c 0
 76.0531634447 223.71441923 95.9141575793 271 146.079101562 271 c 0
 152.670898438 271 156.91796875 265.185546875 159.622070312 256.604492188 c 0
 172.2215848 216.647718556 173.304884893 182.475114375 173.304884893 148.428601712 c 0
 173.304884893 141.358172631 173.25816573 134.29318146 173.25816573 127.182953834 c 0
 173.25816573 98.8629852127 173.999328473 69.8253758337 181.385742188 36.8681640625 c 0
 183.416015625 30.427734375 186.977539062 25 193.645507812 25 c 1
 214.752006318 108.385416843 224.213134218 207.162474461 224.213134218 308.803940697 c 0
 224.213134218 406.047794199 215.552984673 505.913555707 200.145507812 597.430664062 c 1
 158.459960938 597.430664062 124.153320312 561.907226562 79.40234375 561.907226562 c 0
 58.75390625 561.907226562 39.8173828125 568.603515625 33.5947265625 588.334960938 c 0
EndSplineSet
EndChar

StartChar: K
Encoding: 75 75 30
Width: 655
Flags: HW
HStem: 316 398<321.334 430.36> 679.819 20G<683.167 738.549>
LayerCount: 2
Fore
SplineSet
214.793945312 316 m 1
 161.361328125 224.984375 214.080078125 28.751953125 66.25 10 c 1
 46.392578125 10 35.1142578125 21.5517578125 28.998046875 38.19140625 c 1
 27.624218269 73.6357468768 26.9995735623 108.172060019 26.9995735623 142.041273375 c 0
 26.9995735623 289.652043588 38.8643329944 424.591645065 52.2841796875 566.8046875 c 0
 60.6767578125 655.7578125 69.4775390625 714 164.765625 714 c 0x80
 191.559570312 714 216.119140625 709.342773438 225.23046875 684.564453125 c 0
 231.898214982 666.430532352 234.376824418 647.504089661 234.376824418 628.139019408 c 0
 234.376824418 572.01779383 213.559532213 512.212632416 213.559532213 457.337395893 c 0
 213.559532213 450.537651937 213.879168846 443.813603925 214.59765625 437.181640625 c 1
 284.877929688 509.49609375 354.256835938 699.819335938 479.310546875 699.819335938 c 0
 498.232421875 699.797851562 510.118164062 696.698242188 516.651367188 678.926757812 c 0
 520.324132782 668.93870351 522.004497171 659.358149352 522.004497171 650.127084712 c 0
 522.004497171 558.793397094 357.506024344 501.672819686 330.743164062 422.577148438 c 1
 332.762695312 417.090820312 335.649414062 411.080078125 337.983398438 404.735351562 c 0
 392.782226562 256.44921875 506.426757812 132.155273438 621.086914062 61.314453125 c 1
 621.958352895 58.9444579543 622.370318969 56.5593662203 622.370318969 54.1717782638 c 0
 622.370318969 20.8292946488 542.029068468 -13 510.727539062 -13 c 0
 454.432617188 -13 397.1640625 15.9033203125 349.837890625 61.173828125 c 0x40
 285.009765625 122.28515625 228.9375 316 214.793945312 316 c 1
EndSplineSet
EndChar

StartChar: L
Encoding: 76 76 31
Width: 371
Flags: HW
HStem: 6 114<226.115 291.318> 677 20G<401.291 423.708>
LayerCount: 2
Fore
SplineSet
334.610351562 122.56640625 m 1
 334.966138862 118.550464801 335.141924387 114.659936547 335.141924387 110.891665436 c 0
 335.141924387 30.9013160008 255.933017953 6 137.84375 6 c 0
 96.7314453125 6 48.623046875 16.0341796875 34.9013671875 53.349609375 c 1
 35.2092571765 57.9144230015 35.3513009326 63.0975027294 35.3513009326 68.8440464408 c 0
 35.3513009326 137.43024112 15.1172828122 286.281424319 15.1172828122 422.225187331 c 0
 15.1172828122 568.677307354 38.6003535154 700.149414062 136.163085938 700.149414062 c 0
 144.770507812 700.149414062 153.954101562 699.126953125 163.749023438 697 c 1
 190.573242188 697 208.057617188 696.768554688 218.279296875 668.97265625 c 0
 230.513994285 635.700553161 235.393367271 603.941596951 235.393367271 573.207766506 c 0
 235.393367271 452.073062694 159.593612788 346.863413482 159.593612788 227.697876761 c 0
 159.593612788 198.076571571 164.277159257 167.592954252 175.97265625 135.788085938 c 0
 180.511835371 123.441727546 192.257259768 117.558974265 199.580842166 117.558974265 c 0
 200.477171073 117.558974265 201.307264471 117.647093008 202.049804688 117.822265625 c 2
 317.243164062 144.999023438 l 1
 325.958984375 138.530273438 331.552734375 130.880859375 334.610351562 122.56640625 c 1
EndSplineSet
EndChar

StartChar: M
Encoding: 77 77 32
Width: 1050
Flags: HW
HStem: 678 20G<489.132 541.184 973.473 1003.25>
VStem: 425.057 176.633<454.952 649.641> 437.232 161.935<266.435 441> 795.019 185.125<181.793 399.677> 804.986 175.158<209.417 408.342>
LayerCount: 2
Fore
SplineSet
226.883789062 628.498046875 m 1
 219.829184295 650.864107351 193.878912833 663.254932969 193.878912833 671.571566723 c 0
 193.878912833 692.351711252 261.047364596 698 277.887695312 698 c 0xc0
 364.305664062 698 407.90234375 614.586914062 433.666015625 532.881835938 c 0xc0
 446.931640625 490.8046875 464.158203125 428.170898438 481.083007812 374.5 c 0
 498.186523438 320.258789062 515.814453125 264 536.1640625 264 c 1
 581.440429688 385.896484375 593.064453125 539.025390625 649.954101562 653.650390625 c 0
 670.0703125 694.184570312 732.452148438 698 774.3203125 698 c 0
 792.000976562 698 804.309570312 696.788085938 809.896484375 679.067382812 c 0
 846.06640625 564.356445312 854.0234375 420.611328125 893.533203125 295.3046875 c 0
 918.229492188 216.984375 955.251953125 145.8671875 1019.1953125 93.5458984375 c 0
 1019.74123466 91.8146631948 1020.00129964 89.9784209123 1020.00129964 88.0565239198 c 0
 1020.00129964 58.5933846934 958.881812432 9 929.568359375 9 c 0
 833.71875 9 757.950195312 117.559570312 729.643554688 207.337890625 c 0xb0
 715.674804688 251.641601562 706.615234375 298.884765625 695.711914062 346.563476562 c 1
 690.880275955 361.880797372 688.171528428 378.618176301 684.0703125 391.618164062 c 0
 682.1484375 397.721679688 671.524414062 407.234375 668.583984375 411.213867188 c 1
 569.158203125 58.921875 l 1
 555.568359375 32.1240234375 548.415039062 4 519.418945312 4 c 1
 429.71484375 45.1025390625 376.462890625 182.516601562 342.5234375 286.049804688 c 0
 331.920898438 319.682617188 326.487304688 351.21875 316.040039062 384.359375 c 0xa8
 309.307938723 405.70306775 298.268122621 423.585013741 292.778320312 441 c 1
 223.932617188 355.046875 249.274414062 8.0009765625 57.5146484375 6 c 0
 45.8740234375 6 31.5185546875 11.42578125 28 22.583984375 c 1
 115.80078125 210.614257812 174.171875 418.400390625 226.883789062 628.498046875 c 1
EndSplineSet
EndChar

StartChar: N
Encoding: 78 78 33
Width: 688
Flags: HW
HStem: -10 21G<46.6187 145.561> 8 306.039<454.405 550.405> 688.001 20G<170.442 267.96 510.712 597.64>
LayerCount: 2
Back
SplineSet
42.0244140625 -10 m 4
 30.4682662768 -10 23.4694906897 -4.62209512157 23.4694906897 6.86766471452 c 4
 23.4694906897 8.62557843539 23.6333213864 10.5265613893 23.9697265625 12.5732421875 c 4
 25.72265625 25.904296875 35.650390625 36.0673828125 44.2060546875 49.08203125 c 5
 102.49609375 140.809570312 146.438449296 235.163085938 193.654744907 330.506835938 c 5
 237.891749027 423.765625 286.046396599 514.958007812 330.37848449 608.416015625 c 4
 330.732887637 609.163085938 l 5
 330.837575829 609.98828125 l 4
 334.411185409 638.238994219 301.232490264 645.125358513 301.232490264 658.401074671 c 4
 301.232490264 686.717478076 411.224639772 708 438.079583754 708 c 4
 508.24180232 708 511.845381196 668.630859375 518.771129404 617.3203125 c 4
 518.8325977 616.869140625 l 5
 518.972822252 616.436523438 l 4
 544.923968636 536.297851562 530.008302339 399.564453125 577.415725934 316.490234375 c 4
 578.640289651 314.345703125 l 5
 581.059643379 314.0390625 l 4
 591.181743 312.751953125 595.626669183 318.272460938 599.529906004 324.2265625 c 4
 599.761372557 324.579101562 l 5
 599.930410373 324.965820312 l 4
 661.076958654 464.600585938 704.99701687 702 843.024414062 702 c 4
 855.14436447 702 859.263632565 696.285859653 859.263632565 684.395277555 c 4
 859.263632565 680.493807303 858.820156254 675.927387467 858.0703125 670.6796875 c 5
 853.205078125 633.701171875 836.537109375 600.2109375 820.486328125 565.099609375 c 4
 758.547851562 431.232421875 697.222237818 310.166992188 635.227619135 171.088867188 c 5
 627.427868588 154.09375 574.236662479 8 517.742495882 8 c 4
 472.086918734 8 422.716351423 177.151367188 412.35414127 218.2421875 c 5
 401.702838035 274.364257812 393.559249205 309.840820312 386.912989657 341.64453125 c 5
 385.9496662 360.229492188 379.425382803 450 364.317628079 450 c 4
 343.453943664 450 267.179471375 238.801757812 248.711129634 196.5703125 c 4
 206.224051078 100.034179688 150.087168953 -10 42.0244140625 -10 c 4
EndSplineSet
Fore
SplineSet
112.255859375 618.423828125 m 1
 104.552419892 639.371629973 65.0770129286 645.557017605 65.0770129286 662.446687863 c 0
 65.0770129286 688.631977287 158.082926239 708.000976562 184.125976562 708.000976562 c 0
 351.793945312 708.000976562 436.534179688 314.0390625 472.276367188 314.0390625 c 0
 483.174646852 314.0390625 484.595075308 344.684770432 484.595075308 388.749946719 c 0
 484.595075308 404.286286877 484.418501704 421.490802499 484.418501704 439.608488092 c 0
 484.418501704 552.938970717 491.327479894 702 591.580078125 702 c 0
 603.700195312 702 609.919921875 696.286132812 614.293945312 684.395507812 c 0
 621.88857457 663.740611423 624.209410583 644.984503334 624.209410583 627.017858029 c 0
 624.209410583 605.888009305 620.999423815 585.850079648 619.3828125 565.099609375 c 0
 585.978515625 136.200195312 579.3125 8 521.497070312 8 c 0x60
 418.389648438 8 215.383789062 450.165039062 205.786132812 450.165039062 c 0
 115.077148438 450.165039062 238.725585938 -1.994140625 52.396484375 -10 c 0
 40.8408203125 -10 31.86328125 -4.6220703125 27.6396484375 6.8671875 c 1xa0
 62.978515625 208.0703125 99.2373046875 404.997070312 112.255859375 618.423828125 c 1
EndSplineSet
EndChar

StartChar: O
Encoding: 79 79 34
Width: 626
Flags: HW
HStem: -10 90<299.576 405.181> 613.081 2.11426<481.272 488.571> 629.431 82.5693<319.01 400.969>
LayerCount: 2
Fore
SplineSet
391.301757812 712 m 0
 410.269680736 712 436.318323648 709.658089297 436.318323648 690.614892564 c 0
 436.318323648 662.736111492 374.295087689 635.023236491 353.997070312 629.430664062 c 1
 257.378572254 586.520992454 198.56759986 500.398681213 198.56759986 377.049477704 c 0
 198.56759986 329.127122082 208.473805096 271.979780578 226.92578125 215.248046875 c 0
 248.631835938 146.400390625 296.198242188 80 353.540039062 80 c 0
 425.418953593 80 469.328249838 170.743187385 469.328249838 268.548811128 c 0
 469.328249838 299.666834654 464.883443616 331.499767408 455.48046875 361.352539062 c 0
 438.514648438 415.157226562 389.040039062 462.499023438 374.986328125 507.068359375 c 0
 373.964104146 510.310457375 373.484569885 513.642183787 373.484569885 517.032527375 c 0
 373.484569885 558.504203466 445.236797767 608.746708436 473.147460938 611 c 0
 476.431640625 611 479.62109375 610.725585938 482.713867188 610.1953125 c 1
 478.577716358 607.915969449 480.298460722 604.180223732 481.616210938 600 c 0
 482.344131999 599.271518024 496.094196377 600.752886549 491.067382812 608.081054688 c 1
 524.668945312 596.7421875 546.202148438 554.0546875 560.135742188 509.861328125 c 0
 580.019021221 444.233111507 589.98370777 381.253605203 589.98370777 323.070553684 c 0
 589.98370777 153.904950906 505.748282381 25.2856721059 336.14453125 -10 c 1
 208.6875 -7.6142578125 91.650390625 52.525390625 50.9775390625 181.51953125 c 0
 37.2942954426 224.915283272 31.0000816614 267.89633433 31.0000816614 309.5019501 c 0
 31.0000816614 527.264041878 203.425838414 707.347008219 391.301757812 712 c 0
481.137695312 615.1953125 m 1
 484 614.704101562 486.786132812 613.994140625 489.491210938 613.081054688 c 1
 488.571289062 616 l 2
 488.059570312 616 482.098632812 615.725585938 481.137695312 615.1953125 c 1
EndSplineSet
EndChar

StartChar: P
Encoding: 80 80 35
Width: 551
Flags: HW
HStem: -10 21G<83.1738 113.08> 564 129<409.443 482.892>
LayerCount: 2
Fore
SplineSet
299.419921875 185 m 1
 277.039726102 185 253.607713712 188.443354444 253.607713712 213.621062239 c 0
 253.607713712 234.709534588 279.328212153 242.935124127 292.389648438 256.985351562 c 0
 326.14745643 292.097183223 346.106962793 326.528071951 346.106962793 375.799280437 c 0
 346.106962793 404.316100247 339.420975449 437.804094609 324.854492188 479.272460938 c 0
 312.05859375 514.071289062 283.774414062 564 254.428710938 564 c 1
 222.305664062 484.642578125 238.5859375 400.3046875 230.086914062 290.124023438 c 0
 228.87173605 274.368367357 228.561373064 257.539609273 228.561373064 240.196001913 c 0
 228.561373064 222.085831898 228.899777549 203.414295638 228.899777549 184.81698764 c 0
 228.899777549 86.3684352418 219.416584055 -10 100.047851562 -10 c 0
 80.2490234375 -10 69.232421875 3.8017578125 62.392578125 22.4052734375 c 1
 59.9139792874 55.5938348638 58.8636113449 87.9779990146 58.8636113449 119.755821077 c 0
 58.8636113449 279.740324746 85.486123702 424.356547374 90.5146484375 578.876953125 c 1
 87.6416015625 586.692382812 82.6982421875 593.865234375 74.8212890625 600 c 1
 63.06640625 600 25.9580078125 578 13.833984375 578 c 1
 3.67170857055 590.818448803 -4.44330661838 602.302734531 -4.44330661838 620.100163015 c 0
 -4.44330661838 680.15121767 132.377498864 693 186.560546875 693 c 0
 311.405273438 693 433.096679688 643.78515625 479.037109375 518.850585938 c 0
 490.880555286 486.643143946 496.263517923 454.449054489 496.263517923 423.458400885 c 0
 496.263517923 296.537807651 405.976755376 189.802070666 299.419921875 185 c 1
EndSplineSet
EndChar

StartChar: Q
Encoding: 81 81 36
Width: 715
Flags: HW
HStem: 60 48.6221<414.726 508.476> 691 20G<583.87 630.625>
LayerCount: 2
Fore
SplineSet
209.871174233 365.473744188 m 0
 209.871174233 242.294832614 272.363176219 107.962890625 384.877929688 107.962890625 c 0
 387.044921875 107.962890625 389.23046875 108.014648438 391.430664062 108.120117188 c 0
 405.67594398 108.120117188 428.624840263 110.58773251 428.624840263 126.91040591 c 0
 428.624840263 128.973609174 428.2581805 131.258177868 427.4609375 133.787109375 c 0
 407.805664062 189.163085938 334.139648438 217.396484375 302.51953125 242.149414062 c 1
 300.818307178 247.544803247 300.035891589 252.251869838 300.035891589 256.357487821 c 0
 300.035891589 281.416889165 329.18476704 284.069335938 356.467773438 284.069335938 c 0
 409.500976562 284.069335938 451.969726562 248.186523438 491.749023438 223.221679688 c 1
 497.328697179 240.200711936 500.003028888 256.96413324 500.003028888 274.795429828 c 0
 500.003028888 301.801515938 493.868619971 331.257105096 482.40234375 367.62109375 c 0
 464.651367188 423.919921875 408.270507812 471.130859375 394.331054688 515.333984375 c 0
 392.310127127 521.743658287 391.377196464 527.971683115 391.377196464 533.978891853 c 0
 391.377196464 581.276401592 449.210829086 614.885223484 489.192382812 615.688476562 c 0
 546.765625 615.688476562 578.342773438 558.490234375 596.650390625 500.42578125 c 0
 609.623839945 459.281351275 614.666386691 423.08610292 614.666386691 389.882207581 c 0
 614.666386691 303.797828425 580.772563176 237.820033562 563.318359375 157.831054688 c 1
 571.895507812 130.631835938 676.6484375 115.165039062 680.905273438 101.662109375 c 0
 683.630031636 93.0211758691 685.005947173 83.2113587848 685.005947173 73.0967451024 c 0
 685.005947173 34.7399922178 665.219088868 -8 624.168945312 -8 c 0
 569.740234375 -8 526.90234375 60 489.555664062 60 c 0
 433.484375 60 392.09765625 -10.03515625 324.01171875 -10.03515625 c 0
 198.13671875 -10.03515625 92.9052734375 68.18359375 53.5390625 193.025390625 c 0
 38.2409276741 241.542997368 30.9997921162 289.423419749 30.9997921162 335.315617246 c 0
 30.9997921162 543.643616037 180.218836373 711 402.3359375 711 c 0
 429.940141986 711 467.366403395 710.34456443 467.366403395 678.351380069 c 0
 467.366403395 637.718622608 377.768681946 622.446149981 353.0390625 611.3125 c 0
 264.945127688 568.803042946 209.871174233 477.192747203 209.871174233 365.473744188 c 0
EndSplineSet
EndChar

StartChar: R
Encoding: 82 82 37
Width: 650
Flags: HW
HStem: 618 88<393.806 510.262>
LayerCount: 2
Fore
SplineSet
506.172851562 513.958984375 m 0
 516.346274214 486.292668927 520.716967614 462.230543214 520.716967614 440.970333562 c 0
 520.716967614 356.61504868 451.908822692 316.370532645 403.744140625 270.123046875 c 1
 431.435546875 194.814453125 582.432617188 196.935546875 606.475585938 131.552734375 c 0
 611.387184333 118.196243962 613.687657662 104.281895512 613.687657662 90.5748296885 c 0
 613.687657662 36.1536889434 577.424677886 -15 524.340820312 -15 c 0
 403.081054688 -15 266.762695312 209.36328125 244.025390625 271.197265625 c 0
 242.660472092 275.048437151 242.032661508 278.596972015 242.032661508 281.890234919 c 0
 242.032661508 314.258680047 302.681083331 321.967073486 320.202148438 349.987304688 c 0
 338.522678397 379.283241931 350.85204168 412.322264829 350.85204168 450.943919237 c 0
 350.85204168 522.823622993 305.393459861 618 240.875 618 c 1
 228.273968884 579.548499758 225.775691781 534.797708271 225.775691781 488.487787024 c 0
 225.775691781 458.059654426 226.854248834 426.95841379 226.854248834 396.528676892 c 0
 226.854248834 361.529952407 225.427488055 327.4195214 219.291992188 296.243164062 c 0
 219.155407096 291.936397648 219.102205524 287.28833452 219.102205524 282.346920954 c 0
 219.102205524 264.926509765 219.763414684 243.860228914 219.763414684 221.248838515 c 0
 219.763414684 128.933353193 208.742099076 10.8633245151 96.7060546875 10 c 0
 75.1826171875 10 56.4013671875 22.779296875 47.869140625 45.986328125 c 1
 42.8092475808 86.489894164 40.7565282586 125.543154484 40.7565282586 163.569131633 c 0
 40.7565282586 311.05199794 71.6347259603 443.081873416 77.7060546875 584.338867188 c 1
 77.7060546875 584.338867188 77.3779296875 599 66.5068359375 599 c 0
 50.6416015625 599 38.037109375 593 26.78515625 593 c 0
 13.2412109375 593 4.6005859375 598.662109375 0.1796875 610.681640625 c 0
 -3.62809623043 621.037252067 -5.38166362457 630.274707118 -5.38166362457 638.514717664 c 0
 -5.38166362457 705.570612421 110.747380241 706.571289062 180.978515625 706.571289062 c 0
 183.138671875 706.571289062 185.256835938 706.5703125 187.325195312 706.5703125 c 0
 323.819335938 706.5703125 462.372070312 633.076171875 506.172851562 513.958984375 c 0
EndSplineSet
EndChar

StartChar: S
Encoding: 83 83 38
Width: 460
Flags: HW
HStem: -10 85<251.904 316.849> 634 78<398.537 457.07>
LayerCount: 2
Fore
SplineSet
227.541015625 712 m 0
 313.92864338 712 393.07992227 665.37932494 393.07992227 563.733297949 c 0
 393.07992227 506.974599909 358.689621309 466.612152244 316.194335938 440 c 1
 308.333984375 440 306.362304688 440.75 304.411132812 446.935546875 c 0
 294.025390625 479.874023438 299.260742188 508.349609375 287.109375 546.979492188 c 0
 275.610351562 583.451171875 253.091796875 634 222.279296875 634 c 0
 204.41262091 634 197.310921928 609.333009548 197.310921928 581.020392933 c 0
 197.310921928 562.73099012 200.274397106 542.920300264 205.213867188 527.254882812 c 0
 247.744820154 392.3702135 426.998829745 362.047385623 426.998829745 174.204227503 c 0
 426.998829745 71.2883167168 359.87749609 -10 269.3125 -10 c 0
 184.970703125 -9.529296875 61.10546875 51.1826171875 32.6845703125 141.319335938 c 0
 30.8473942827 147.146215758 29.9995495598 152.87084818 29.9995495598 158.442734469 c 0
 29.9995495598 202.495325999 82.9969730236 237 119.068359375 237 c 0
 185.274414062 237 180.0703125 75 260.811523438 75 c 0
 283.989527862 75 291.67920278 90.8685474827 291.67920278 111.747299147 c 0
 291.67920278 126.969172235 287.591915947 144.854115193 282.439453125 161.194335938 c 0
 242.630859375 287.44921875 83.7900390625 333.247070312 41.927734375 466.006835938 c 0
 34.5483161153 489.410982144 31.1871292327 511.427656761 31.1871292327 531.931136711 c 0
 31.1871292327 644.956937623 133.326385355 712 227.541015625 712 c 0
EndSplineSet
EndChar

StartChar: T
Encoding: 84 84 39
Width: 468
Flags: HW
HStem: 541.791 141.562<519.223 590.572>
VStem: 374.971 143.893<476.425 530.967>
LayerCount: 2
Fore
SplineSet
341.629811157 218.92184864 m 0
 341.629811157 199.356397485 342.613256577 179.201225534 342.613256577 159.891390042 c 0
 342.613256577 66.940062111 326.526961752 -12 219.6171875 -12 c 0
 196.2890625 -12 165.732421875 6.6787109375 158.206054688 30.5498046875 c 0
 148.222052756 62.2141356263 144.16438279 91.8223354745 144.16438279 119.95678209 c 0
 144.16438279 242.14078218 220.693841905 336.529141245 220.693841905 450.823436623 c 0
 220.693841905 474.548970146 217.396139132 499.132263049 209.431640625 525 c 0
 208.6171875 527.5859375 204.74609375 533 199.248046875 533 c 0
 168.330078125 533 138.420898438 525 106.29296875 525 c 0
 62.8357285377 525 29.0001970011 537.901998418 29.0001970011 587.645719916 c 0
 29.0001970011 642.480909203 83.0898395124 691 151.34375 691 c 1
 180.344726562 685.342773438 213.251953125 684.852539062 246.391601562 684.852539062 c 0
 253.344726562 684.852539062 260.306640625 684.874023438 267.24609375 684.874023438 c 0
 334.953125 684.874023438 400.40625 682.818359375 432.09765625 638.598632812 c 1
 436.456436054 624.773917437 438.423472977 613.354067339 438.423472977 603.833636296 c 0
 438.423472977 557.772242031 392.379430281 556.172103699 348.389648438 541.791015625 c 1
 354.946669528 525.209318059 355.336356552 499.249362309 355.336356552 477.058203458 c 0
 355.336356552 474.064733424 355.329265579 471.13984262 355.329265579 468.315802108 c 0
 355.329265579 383.441965936 341.629811157 303.268054536 341.629811157 218.92184864 c 0
EndSplineSet
EndChar

StartChar: U
Encoding: 85 85 40
Width: 638
Flags: HW
HStem: 9 189<229.723 308.395> 675 20G<368.444 418.229>
VStem: 446.597 176.696<41.8884 220.914>
LayerCount: 2
Fore
SplineSet
565.321289062 182.384765625 m 0
 577.1953125 144.7265625 594.264648438 109.115234375 605.350585938 73.95703125 c 0
 607.248451156 67.9377988745 608.120581072 62.4133019058 608.120581072 57.3483508516 c 0
 608.120581072 17.3310270755 553.679497552 6 520.5546875 6 c 0
 467.881835938 6 418.852539062 76.6865234375 399.586914062 137.787109375 c 0
 391.735757152 162.694497132 385.720862783 188.764172121 379.4375 213 c 0
 377.1640625 220.201171875 369.044921875 221 367.1875 221 c 1
 324.19140625 137.520507812 290.696289062 8.990234375 180.09375 8.990234375 c 0
 179.548828125 8.990234375 179.002929688 8.994140625 178.453125 9 c 0
 116.627929688 9 72.068359375 58.0634765625 53.5146484375 116.903320312 c 0
 37.916215459 166.373813838 32.0003951163 218.046307384 32.0003951163 269.885904412 c 0
 32.0003951163 385.104818785 61.2243709681 501.149219368 78.314453125 595.676757812 c 0
 94.2158203125 680.228515625 101.29296875 695 197.30859375 695 c 0
 221.15625 695 238.09765625 685.5078125 245.260742188 662.790039062 c 1
 246.663956257 649.7363209 247.292328354 636.95610766 247.292328354 624.395054171 c 0
 247.292328354 516.618414387 201.031432331 424.976365085 201.031432331 315.140259092 c 0
 201.031432331 282.62945648 205.084456261 248.524630547 215.58984375 211.935546875 c 0
 218.264648438 203.451171875 222.384765625 198 228.576171875 198 c 1
 351.090820312 244.942382812 318.622070312 568.909179688 458.104492188 600 c 1
 480.706054688 600 496.24609375 592.931640625 503.1015625 571.188476562 c 0
 543.21484375 443.965820312 519.36328125 328.137695312 565.321289062 182.384765625 c 0
EndSplineSet
EndChar

StartChar: V
Encoding: 86 86 41
Width: 547
Flags: HW
HStem: -9 21G<205.773 261.247> 672 20G<369.851 390.594>
LayerCount: 2
Fore
SplineSet
247.35546875 -9 m 0
 177.735583595 -9 108.794063317 239.019889637 76.3154296875 342.015625 c 0
 50.5854356327 423.617344754 28.9999619433 501.892388944 28.9999619433 563.645344174 c 0
 28.9999619433 640.677380317 62.5883256137 692 163.619140625 692 c 0
 181.173828125 692 198.748046875 684.666992188 204.282226562 667.112304688 c 0
 253.134765625 512.173828125 226.08984375 379.8203125 277.643554688 216.325195312 c 0
 286.72265625 187.525390625 299.666015625 163 317.861328125 163 c 1
 361.930523301 209.2574861 365.071857858 294.469629362 365.071857858 382.700565225 c 0
 365.071857858 397.37049743 364.985016095 412.123883743 364.985016095 426.795547092 c 0
 364.985016095 549.13167804 371.022825641 665.785892048 483.788085938 681 c 1
 492.647460938 681 497.896484375 672.388671875 501.344726562 661.453125 c 0
 511.057705898 630.648556893 515.344584111 593.873473935 515.344584111 553.631568099 c 0
 515.344584111 370.509874156 426.575107574 115.599797912 356.383789062 24.8212890625 c 0
 336.073242188 -1.4453125 280.81640625 -9 247.35546875 -9 c 0
EndSplineSet
EndChar

StartChar: W
Encoding: 87 87 42
Width: 841
Flags: HW
HStem: -11 125<547.865 764.305> -1 207.035<184.128 334.036>
VStem: 487.769 147.729<132.245 285.941> 855.117 123.301<491.454 630.561>
LayerCount: 2
Fore
SplineSet
260.7578125 206.03515625 m 1
 189.749023438 356.794921875 227.17578125 537.665039062 200.506835938 685.477539062 c 1
 197.137695312 696.168945312 189.701171875 704 174.455078125 704 c 1
 163.875466901 705.310866909 153.987344067 705.947811628 144.755377179 705.947811628 c 0
 57.7150796421 705.947811628 29.0003969906 649.329880108 29.0003969906 567.08358965 c 0
 29.0003969906 435.600232575 102.386352087 238.618620789 128.177734375 102.751953125 c 1
 143.072265625 55.51953125 167.025390625 -1 201.86328125 -1 c 0x70
 326.719726562 -1 344.24609375 238.609375 391.211914062 288.934570312 c 1
 396.109266368 280.256270145 400.743827008 275.981770255 402.836914062 269.35546875 c 0
 410.994140625 238.177734375 419.895507812 196.858398438 432.94140625 155.485351562 c 0
 459.044921875 72.6923828125 511.256835938 -11 591.411132812 -11 c 0
 742.507855439 -11 806.644354363 262.830791574 806.644354363 420.526626561 c 0
 806.644354363 432.366786464 806.282794729 443.552253437 805.569335938 453.91796875 c 4
 804.359375 474.44140625 792.55859375 589.446289062 771.400390625 656.547851562 c 4
 762.341796875 685.272460938 751.572265625 705.219726562 739.18359375 705.219726562 c 5
 686.773859497 692.222236067 671.510498308 639.467872349 671.510498308 570.308475245 c 0
 671.510498308 473.831366555 701.213226662 345.429818402 701.213226662 248.49669089 c 0
 701.213226662 182.134896201 687.291659147 130.522242983 640.38671875 114 c 1xb0
 621.849609375 114 580.267578125 175.158203125 573.1484375 197.740234375 c 0
 551.38204302 266.771083 545.907370756 326.938529047 545.907370756 382.577437718 c 0
 545.907370756 438.896820816 551.516774473 490.576219423 551.516774473 542.111500544 c 0
 551.516774473 585.091088259 547.615271974 627.970438094 533.3046875 673.357421875 c 0
 527.78515625 690.856445312 516.40234375 696.900390625 495.514648438 696.900390625 c 0
 489.342934038 697.806533329 483.394690598 698.246513975 477.660010905 698.246513975 c 0
 296.080840939 698.246513975 328.613791101 257.136116432 260.7578125 206.03515625 c 1
EndSplineSet
EndChar

StartChar: X
Encoding: 88 88 43
Width: 614
Flags: HW
HStem: -9 21G<99.8489 128.433> 691 20G<330.623 402.561>
LayerCount: 2
Fore
SplineSet
112.75 -9 m 1
 89.3594822651 -9 80.164989502 32.3239794649 80.164989502 58.4953959769 c 0
 80.164989502 177.782053064 253.64743368 202.200635511 253.64743368 301.164579781 c 0
 253.64743368 310.867563855 251.979755766 321.287148702 248.317382812 332.583007812 c 1
 179.75300849 424.610908642 28.0001970514 585.533973538 28.0001970514 683.031047326 c 0
 28.0001970514 700.506147353 97.5828183114 711 116.623046875 711 c 0
 240.122070312 711 317.963867188 456.46484375 350.19140625 456.46484375 c 1
 396.90192612 485.388802246 408.703741776 675.378985215 508.201096536 675.378985215 c 0
 512.077325419 675.378985215 516.086652831 675.090630592 520.236328125 674.493164062 c 0
 531.451171875 674.493164062 534.853515625 674.225585938 537.080078125 667.165039062 c 1
 532.681640625 538.431640625 425.541992188 461.448242188 404.458984375 351.146484375 c 1
 431.037109375 266.861328125 560.758789062 225.796875 583.071289062 155.036132812 c 0
 583.452419121 153.827344599 583.635435403 152.594310642 583.635435403 151.341958109 c 0
 583.635435403 125.870760252 507.928569042 92.408203125 483.53515625 92.408203125 c 0
 420.860351562 92.408203125 362.920898438 142.973632812 325.119140625 207 c 1
 311.71484375 207 l 1
 247.595703125 127.748046875 205.198242188 33.9658203125 112.75 -9 c 1
EndSplineSet
EndChar

StartChar: Y
Encoding: 89 89 44
Width: 598
Flags: HW
HStem: 692 20G<360.338 393.124>
VStem: 210.119 178.391<238.398 645.792>
LayerCount: 2
Fore
SplineSet
95.6220703125 -140.313476562 m 0
 95.4682952053 -136.531468237 95.3843949569 -132.660219355 95.3843949569 -128.731440328 c 0
 95.3843949569 -77.2960345152 109.764841845 -16 169.998046875 -16 c 0
 196.594008026 -16 283.66944712 -0.644980401281 283.66944712 31.77918053 c 0
 283.66944712 33.70520008 283.362205842 35.691447231 282.716796875 37.73828125 c 0
 241.627929688 168.048828125 104.580078125 313.780273438 55.84765625 467.712890625 c 0
 39.5898529422 519.271992448 29.000132914 565.852237744 29.000132914 604.177311224 c 0
 29.000132914 670.419801234 60.6368771695 712 149.32421875 712 c 0
 165.071289062 712 174.118164062 696.958007812 180.598632812 676.399414062 c 0
 215.83984375 564.635742188 234.5625 462.87890625 281.833007812 312.959960938 c 0
 303.779296875 243.358398438 325.504882812 176.822265625 345.51171875 176.822265625 c 1
 472.5625 215.573242188 339.916992188 678.0546875 553.745117188 685.696289062 c 0
 563.267578125 685.696289062 566.427734375 683.426757812 568.305664062 677.47265625 c 1
 544.69140625 475.092773438 480.483398438 293.30859375 417.548828125 116.064453125 c 0
 374.853515625 -4.18359375 322.400390625 -171 150.87109375 -171 c 0
 125.543945312 -171 102.770507812 -162.98046875 95.6220703125 -140.313476562 c 0
EndSplineSet
EndChar

StartChar: Z
Encoding: 90 90 45
Width: 571
Flags: HW
HStem: -10 183<339.769 429.433> 527 158.059<275.083 377.903> 562 129<346.121 470.272>
LayerCount: 2
Fore
SplineSet
536.166992188 186.696289062 m 1
 537.79705196 177.047191132 538.578358329 167.741755041 538.578358329 158.781610529 c 0
 538.578358329 45.8830618595 414.536559844 -12.1962890625 301.375 -12.1962890625 c 0
 288.682617188 -12.1962890625 276.125976562 -11.4658203125 263.896484375 -10 c 1
 185.388671875 -10 54.4921875 11.9150390625 35.1123046875 73.3720703125 c 0
 34.4899083877 76.5903923804 34.1889547337 80.0165512567 34.1889547337 83.6373990984 c 0
 34.1889547337 186.454626784 276.856026707 446.254833638 293.06640625 562 c 1
 224.147460938 562 161.266601562 527 95.55078125 527 c 0
 63.19921875 527 44.64453125 534.069335938 36.1953125 560.862304688 c 0
 31.288307869 576.424878467 29.0002240394 590.159910438 29.0002240394 602.279008155 c 0
 29.0002240394 682.442873398 129.112804577 691.903320312 233.587890625 691.903320312 c 0
 265.864257812 691.903320312 298.555664062 691 328.840820312 691 c 0
 347.802734375 691 376.96875 693.33984375 402.8515625 693.33984375 c 0
 442.666015625 693.33984375 481.344726562 687.802734375 490.20703125 659.6953125 c 1
 426.892578125 493.861328125 312.522460938 357.493164062 285.220703125 173 c 1
 361.576171875 173 434.08203125 203 506.981445312 203 c 0
 523.127929688 203 532.733398438 197.590820312 536.166992188 186.696289062 c 1
EndSplineSet
EndChar

StartChar: bracketleft
Encoding: 91 91 46
Width: 414
Flags: HW
HStem: -3 147<271.193 368.347> 695 137<435.341 584.493>
LayerCount: 2
Fore
SplineSet
216.197265625 695 m 1
 214.567980522 668.009624778 213.986796705 634.066703812 213.986796705 596.149285745 c 0
 213.986796705 501.755774154 217.588602434 382.730870545 217.588602434 285.019965165 c 0
 217.588602434 234.034029125 216.607905081 188.851454851 213.623046875 156 c 1
 214.206054688 154.150390625 l 1
 225.788085938 144 l 1
 268.45703125 144 l 2
 315.211914062 144 363.553710938 137.780273438 376.608398438 96.3818359375 c 0
 380.857924342 82.9044982587 382.811997915 71.2542080196 382.811997915 61.1833722311 c 0
 382.811997915 -1.64715205785 306.752886095 -3 237.534179688 -3 c 2
 233.899414062 -3 l 2
 170.684570312 -3 101.58203125 5.962890625 84.6630859375 59.626953125 c 0
 55.4433525618 152.294799568 50.0136693946 232.898207796 50.0136693946 313.173410072 c 0
 50.0136693946 360.652734811 51.9130882227 408.017246118 51.9130882227 457.695220123 c 0
 51.9130882227 521.55774169 48.7741330646 589.243461998 34.42578125 665.911132812 c 0
 32.4234005804 676.613262884 30.9995958471 693.938676982 30.9995958471 713.449193558 c 0
 30.9995958471 765.075007727 40.9684840011 832 76.5654296875 832 c 2
 264.978515625 832 l 2
 309.841796875 832 352.106445312 802.438476562 365.477539062 760.032226562 c 0
 367.104926985 754.872810336 367.911285442 747.324353366 367.911285442 739.181394134 c 0
 367.911285442 718.929339131 362.923568252 695 353.173828125 695 c 6
 216.197265625 695 l 1
EndSplineSet
EndChar

StartChar: quoteleft
Encoding: 258 8216 47
Width: 234
Flags: HW
HStem: 578 254<323.431 360.712>
VStem: 247.955 159.093
LayerCount: 2
Fore
SplineSet
106.666015625 832 m 0
 128.073139263 832 132.596653944 818.769518977 132.596653944 798.680809164 c 0
 132.596653944 789.081348033 131.600455411 778.42203791 131.600455411 768.152334288 c 0
 131.600455411 709.372989286 187.412993222 697.859888384 199.1796875 660.544921875 c 0
 200.362618291 656.633116724 200.913955779 652.700146335 200.913955779 648.787253895 c 0
 200.913955779 612.531758039 153.580370461 578 122.754882812 578 c 0
 85.5693359375 578 50.7431640625 622.359375 38.2802734375 661.889648438 c 0
 34.0146122544 675.4180796 32.0000309063 690.673224887 32.0000309063 706.352539735 c 0
 32.0000309063 766.096981532 61.2500168863 832 106.666015625 832 c 0
EndSplineSet
EndChar

StartChar: a
Encoding: 97 97 48
Width: 562
Flags: HW
HStem: -10 147<138.918 262.45> 447 68<224.44 315.366>
LayerCount: 2
Fore
SplineSet
290.828913503 373.393154333 m 0
 290.828913503 399.327095274 279.185950391 447 256.373046875 447 c 0
 207.227543482 447 184.917684034 342.465265805 184.917684034 260.493813587 c 0
 184.917684034 230.931957829 187.8192668 204.304644544 193.41015625 186.573242188 c 0
 201.124023438 162.102539062 214.724609375 137 238.60546875 137 c 0
 286.294921875 137 325.963867188 232.461914062 347.680664062 266.35546875 c 1
 350.376953125 284.27734375 l 1
 333.759765625 276.026367188 315.29296875 268.233398438 295.413085938 268.233398438 c 0
 283.529296875 268.233398438 282.48046875 265.823242188 281.122070312 273.719726562 c 0
 280.042098889 279.150748641 279.592150639 284.494297759 279.592150639 289.803207963 c 0
 279.592150639 316.333663311 290.828913503 341.999065263 290.828913503 373.393154333 c 0
442.841796875 -7 m 0
 374.201573001 -7 361.880152436 88.7638674181 346.82421875 149 c 1
 293.625976562 98.431640625 251.646484375 -10 168.250976562 -10 c 0
 87.0464923814 -10 32.0004858011 86.9424191024 32.0004858011 183.445598644 c 0
 32.0004858011 345.469465704 169.279482718 515 284.987304688 515 c 0
 345.745117188 515 415.786132812 489.345703125 435.06640625 428.203125 c 0
 437.128614163 421.66293014 437.92842297 415.774049921 437.92842297 410.318827426 c 0
 437.92842297 391.454899685 428.364732901 377.776421298 428.364732901 360.283621622 c 0
 428.364732901 354.639139214 429.855768561 349.183064196 431.249023438 344.76171875 c 1
 460.389648438 344.76171875 l 2
 463.275390625 344.76171875 469.366210938 333.317382812 472.263671875 324.129882812 c 0
 492.727539062 259.225585938 485.979492188 187.973632812 509.40234375 113.685546875 c 0
 515.499023438 94.3583984375 522.870117188 75.2646484375 532.303710938 56.18359375 c 1
 514.55078125 22.79296875 479.586914062 -7 442.841796875 -7 c 0
EndSplineSet
EndChar

StartChar: b
Encoding: 98 98 49
Width: 468
Flags: HW
HStem: -10 95<189.524 302.63> 495 20G<302.293 352.781> 512 21G<230.848 268.208>
LayerCount: 2
Fore
SplineSet
233.287109375 512 m 0xa0
 221.119987427 512 219.692407602 533.126861017 219.692407602 543.826586345 c 0
 219.692407602 588.580695331 259.522655529 630.800639046 259.522655529 676.0767257 c 0
 259.522655529 699.349010926 251.326754605 713.652997975 238.174804688 729 c 1
 199.005718463 663.419927352 175.865792262 535.250482562 175.865792262 405.682352009 c 0
 175.865792262 321.156464761 185.713724701 236.035322249 207.383789062 167.307617188 c 0
 218.0625 133.4453125 239.215820312 85 270.12109375 85 c 0
 305.622428822 85 314.91987846 124.39573992 314.91987846 164.299196567 c 0
 314.91987846 186.775475864 311.970084796 209.412838 309.091796875 225.26171875 c 1
 284.249023438 225.26171875 264.983398438 230.787109375 256.856445312 256.563476562 c 0
 250.171557817 277.763175516 247.132711022 302.228415541 247.132711022 327.477423519 c 0
 247.132711022 416.38023774 284.807530843 515 333.651367188 515 c 0
 371.911132812 515 394.865234375 476.46875 408.4765625 433.298828125 c 0xc0
 424.617726576 382.109285456 432.494119893 328.544040457 432.494119893 277.057238674 c 0
 432.494119893 124.391734051 363.244499166 -10 234.870117188 -10 c 0
 144.177734375 -10 86.875 54.98046875 58.486328125 145.009765625 c 0
 39.3430819031 205.722455334 31.0000413076 266.197158666 31.0000413076 325.218745997 c 0
 31.0000413076 476.703753099 85.9594294962 618.616426768 154.333984375 730.412109375 c 0
 174.827148438 763.918945312 208.904296875 787 247.887695312 787 c 0
 309.16693876 787 364.228711035 729.670017599 364.228711035 655.189694861 c 0
 364.228711035 575.648952398 293.079376065 514.656988178 233.287109375 512 c 0xa0
EndSplineSet
EndChar

StartChar: c
Encoding: 99 99 50
Width: 368
Flags: HW
HStem: -10.0068 119.001<200.947 251.317> 435 79<190.347 219.994>
VStem: 214.654 87.8398<336.445 434.995>
LayerCount: 2
Fore
SplineSet
227.345703125 302 m 0
 212.962116594 302 211.694615039 316.170959669 211.694615039 327.828544911 c 0
 211.694615039 349.431720757 224.089855316 365.150123125 224.089855316 391.834576867 c 0
 224.089855316 407.443303141 219.203288573 435 204.31640625 435 c 1
 177.619744846 403.17604837 166.33283633 354.889463596 166.33283633 300.89919163 c 0
 166.33283633 256.273717533 174.043817822 207.751602801 187.137695312 161.408203125 c 0
 195.337890625 135.405273438 209.526367188 109 232.818359375 109 c 0
 233.036132812 108.99609375 233.252929688 108.994140625 233.470703125 108.994140625 c 0
 276.715820312 108.994140625 287.586914062 190 327.569335938 190 c 1
 332.63954307 177.061599474 336.167574034 159.914389227 336.167574034 145.122035241 c 0
 336.167574034 61.3852801729 249.49735208 -10.0068359375 187.684570312 -10.0068359375 c 0
 187.33203125 -10.0068359375 186.982421875 -10.0048828125 186.630859375 -10 c 0
 122.916992188 -10 69.85546875 43.8125 49.1279296875 109.547851562 c 0
 37.3896385114 146.77533938 32.0000822624 183.26483885 32.0000822624 218.280586731 c 0
 32.0000822624 352.013217576 110.614277371 464.249125944 214.408203125 514 c 1
 264.078344268 514 307.337474707 474.507003356 307.337474707 414.122431099 c 0
 307.337474707 357.982080088 269.253063289 304.603391498 227.345703125 302 c 0
EndSplineSet
EndChar

StartChar: d
Encoding: 100 100 51
Width: 552
Flags: HW
HStem: -10.0011 165.001<119.627 299.645> 444 71<333.91 372.468> 772 4.3295<611.992 637.183>
VStem: 75.8814 175.311<57.7146 206.353> 377.393 164.666<35.598 143.871>
LayerCount: 2
Fore
SplineSet
313.253539828 240.662432095 m 0
 313.253539828 253.122318154 309.085367721 261.76224343 302.415039062 269 c 1
 286.056640625 269 282.939453125 249 274.6796875 249 c 1
 267.109375 291.052734375 276.038085938 319.802734375 257.018554688 380.1171875 c 0
 247.075195312 411.658203125 232.15234375 444 213.194335938 444 c 1
 186.399199523 412.351664424 171.540086666 361.621597104 171.540086666 305.040648841 c 0
 171.540086666 271.632668184 176.720362545 236.184917204 187.682617188 201.420898438 c 0
 193.999023438 181.389648438 206.5625 155 230.396484375 155 c 0
 266.920338717 155 313.253539828 201.720887135 313.253539828 240.662432095 c 0
431.583984375 761.67578125 m 0
 450.66085174 701.174816045 455.701342929 643.906158859 455.701342929 586.764016728 c 0
 455.701342929 522.729302089 449.371531345 458.853464119 449.371531345 390.765819039 c 0
 449.371531345 322.450345126 455.743774308 249.894830595 481.275390625 168.684570312 c 0
 492.610351562 132.73828125 510.603515625 99.7578125 520.749023438 67.5830078125 c 0
 521.452926009 65.3507933244 521.789939828 63.0598764348 521.789939828 60.7301879741 c 0
 521.789939828 30.6063191553 465.442588252 -6 417.334960938 -6 c 0
 385.006835938 -6 367.283203125 32.060546875 355.286132812 70.1123046875 c 0
 346.115820132 99.1898793878 347.894343956 131.255169542 324.979492188 145 c 1
 283.032226562 93.1572265625 219.73828125 -10.0009765625 146.176757812 -10.0009765625 c 0
 99.3837890625 -10.0009765625 63.3193359375 39.845703125 47.3232421875 90.568359375 c 0
 36.7589378376 124.073720817 32.0004679381 159.269220303 32.0004679381 194.46112961 c 0
 32.0004679381 352.925041323 128.481604677 511.316159779 225.821289062 515 c 0
 244.706054688 515 258.03515625 504.395507812 277.290039062 491 c 1
 306.958984375 527.337890625 256.65234375 776.329101562 366.821289062 776.329101562 c 0
 375.022460938 776.329101562 384.11328125 774.950195312 394.190429688 772 c 1
 404.515625 772 428.768554688 770.609375 431.583984375 761.67578125 c 0
EndSplineSet
EndChar

StartChar: e
Encoding: 101 101 52
Width: 430
Flags: HW
HStem: -10 109<156.24 269.648> 135.889 24.8877<200.04 220.605> 441 74<206.077 282.982>
LayerCount: 2
Back
SplineSet
222.669500127 270.797851562 m 5
 212.139939127 243.455078125 205.427309374 212.002929688 201.614070443 183.764648438 c 4
 200.970684451 179.677734375 198.295601802 163 211.956246426 163 c 4
 217.165180653 163 219.084261683 166.469726562 222.860577459 170.46484375 c 4
 282.399166436 233.453125 319.558630589 326.478515625 331.96875 421.29296875 c 4
 332.794921875 427.07421875 333.913085938 441 321.60325035 441 c 4
 290.801030574 441 229.686745916 291.21484375 222.669500127 270.797851562 c 5
127.41796875 -8.90234375 m 4
 66.9072265625 -0.5244140625 30.2080078125 54.27734375 40.9697265625 131.98828125 c 4
 62.76171875 288.509765625 217.631335496 515 380.018554688 515 c 4
 383.603515625 515 387.049804688 514.755859375 390.359375 514.287109375 c 4
 434.938476562 507.807617188 458.286132812 457.8671875 450.065429688 398.901367188 c 4
 436.250976562 295.772460938 319.271553052 129.740234375 233.696600652 129.740234375 c 4
 227.399356404 129.740234375 220.782726857 135.888671875 210.065780841 135.888671875 c 4
 203.974383188 135.888671875 202.711611254 128.673828125 202.606380259 128.005859375 c 5
 198.712833464 101.27734375 227.225817571 99 236.53229903 99 c 4
 296.72258171 99 342.577148438 173 385.018554688 173 c 4
 397.479492188 173 408.51953125 163.418945312 406.080078125 148.782226562 c 5
 403.560546875 131.985351562 378.520507812 114.435546875 364.814453125 102.838867188 c 5
 298.879817097 46.9736328125 220.198417914 -10 144.018554688 -10 c 4
 138.291992188 -10 132.75390625 -9.626953125 127.41796875 -8.90234375 c 4
EndSplineSet
Fore
SplineSet
179.102539062 270.797851562 m 0
 178.944684039 261.154956916 178.646391435 251.525585889 178.646391435 241.819676325 c 0
 178.646391435 216.339132567 180.702222331 190.331085661 192.751953125 162.166015625 c 0
 193.9609375 159.33984375 198.82421875 160.776367188 201.647460938 160.776367188 c 0
 239.325230454 160.776367188 252.000014547 241.084171285 252.000014547 314.706002846 c 0
 252.000014547 358.93585596 247.425359737 400.752570025 240.94921875 421.29296875 c 0
 239.106445312 427.1328125 236.6796875 441 224.370117188 441 c 0
 193.567382812 441 179.6796875 291.21484375 179.102539062 270.797851562 c 0
200.037109375 135.888671875 m 5
 201.068634464 119.205265706 213.081025386 99 247.134765625 99 c 0
 307.325195312 99 329.84765625 173 372.2890625 173 c 0
 383.572265625 173 396.166992188 165.143554688 400.060546875 152.791992188 c 1
 371.958007812 75.0107421875 280.55078125 -10 188.989257812 -10 c 0
 123.490234375 -10 69.14453125 37.353515625 47.58203125 105.739257812 c 0
 37.000401305 139.29815196 31.9997687382 174.886765953 31.9997687382 210.520849645 c 0
 31.9997687382 362.347702389 122.77992639 515 259.450195312 515 c 0
 330.698045747 515 372.82901883 425.720622405 372.82901883 343.370302642 c 0
 372.82901883 227.259363112 290.981300803 135.888671875 200.037109375 135.888671875 c 5
EndSplineSet
EndChar

StartChar: f
Encoding: 102 102 53
Width: 288
Flags: HW
HStem: 97.5586 121.911<165.641 231.426>
LayerCount: 2
Fore
SplineSet
148.615234375 630 m 0
 189.476662774 630 195.02630088 553.84332677 195.02630088 511.601938178 c 0
 195.02630088 466.504114828 186.521772975 423.774025842 171.506835938 402 c 0
 170.47265625 402 168.765625 401.698242188 167.470703125 405.797851562 c 0
 156.818359375 439.5859375 163.772460938 469.435546875 155.692382812 504.57421875 c 0
 153.372070312 511.932617188 144.70703125 524.419921875 141.616210938 519 c 0
 135.0852662 507.553485205 132.660334037 484.684912015 132.660334037 456.275904114 c 0
 132.660334037 383.613273438 148.524224138 274.705155683 152.123046875 227.966796875 c 0
 152.81974534 225.743167607 155.555667265 217.438476562 162.725585938 217.438476562 c 0
 176.758789062 217.438476562 193.44921875 219.469726562 209.060546875 219.469726562 c 0
 227.655273438 219.469726562 245.75390625 215.375 251.141601562 198.288085938 c 0
 254.371216718 188.045290607 255.854378485 178.564204371 255.854378485 169.853783801 c 0
 255.854378485 122.147480855 211.364440991 97.55859375 165.640625 97.55859375 c 1
 164.505407717 91.719686997 164.019122059 85.2049544951 164.019122059 78.1597094812 c 0
 164.019122059 36.0313783317 181.407047501 -25.0662805408 181.407047501 -74.0633825602 c 0
 181.407047501 -114.13126771 169.779186764 -146.107124262 127.505859375 -153 c 1
 89.740234375 -153 75.189453125 -141.994140625 65.66796875 -111.793945312 c 0
 41.92578125 -36.4951171875 42.22265625 32.2080078125 38.1845703125 98.2021484375 c 0
 36.1429052026 131.571945479 34.0000299719 181.988427463 34.0000299719 238.717253598 c 0
 34.0000299719 406.687933563 52.7869787591 630 148.615234375 630 c 0
EndSplineSet
EndChar

StartChar: g
Encoding: 103 103 54
Width: 548
Flags: HW
HStem: 2.18262 147.817<119.591 237.763>
LayerCount: 2
Fore
SplineSet
296.133789062 455 m 1
 236.310171813 410.12876959 200.89719724 331.63159109 200.89719724 241.091464046 c 0
 200.89719724 218.515891526 203.098895273 195.191583934 207.672851562 171.453125 c 1
 211.194335938 160.288085938 217.596679688 150 230.178710938 150 c 0
 245.34765625 150 342.379882812 257.631835938 339.504882812 271.448242188 c 1
 337.752929688 277 l 1
 296.884765625 277 l 1
 295.282226562 278.467773438 294.256835938 280.133789062 293.688476562 281.94140625 c 0
 299.964807438 311.695196087 320.440604231 352.441715011 320.440604231 392.236178839 c 0
 320.440604231 420.045945861 311.624093193 438.494235487 296.133789062 455 c 1
281.354492188 -98 m 0
 280.830078125 -96.3330078125 280.305664062 -94.6669921875 279.778320312 -93 c 1
 278.40234375 -93 268.87109375 -95.130859375 270.08984375 -99 c 2
 271.666015625 -104 l 1
 271.666015625 -104 283.4375 -104.59765625 281.354492188 -98 c 0
142.790039062 2.1826171875 m 0
 65.6683426369 2.1826171875 32.0001288685 99.733140391 32.0001288685 183.394505329 c 0
 32.0001288685 363.541949652 186.928521918 517 328.461914062 517 c 0
 382.334960938 517 433.228515625 499.077148438 450.15234375 445.40234375 c 0
 454.431565973 431.830909739 455.952033614 417.165134595 455.952033614 403.078798093 c 0
 455.952033614 368.665758446 446.877441076 337.710976926 446.783203125 334.619140625 c 1
 451.760742188 318.83203125 478.796875 320.774414062 487.626953125 292.770507812 c 0
 505.525987362 230.801239692 514.435749039 170.224589616 514.435749039 113.416450319 c 0
 514.435749039 -55.6211481193 435.547632706 -191.291892602 279.866210938 -231 c 1
 225.985532792 -231 177.638723636 -178.41051936 177.638723636 -113.493507936 c 0
 177.638723636 -24.5457791925 265.791830026 50.2699028523 312.224609375 52 c 0
 312.391601562 51.677734375 312.84375 50.68359375 312.84375 50.68359375 c 1
 305.454863239 16.5221608071 300.652494027 -17.8994131266 300.652494027 -54.2658034126 c 0
 300.652494027 -81.7430179111 303.394071757 -110.330489652 309.833007812 -140.754882812 c 0
 312.33203125 -148.684570312 316.8671875 -156 325.700195312 -156 c 1
 347.701824164 -115.120265742 360.776398203 -45.8143157454 360.776398203 22.313151821 c 0
 360.776398203 70.4498950403 354.182372683 118.163461731 339.739257812 154.495117188 c 1
 295.282226562 104.342773438 212.258789062 2.1826171875 142.790039062 2.1826171875 c 0
EndSplineSet
EndChar

StartChar: h
Encoding: 104 104 55
Width: 517
Flags: HW
HStem: 732 20G<392.515 508.599>
VStem: 334.368 164.515<55.7418 197.926> 462.839 105.543<579.253 692.87>
LayerCount: 2
Fore
SplineSet
243.258789062 752 m 0
 320.18332136 752 374.848751645 670.882416954 374.848751645 581.25177111 c 0
 374.848751645 495.619318131 315.857068405 439.870799418 247.240234375 400 c 1
 241.426974757 411.860976669 238.236496851 427.688241792 238.236496851 444.112277425 c 0
 238.236496851 493.49804123 261.955123175 553.343257079 261.955123175 610.735404258 c 0
 261.955123175 642.887090476 252.137497686 671.598505792 241.229492188 695 c 1
 205.619923082 623.647156351 183.990889028 514.889417657 183.990889028 414.195608591 c 0
 183.990889028 362.651061078 189.658461052 313.21954838 202.01953125 272 c 1
 254.631835938 272 277.422851562 435 373.2109375 435 c 0
 393.4921875 435 410.811523438 419.470703125 418.35546875 395.545898438 c 0
 441.4765625 322.215820312 416.977539062 259.754882812 444.305664062 173.0859375 c 0
 454.861328125 139.61328125 476.8515625 100.915039062 485.916015625 72.166015625 c 0
 486.490079137 70.3453700167 486.763199875 68.5210092314 486.763199875 66.6996315826 c 0
 486.763199875 37.4655588044 416.401986626 9 390.721679688 9 c 0
 357.412211838 9 312.922105793 51.7151443847 305.240234375 94.5087890625 c 2
 287.559570312 192.993164062 l 2
 285.321289062 200.088867188 277.923828125 199 277.923828125 199 c 1
 228.254882812 145.638671875 196.758789062 12 107.587890625 12 c 0
 81.404296875 12 63.6728515625 45.0400390625 53.2548828125 78.080078125 c 0
 39.6265771035 121.303675665 33.0002506154 180.143501788 33.0002506154 245.164203765 c 0
 33.0002506154 463.678123426 107.839209512 752 243.258789062 752 c 0
EndSplineSet
EndChar

StartChar: i
Encoding: 105 105 56
Width: 229
Flags: HW
HStem: 475 20G<64.9634 119.773> 532 189<87.9344 159.368>
VStem: 38.8604 129.719<285.514 432.482> 76.292 97.3486<545.224 710.814>
LayerCount: 2
Fore
SplineSet
118.407226562 532 m 4
 78.2064853325 532 68.9284205182 582.025843552 68.9284205182 624.242143079 c 0
 68.9284205182 673.887969633 86.1889722005 721 125.811523438 721 c 4
 148.857421875 721 165.651367188 708.833984375 173.640625 683.490234375 c 0xd0
 178.834267577 667.019626146 181.479539308 648.636899269 181.479539308 630.512957316 c 0
 181.479539308 580.261769022 161.14390901 532 118.407226562 532 c 4
168.579101562 429.815429688 m 0xe0
 182.601869685 385.34576959 192.332968571 299.637287381 192.332968571 216.70310706 c 0
 192.332968571 107.967016694 175.605038665 4 129.889648438 4 c 0
 76.7384725748 4 48.9500778977 83.6503409168 38.8603515625 140.327148438 c 0
 35.3897830437 159.502724845 33.0003477242 195.861231617 33.0003477242 238.244566676 c 0
 33.0003477242 346.844302203 48.6881663358 495 102.073242188 495 c 0
 137.47265625 495 157.361328125 465.393554688 168.579101562 429.815429688 c 0xe0
EndSplineSet
EndChar

StartChar: j
Encoding: 106 106 57
Width: 230
Flags: HW
VStem: 31.0264 89.6934<-104.435 -27.5489> 225.813 125.304<598.019 653.623>
LayerCount: 2
Fore
SplineSet
86.3251953125 532 m 0
 48.4785854595 532 37.145997532 585.306945116 37.145997532 626.477309872 c 0
 37.145997532 673.973706084 53.5561392618 720 90.0458984375 720 c 0
 115.577148438 720 128.716796875 709.560546875 136.916992188 683.561523438 c 0
 141.961784999 665.525101838 144.777827331 645.135120396 144.777827331 625.293466239 c 0
 144.777827331 577.024192252 128.112073545 532 86.3251953125 532 c 0
49.103515625 -65.5615234375 m 0
 38.1157071183 -30.715127848 29.9996472755 22.632248162 29.9996472755 64.3045379566 c 0
 29.9996472755 91.9433736492 33.5698263455 114.446447746 42.240234375 123.009765625 c 0
 42.341796875 122.970703125 47.4580078125 118 53.86328125 118 c 0
 55.5361575144 118 56.1938949781 122.870917546 56.1938949781 131.514134472 c 0
 56.1938949781 163.326928614 47.2833270827 246.244200767 47.2833270827 325.485452153 c 0
 47.2833270827 415.62085918 58.8123786444 501 108.098632812 501 c 0
 133.067382812 501 159.0859375 478.768554688 168.815429688 447.912109375 c 0
 186.144710117 392.952999923 192.844767572 336.235902154 192.844767572 279.301410508 c 0
 192.844767572 160.842901566 163.840616674 41.4433074398 141.221679688 -65.021484375 c 0
 135 -92.373046875 125.487304688 -147 102.420898438 -147 c 0
 80.4873046875 -147 61.2998046875 -104.237304688 49.103515625 -65.5615234375 c 0
EndSplineSet
EndChar

StartChar: k
Encoding: 107 107 58
Width: 527
Flags: HW
HStem: 694 57<417.201 462.237>
LayerCount: 2
Fore
SplineSet
222.848632812 751 m 0
 299.850762525 751 351.904206317 676.617624309 351.904206317 586.319722484 c 0
 351.904206317 504.081426787 307.68193137 427.899743136 242.329101562 424 c 0
 233.188476562 424 226.197265625 422.02734375 227.729492188 430.369140625 c 0
 232.762068547 477.569966235 245.755895574 529.694178741 245.755895574 582.132101746 c 0
 245.755895574 624.50117857 235.055651312 664.511470376 217.822265625 694 c 1
 183.128138711 625.678882238 174.164027657 541.992280206 174.164027657 452.511933129 c 0
 174.164027657 402.377213289 176.978060054 350.423708946 179.657226562 298.334960938 c 0
 179.725203056 298.118443219 182.651675686 290.90234375 187.737304688 290.90234375 c 1
 233.530273438 333.078125 263.182617188 416.61328125 335.28515625 416.61328125 c 0
 373.134765625 416.61328125 394.729492188 394.946289062 406.744140625 356.83984375 c 0
 414.308765323 332.849357388 417.48087221 310.878642406 417.48087221 290.385569382 c 0
 417.48087221 215.862889205 375.532938879 160.880542473 350.325195312 99.3681640625 c 1
 377.04296875 35.89453125 456.805664062 -22.7451171875 496.189453125 -67.81640625 c 1
 501.791015625 -85.5849609375 452.385742188 -163.70703125 419.845703125 -163.70703125 c 0
 345.467773438 -163.70703125 269.29296875 -48.5361328125 240.479492188 42.8447265625 c 0
 236.255216778 56.2421118125 234.436045308 67.4964332013 234.436045308 77.1302200075 c 0
 234.436045308 136.951141156 304.579276183 134.287830717 304.579276183 194.246486381 c 0
 304.579276183 216.704902803 295.84837836 251.540039062 271.852539062 251.540039062 c 1
 180.533203125 229.087890625 220.451171875 60.759765625 146.470703125 29.1083984375 c 1
 60.7851388792 29.1083984375 31.9999268466 164.247352269 31.9999268466 250.937410461 c 0
 31.9999268466 280.169806592 34.3320408457 308.770998833 36.513671875 338.62109375 c 0
 45.029296875 455.056640625 101.236328125 751 222.848632812 751 c 0
EndSplineSet
EndChar

StartChar: l
Encoding: 108 108 59
Width: 419
Flags: HW
HStem: 8 128<172.222 288.717> 731 20G<194.222 274.287>
VStem: 232.221 122.874<378.867 457.186>
LayerCount: 2
Fore
SplineSet
247.365234375 751 m 0
 339.291619077 751 375.856801897 609.298553529 375.856801897 512.867975701 c 0
 375.856801897 394.207347295 322.053324119 293.635654507 232.220703125 246 c 1
 230.645714227 256.964517592 229.95886678 268.321730185 229.95886678 280.024098816 c 0
 229.95886678 359.884818798 261.946284512 455.819923806 261.946284512 552.720679971 c 0
 261.946284512 590.296016773 258.641348361 633.47317099 239.321289062 656 c 1
 204.51737469 579.354659116 181.111085285 462.119014125 181.111085285 348.332913468 c 0
 181.111085285 286.018021701 188.131096904 224.737716874 204.143554688 171.725585938 c 0
 209.997070312 153.157226562 220.159179688 136 239.124023438 136 c 0
 313.10546875 137.052734375 321.69140625 226.1328125 360.5546875 262 c 1
 368.288085938 262 372.23828125 257.135742188 374.825195312 248.938476562 c 0
 381.425596744 228.005318105 384.579598966 206.892968905 384.579598966 186.328022355 c 0
 384.579598966 91.3225886773 317.26586 8 211.467773438 8 c 0
 134.640625 8 71.908203125 57.19140625 47.0791015625 135.934570312 c 0
 35.213677578 173.564285246 30.9997287957 207.052506609 30.9997287957 238.697000474 c 0
 30.9997287957 286.975063438 40.8080034541 330.961715512 48.2177734375 378.81640625 c 0
 64.3291015625 482.859375 141.079101562 751 247.365234375 751 c 0
EndSplineSet
EndChar

StartChar: m
Encoding: 109 109 60
Width: 735
Flags: HW
HStem: 8 244.919<340.872 412.891> 479 20G<80.9321 120.052 292.185 347.226 503.943 570.179>
LayerCount: 2
Fore
SplineSet
332.282226562 502 m 0
 378.376298634 502 412.106380324 436.525050988 412.106380324 379.07339035 c 0
 412.106380324 345.083711215 403.898335403 314.030369034 403.898335403 283.65542583 c 0
 403.898335403 273.724068536 404.775792697 263.865233521 407.104492188 254 c 1
 409.12109375 253.268554688 411.046875 252.918945312 412.890625 252.918945312 c 1
 465.165039062 295.145507812 453.852539062 475.3984375 554.033203125 501 c 1
 586.325195312 501 607.330078125 475.1953125 620.005859375 440.729492188 c 0
 660.963867188 329.345703125 625.893554688 242.387695312 670.942382812 119.879882812 c 0
 679.514648438 96.5634765625 692.046875 76.4248046875 699.440429688 56.3173828125 c 0
 701.463474309 50.8150969485 702.373371689 45.7479967435 702.373371689 41.0996171972 c 0
 702.373371689 12.2336724357 667.285194786 -0.485237651208 645.78125 -1 c 0
 586.9453125 -1 541.647460938 62.7841796875 519.278320312 123.61328125 c 0
 499.650390625 176.9921875 505.831054688 219.696289062 499.578125 269.565429688 c 1
 497.400799265 275.437611216 491.496592992 278 488.653320312 278 c 1
 437.42578125 176.424804688 401.095703125 8 340.872070312 8 c 0
 291.482191358 8 262.587241876 74.1120644056 262.587241876 130.838825491 c 0
 262.587241876 153.041025797 265.722118619 173.481342713 265.722118619 195.041199808 c 0
 265.722118619 207.471271943 264.680098721 220.273474544 261.39453125 234 c 1
 248.5859375 234 l 1
 227.62109375 184.329101562 174.228515625 11 111.215820312 11 c 0
 78.8818359375 11 54.8203125 47.2734375 40.89453125 85.14453125 c 0
 28.0552238548 120.059204757 23.724410757 153.341664907 23.724410757 186.34539856 c 0
 23.724410757 242.494126549 36.259376126 297.836117583 40.7578125 359.036132812 c 1
 45.826171875 414.134765625 54.34375 499 107.520507812 499 c 0
 132.583984375 499 157.3125 484.8359375 167.647460938 456.728515625 c 0
 174.925236514 436.937041318 177.398143203 418.644234484 177.398143203 401.143968339 c 0
 177.398143203 364.027993456 166.27467631 330.476973189 166.27467631 293.754453656 c 0
 166.27467631 282.006262289 165.257703994 267 178.166992188 267 c 0
 202.455078125 267 252.087890625 502 332.282226562 502 c 0
EndSplineSet
EndChar

StartChar: n
Encoding: 110 110 61
Width: 506
Flags: HW
HStem: -10 21G<106.316 159.065>
LayerCount: 2
Fore
SplineSet
269.1171875 229 m 1
 210.8828125 166.405273438 194.825195312 37.5546875 123.305664062 -10 c 1
 89.326171875 -10 61.349609375 24.1171875 48.6787109375 64.306640625 c 0
 39.1057017113 94.6662541822 33.9999580752 149.671861064 33.9999580752 211.136190462 c 0
 33.9999580752 348.045397324 59.3324561587 517 117.053710938 517 c 0
 198.011429564 517 179.48534227 369.205200737 189.549804688 311.362304688 c 1
 189.6640625 311 l 1
 189.6640625 311 189.627929688 301 198.559570312 301 c 1
 233.7734375 351.26953125 271.26953125 459 337.423828125 459 c 0
 375.032226562 459 394.270507812 437.233398438 405.646484375 401.150390625 c 0
 437.118782019 301.339419637 420.430536257 211.197017065 456.858398438 104.995117188 c 0
 458.446289062 99.9560546875 460.102539062 94.8984375 461.834960938 89.8125 c 0
 466.335368391 75.5393099362 476.432313959 65.5821236483 476.432313959 51.5215407641 c 0
 476.432313959 25.2247002705 422.548191917 2 403.864257812 2 c 0
 349.694193371 2 315.996764865 65.2416129035 297.27734375 124.53125 c 0
 286.46484375 158.823242188 285.66796875 185.120117188 280.965820312 215.70703125 c 0
 280.917062182 215.864315543 279.363419451 229 269.1171875 229 c 1
EndSplineSet
EndChar

StartChar: o
Encoding: 111 111 62
Width: 516
Flags: HW
HStem: -11 21G<221.093 352.453> 474.199 40.8008<250.921 339.795>
LayerCount: 2
Fore
SplineSet
357.509177301 175.192525529 m 0
 357.509177301 269.902096876 302.210330824 343.913822791 251.853515625 386.1953125 c 1
 268.696289062 416.543945312 315.303710938 440.616210938 349.34375 440.616210938 c 0
 404.024414062 440.616210938 444.814453125 377.642578125 463.9453125 316.966796875 c 0
 474.966907313 282.011234375 480.220505973 247.655159997 480.220505973 215.111495582 c 0
 480.220505973 88.294878603 400.443760725 -11 271.329101562 -11 c 0
 170.857421875 -11 80.943359375 34.5751953125 47.9169921875 139.319335938 c 0
 36.9836841202 173.993084578 32.0003469087 207.577775184 32.0003469087 239.467901137 c 0
 32.0003469087 396.462491901 152.775385524 512.387995306 278.994140625 515 c 0
 295.53125 515 334.622070312 513.053710938 338.618164062 500.379882812 c 0
 339.653261075 497.096332575 340.128886272 494.28160585 340.128886272 491.864360094 c 0
 340.128886272 473.318780776 312.13236637 478.169951494 294.004882812 474.19921875 c 0
 219.496099423 457.878902324 180.855314124 376.603722153 180.855314124 283.93526423 c 0
 180.855314124 192.377847026 213.004947963 92.7891597548 291.126953125 76.6728515625 c 1
 337.470327902 80.0885585261 357.509177301 122.786797308 357.509177301 175.192525529 c 0
EndSplineSet
EndChar

StartChar: p
Encoding: 112 112 63
Width: 502
Flags: HW
HStem: -197 21G<42.3616 87.3503> -10 85<241.375 328.898> 487 20G<236.437 303.462 438.104 468.861>
LayerCount: 2
Fore
SplineSet
254.926757812 75 m 1
 308.333164644 83.2519687724 324.00812979 138.149150334 324.00812979 197.265954897 c 0
 324.00812979 249.799244424 311.630033005 305.664656314 302.3515625 335.090820312 c 0
 297.631835938 350.05859375 291 364 282.877929688 364 c 1
 247.926087682 305.278570389 189.890319544 245.27010066 189.890319544 167.293053971 c 0
 189.890319544 151.34866854 192.316805265 134.653013732 197.86328125 117.063476562 c 0
 205.958007812 91.3916015625 237.5703125 75 254.926757812 75 c 1
303.7109375 515 m 0
 416.605996305 515 466.002559117 366.573249934 466.002559117 243.580792344 c 0
 466.002559117 109.384339563 405.412436742 -10 295.280273438 -10 c 0
 261.573242188 -10 235.119140625 4.173828125 209.227539062 35.9833984375 c 1
 209.0546875 36.53515625 l 1
 209.0546875 36.53515625 197.475585938 58 188.6484375 58 c 1
 185.282226562 22.6640625 171.290039062 -197 128.212890625 -197 c 0
 92.9326171875 -197 72.1748046875 -161.282226562 60.224609375 -123.376953125 c 0
 43.6619599291 -70.8493420486 33.9996055914 26.9158297929 33.9996055914 130.065135537 c 0
 33.9996055914 305.379951178 61.9113885921 496.247992449 131.295898438 507 c 1
 194.072923384 507 175.519702383 411.391256762 183.1015625 370.33203125 c 1
 187.305664062 357 l 1
 221.948242188 405.127929688 230.7109375 514.572265625 303.7109375 515 c 0
EndSplineSet
EndChar

StartChar: q
Encoding: 113 113 64
Width: 502
Flags: HW
HStem: -10 21G<160.421 185.619> 432 83<404.521 450.815>
LayerCount: 2
Fore
SplineSet
334.474609375 282.165039062 m 1
 327.223989026 305.162297833 297.919939161 283.335030609 297.919939161 310.063640008 c 0
 297.919939161 333.649454785 317.062058852 372.929436917 317.062058852 409.909215292 c 0
 317.062058852 417.850623608 315.808284781 425.798802991 313.852539062 432 c 1
 241.691350283 391.855077687 198.040264422 305.830215571 198.040264422 209.723515607 c 0
 198.040264422 179.839271841 202.260845641 148.980224938 211.157226562 118.22265625 c 0
 212.534179688 113.853515625 219.594726562 112 224.967773438 112 c 1
 270.65234375 166.001953125 325.681640625 255.599609375 334.474609375 282.165039062 c 1
338.32421875 -220 m 0
 309.330872354 -220 299.100250497 -174.929735874 299.100250497 -143.350357548 c 0
 299.100250497 -91.7361738715 320.538240054 -39.9163136165 320.538240054 10.9805298509 c 0
 320.538240054 30.385539612 315.55401738 50.3265347967 310.301757812 67 c 1
 263.940429688 42.0810546875 229.416015625 -10 165.786132812 -10 c 0
 113.247070312 -10 67.921875 31.9677734375 50.3525390625 87.6923828125 c 0
 37.9971803723 126.876896926 31.9997995877 167.079992065 31.9997995877 206.404211294 c 0
 31.9997995877 368.135090405 133.444018164 515 311.247070312 515 c 0
 370.833007812 515 424.1640625 503.25390625 442.333984375 445.631835938 c 0
 446.07186544 433.777626938 447.620894943 423.272016285 447.620894943 413.70410763 c 0
 447.620894943 373.32758535 420.035229325 349.649992113 412.947265625 311.791992188 c 1
 418.100585938 295.4453125 454.622070312 281.7265625 458.99609375 267.854492188 c 2
 464.295898438 251.046875 l 1
 463.933658428 243.20126866 463.791722551 234.238102653 463.791722551 224.346051903 c 0
 463.791722551 188.514274717 465.654050725 140.494682479 465.654050725 89.2545448168 c 0
 465.654050725 -53.0084650606 451.298507747 -220.096679687 342.874023438 -220.096679688 c 0
 341.375976562 -220.096679688 339.859375 -220.064453125 338.32421875 -220 c 0
EndSplineSet
EndChar

StartChar: r
Encoding: 114 114 65
Width: 324
Flags: HW
HStem: 477.011 19.9893G<63.2915 134.194 210.516 220.839>
VStem: 61.6787 135.993<33.3187 169.37>
LayerCount: 2
Fore
SplineSet
168.252929688 456 m 0
 191.415039062 456 200.2890625 497.010742188 220.7421875 497.010742188 c 0
 220.935546875 497.010742188 221.130859375 497.0078125 221.327148438 497 c 0
 246.879882812 497 272.649414062 460.47265625 282.607421875 428.885742188 c 0
 286.740968331 415.776936037 288.763993356 396.68480365 288.763993356 375.296101184 c 0
 288.763993356 308.760101094 269.187010756 220 232.666992188 220 c 0
 230.50390625 220 225.690429688 226.270507812 223.3671875 233.63671875 c 0
 217.827211348 251.213223422 218.913367497 366.08203125 182.626953125 366.08203125 c 0
 175.962840379 366.08203125 173.44232374 351.647597577 173.44232374 329.079005249 c 0
 173.44232374 258.984455223 197.755916022 110.425587982 197.755916022 72.1575705417 c 0
 197.755916022 43.287358672 148.363669891 3 122.08984375 3 c 0
 90.3125 3 71.8388671875 28.8388671875 61.6787109375 61.0673828125 c 0
 46.045013801 110.647950727 34.0000819482 197.784759944 34.0000819482 281.186703962 c 0
 34.0000819482 392.414752294 55.4230990052 497 118.327148438 497 c 0
 150.061523438 497 155.248046875 456 168.252929688 456 c 0
EndSplineSet
EndChar

StartChar: s
Encoding: 115 115 66
Width: 389
Flags: HW
HStem: -11 58<167.162 214.172> 453.584 61.416<172.29 209.113>
LayerCount: 2
Fore
SplineSet
205.991210938 515 m 0
 261.963045244 515 321.30516933 468.190524138 321.30516933 398.875820589 c 0
 321.30516933 348.962217223 292.926237243 291.559570312 255.165039062 291.559570312 c 0
 244.0234375 291.559570312 229.369140625 297.387695312 226.975585938 304.984375 c 0
 222.314771326 319.764286143 221.68864781 333.952740858 221.68864781 348.52684949 c 0
 221.68864781 353.881117476 221.773155498 359.287437046 221.773155498 364.794258661 c 0
 221.773155498 381.486655381 220.996673131 399.102495494 214.736328125 418.991210938 c 0
 206.911132812 443.811523438 198.810546875 453.583984375 191.2578125 453.583984375 c 0
 172.865279775 453.583984375 157.725143534 395.61199411 157.725143534 355.867590182 c 0
 157.725143534 346.035824084 158.651633848 337.319482702 160.684570312 330.872070312 c 0
 189.732658199 238.749992576 356.912383209 309.117549004 356.912383209 166.585017109 c 0
 356.912383209 72.2005626057 250.178480816 -11 174.846679688 -11 c 0
 119.968891822 -11 60.8782534385 10.388846036 60.8782534385 77.7178286567 c 0
 60.8782534385 127.418833642 103.768321909 171 149.307617188 171 c 0
 163.798646714 171 164.398970578 169.28187792 164.398970578 156.946544878 c 0
 164.398970578 142.812329504 159.072028389 126.298278488 159.072028389 106.375518687 c 0
 159.072028389 85.6970267258 166.519290143 47 188.407226562 47 c 0
 208.506201066 47 228.225229408 82.7325351982 228.225229408 116.577301004 c 0
 228.225229408 124.162520802 227.234765113 131.652920098 225.036132812 138.625 c 0
 200.415039062 216.711914062 67.044921875 187.614257812 37.595703125 281.0078125 c 0
 32.3778146286 297.555899238 30.0001683421 313.825858469 30.0001683421 329.600992149 c 0
 30.0001683421 432.911762689 131.974848498 515 205.991210938 515 c 0
EndSplineSet
EndChar

StartChar: t
Encoding: 116 116 67
Width: 342
Flags: HW
HStem: -10 21G<172.133 229.682> 681 20G<149.176 194.497 207.534 212.393>
LayerCount: 2
Fore
SplineSet
206.717773438 699 m 1
 226.652031512 692.68339736 236.461772395 672.30330331 236.461772395 646.250887904 c 0
 236.461772395 603.533624752 207.545082192 568.301094584 207.545082192 527.504375326 c 0
 207.545082192 519.426079243 208.678885281 511.129615218 211.395507812 502.513671875 c 0
 216.47265625 486.4140625 272.106445312 495.532226562 280.297851562 469.55859375 c 0
 283.671512789 458.858692824 285.166822993 449.424294583 285.166822993 441.072323767 c 0
 285.166822993 391.096861363 231.628223926 379.877001513 206.614257812 368.190429688 c 0
 199.806943492 365.010050968 197.061293751 348.858648905 197.061293751 326.399337827 c 0
 197.061293751 277.198949875 210.237467941 197.727363561 222.754882812 158.032226562 c 0
 246.88671875 81.4931640625 297.733398438 88.94921875 311.724609375 85.53125 c 1
 294.448242188 37.5458984375 257.08984375 -10 202.2734375 -10 c 0
 141.993164062 -10 96.6591796875 36.158203125 76.74609375 99.3193359375 c 0
 65.6301739575 134.571275589 62.0816112381 166.881063061 62.0816112381 197.744353383 c 0
 62.0816112381 251.404171932 72.8083187036 300.691473211 73.140625 353.466796875 c 1
 54.0546875 362.633789062 38.7841796875 369.852539062 32.623046875 389.396484375 c 0
 29.4002746671 400.542949362 28.0002914491 410.16833665 28.0002914491 418.603514568 c 0
 28.0002914491 474.250377988 88.928122075 478.098852702 89.39453125 525.142578125 c 0
 90.1875 605.639648438 104.264648438 701 194.087890625 701 c 0
 194.90625 701 195.721679688 700.977539062 196.536132812 700.93359375 c 1
 194.889132506 697.679915178 197.616202859 692.978743312 198.583007812 689.91015625 c 1
 201.177734375 691.44921875 208.349609375 693.819335938 206.717773438 699 c 1
196.536132812 700.93359375 m 1
 199.998046875 700.744140625 203.404296875 700.153320312 206.665039062 699.168945312 c 1
 205.141601562 704 l 1
 203.849609375 704 197.3515625 702.545898438 196.536132812 700.93359375 c 1
EndSplineSet
EndChar

StartChar: u
Encoding: 117 117 68
Width: 551
Flags: HW
HStem: -12 191.616<108.218 259.033> -10 21G<419.369 461.521> 495 20G<83.8999 167.082>
LayerCount: 2
Fore
SplineSet
150.688476562 515 m 1
 202.087287999 515 228.864961443 459.081686777 228.864961443 400.068933282 c 0
 228.864961443 332.00778893 197.439471876 264.662439381 196.475585938 196.1796875 c 0
 196.317382812 185.03515625 207.306640625 179.616210938 215.056640625 179.616210938 c 0xa0
 303.008789062 179.616210938 328.110351562 418.165039062 410.68359375 418.165039062 c 0
 435.50390625 418.165039062 447.796875 402.455078125 455.484375 378.071289062 c 0
 490.755774291 266.215759251 520.20483129 136.987043676 520.20483129 21.2101904208 c 0
 520.20483129 -6.70702965368 473.850146554 -10 448.072265625 -10 c 0x60
 390.666015625 -10 358.2578125 21.8505859375 340.80859375 77.19140625 c 0
 334.328125 97.7421875 330.154296875 129.868164062 329.341796875 143.750976562 c 1
 327.80971377 148.574201154 323.715721153 152.887165898 320.780273438 156.5703125 c 1
 265.17578125 111.227539062 212.116210938 -12 124.322265625 -12 c 0
 92.11328125 -12 72.8935546875 19.28125 61.9306640625 54.048828125 c 0xa0
 44.6386820246 108.887685075 34.0002711662 180.572498241 34.0002711662 251.165178951 c 0
 34.0002711662 373.549327483 65.9750649103 492.650964134 150.688476562 515 c 1
EndSplineSet
EndChar

StartChar: v
Encoding: 118 118 69
Width: 412
Flags: HW
HStem: -10 21G<179.332 243.494> 495 20G<37.5093 108.341 305.281 337.689>
LayerCount: 2
Fore
SplineSet
327.747070312 503.801757812 m 0
 365.530665974 503.801757812 377.227304254 430.503337556 377.227304254 386.226797954 c 0
 377.227304254 231.665862866 271.154356531 11.0403627421 204.755859375 -10 c 1
 153.907226562 -10 109.241210938 92.9140625 81.4208984375 181.1484375 c 0
 57.3297086153 257.549198568 29.9999071362 348.043858013 29.9999071362 416.004783299 c 0
 29.9999071362 466.269095145 44.9497763395 504.207068704 87.216796875 515 c 1
 133.04975368 515 178.580432562 480.525665498 187.796875 430.612304688 c 2
 225.462890625 226.170898438 l 2
 228.61328125 210.510742188 245.6015625 214.326171875 245.6015625 214.326171875 c 1
 245.501953125 214.64453125 l 1
 262.462890625 277.090820312 282.815429688 503.801757812 327.747070312 503.801757812 c 0
EndSplineSet
EndChar

StartChar: w
Encoding: 119 119 70
Width: 626
Flags: HW
HStem: 492 10.835G<222.453 281.726 435.12 439.121 475.727 509.105 680.528 701.587>
VStem: 147.093 123.41<205.53 433.978> 417.446 45.0703<34.9102 49> 439.121 10.7227<506.063 514.931> 453.743 6.82422<19.2339 26.7744> 575.541 137.601<348.458 434.801>
LayerCount: 2
Fore
SplineSet
298.170898438 233.709960938 m 0
 311.8117331 233.709960938 328.222422704 160.023978682 331.346679688 150.1328125 c 0
 359.641601562 74.8203125 404.791992188 -16.3388671875 481.408203125 -29 c 1
 534.700195312 -29 548.896484375 47.857421875 559.676757812 101.7890625 c 0
 573.519716597 171.351067809 588.57808373 244.701682958 588.57808373 321.445660046 c 0
 588.57808373 369.89420255 582.576709476 419.695138365 566.479492188 470.749023438 c 0
 559.43359375 493.095703125 549.279296875 502.834960938 531.543945312 502.834960938 c 0
 471.237379336 502.834960938 453.58448515 468.016646629 453.58448515 418.044871595 c 0
 453.58448515 347.475350041 488.789190332 246.685678088 488.789190332 171.057762961 c 0
 488.789190332 151.646136911 486.469872387 133.892190248 480.640625 118.732421875 c 1
 468.051944397 118.732421875 455.648399263 159.507301352 446.780273438 187.607421875 c 0
 409.2890625 306.508789062 396.302734375 392.846679688 371.271484375 472.237304688 c 0
 362.142578125 501.1875 350.534179688 512 320.572265625 512 c 0
 221.888671875 512 271.440429688 204.137695312 214.887695312 204.137695312 c 1
 206.45703125 210.629882812 200.032226562 223.80078125 194.993164062 239.780273438 c 0
 181.560546875 282.381835938 177.977539062 344.939453125 172.458984375 354.072265625 c 1
 171.020507812 358.640625 169.055664062 363.125976562 167.587890625 367.784179688 c 0
 156.501953125 402.94140625 158.094726562 433.958984375 148.456054688 467.90625 c 0
 142.130859375 487.966796875 131.529296875 499.862304688 108.969726562 499.862304688 c 0
 50.9571534217 499.862304688 29.9996272455 467.204198432 29.9996272455 416.456753854 c 0
 29.9996272455 390.536621869 34.6429287004 357.681928784 44.861328125 324.221679688 c 1
 64.7923436399 234.818339211 130.806037044 27.7216796875 192.350585938 27.7216796875 c 0
 269.112304688 27.7216796875 256.295898438 233.709960938 298.170898438 233.709960938 c 0
EndSplineSet
EndChar

StartChar: x
Encoding: 120 120 71
Width: 541
Flags: HW
HStem: -9.63281 21G<417.886 463.032> 480.74 20G<69.4702 80.332 99.6353 135.357 359.447 396.568>
LayerCount: 2
Fore
SplineSet
386.411132812 515 m 0
 414.661870973 515 437.588115096 504.837200306 437.588115096 475.107488924 c 0
 437.588115096 418.879889524 358.997954251 352.9996115 358.997954251 295.464768099 c 0
 358.997954251 289.631883046 359.805697139 283.884771649 361.584960938 278.2421875 c 0
 386.806640625 198.24609375 484.860351562 137.620117188 510.509765625 56.28125 c 1
 505.34375 9.3505859375 479.517578125 -9.6328125 446.545898438 -9.6328125 c 0
 389.2265625 -9.6328125 310.314453125 47.7412109375 280.830078125 115.388671875 c 1
 251.354492188 82.7060546875 209.541992188 -1.7998046875 161.380859375 -1.8447265625 c 0
 120.806436905 -1.8447265625 90.3528894608 36.0389256091 90.3528894608 83.4672649175 c 0
 90.3528894608 162.010966564 194.52911495 185.215085076 196.61328125 264.215820312 c 1
 156.970703125 354.678710938 97.2744140625 415.755859375 28.796875 478.486328125 c 0
 28.2546202253 480.206492554 27.9997926225 481.793912743 27.9997926225 483.258814113 c 0
 27.9997926225 500.005295286 61.3022920442 500.740234375 79.2041015625 500.740234375 c 0
 81.4599609375 500.740234375 83.556640625 500.728515625 85.4287109375 500.728515625 c 0
 91.1728515625 501.901367188 96.83984375 502.448242188 102.430664062 502.448242188 c 0
 168.284179688 502.448242188 223.633789062 426.606445312 269.201171875 404.903320312 c 1
 297.357421875 443.55078125 332.482421875 515 386.411132812 515 c 0
EndSplineSet
EndChar

StartChar: y
Encoding: 121 121 72
Width: 463
Flags: HW
HStem: -87.3896 11.3896<159.538 166.145> -76 10<159.538 172.275> 489 4<231.504 245.024>
VStem: 144.492 145.538<138.642 429.781> 159.538 10<-84.3233 -77.625>
LayerCount: 2
Fore
SplineSet
125.3125 -142 m 0x30
 104.767175806 -142 99.7857875572 -123.867943742 99.7857875572 -104.050613482 c 0
 99.7857875572 -44.0738981304 170.735686149 2.31287800459 191.805664062 22.3125 c 1
 191.76171875 22.4482421875 l 1
 143.161132812 100.393554688 81.59765625 188.685546875 51.603515625 283.815429688 c 0
 39.6047192381 321.867590157 29.9997746347 365.476203544 29.9997746347 402.995714653 c 0
 29.9997746347 453.522149215 47.4185584394 493.005859375 99.8671875 493.005859375 c 0
 100.243164062 493.005859375 100.622070312 493.00390625 101 493 c 0
 138.525431817 493 147.657746197 451.478473387 159.491210938 414 c 0
 177.162987511 357.542182833 205.278596811 242.603585116 228.428710938 171.483398438 c 0
 234.373046875 152.633789062 240.70703125 136 250.025390625 136 c 0
 288.937821693 136 295.036209493 186.950083861 295.036209493 250.191687442 c 0
 295.036209493 279.06403341 293.765127878 310.498290042 293.765127878 340.81585097 c 0
 293.765127878 419.133901626 302.247330791 490 363.03515625 490 c 0
 382.151367188 490 395.33984375 473.676757812 404.102539062 445.88671875 c 0
 420.330678786 394.418449494 427.413919427 347.427083132 427.413919427 304.166362061 c 0
 427.413919427 144.892554378 331.400217729 36.1878410169 242.26171875 -59.1904296875 c 0
 212.185546875 -91.3740234375 171.400390625 -142 125.3125 -142 c 0x30
EndSplineSet
EndChar

StartChar: z
Encoding: 122 122 73
Width: 398
Flags: HW
HStem: 360 136<208.095 277.025>
LayerCount: 2
Fore
SplineSet
353.92578125 172 m 1
 360.983566803 156.799317162 367.289044626 135.376061606 367.289044626 116.405813542 c 0
 367.289044626 47.4621863944 300.080621118 5 239.12890625 5 c 0
 174.442382812 5 78.5927734375 25.505859375 61.5888671875 79.43359375 c 1
 89.1337890625 186 187.24609375 288.845703125 215.751953125 390.012695312 c 1
 213.235351562 398 l 1
 197.491210938 398 l 1
 158.959960938 382.888671875 112.111328125 360 65.646484375 360 c 0
 41.4155843252 360 28.9995723713 384.426345359 28.9995723713 412.295550954 c 0
 28.9995723713 455.701753385 59.5729513954 496 90.490234375 496 c 0
 130.002929688 496 150.178710938 493 184.133789062 493 c 0
 190.899414062 493 200.53125 493.23046875 211.592773438 493.23046875 c 0
 251.80078125 493.23046875 310.889648438 490.18359375 319.795898438 461.938476562 c 0
 324.217241338 447.916185092 326.160736976 433.815069817 326.160736976 419.690985729 c 0
 326.160736976 327.328871186 243.051228192 233.984543564 226.258789062 155.27734375 c 1
 229.482576602 145.104503071 235.333859026 144.997452585 245.000976562 145.110351562 c 0
 284.797851562 145.110351562 323.711914062 172 353.92578125 172 c 1
EndSplineSet
EndChar

StartChar: sterling
Encoding: 163 163 74
Width: 800
Flags: HW
HStem: 47.998 161.977<452.981 663.968> 324 157<604.701 714.39> 505 379<703.339 818.602>
VStem: 829.062 140.307<704.513 779.981>
LayerCount: 2
Fore
SplineSet
613.399414062 481 m 2
 631.439413582 481 644.396778696 454.523234407 644.396778696 431.280757054 c 0
 644.396778696 381.487691855 602.821754399 324 562.401367188 324 c 2
 404.75390625 324 l 1
 391.211810146 315.53660432 371.539369878 279.903742752 371.539369878 251.411215636 c 0
 371.539369878 246.330199773 372.164970824 241.476252841 373.5625 237.043945312 c 1
 391.272460938 214.016601562 419.0625 210.55078125 448.013671875 210.55078125 c 0
 460.483398438 210.55078125 473.168945312 211.193359375 485.357421875 211.193359375 c 0
 493.424804688 211.193359375 501.272460938 210.912109375 508.698242188 209.975585938 c 0
 609.854492188 209.975585938 646.244140625 296 759.471679688 296 c 1
 764.985768653 284.407847946 768.722820309 268.791456864 768.722820309 253.216235661 c 0
 768.722820309 160.548419318 657.860919926 47.998046875 572.7890625 47.998046875 c 0
 553.063476562 47.998046875 530.146484375 49 522.532226562 49 c 0
 435.4765625 49 345.850585938 66 258.500976562 66 c 0
 198.1875 66 172.177734375 11 116.336914062 11 c 0
 69.589377396 11 29.9998571536 55.0800241888 29.9998571536 108.569763907 c 0
 29.9998571536 203.27728389 184.767636789 189.505297286 184.767636789 284.312011439 c 0
 184.767636789 294.888440394 182.841529498 306.816146906 178.559570312 320.396484375 c 0
 171.1328125 343.951171875 146.548828125 354.384765625 140.791992188 372.639648438 c 0
 136.863011494 385.100630376 135.145629166 395.861937777 135.145629166 405.237556532 c 0
 135.145629166 465.926068946 207.103796842 468.554349654 216.979492188 498.28125 c 0
 272.625 675.658203125 351.795898438 884 559.239257812 884 c 0
 648.640461823 884 735.973936703 819.398250925 735.973936703 712.321843736 c 0
 735.973936703 605.612571796 643.383586809 508.734803436 556.564453125 505 c 0
 539.443496526 505 530.688260283 514.827690394 530.688260283 534.008597401 c 0
 530.688260283 582.182522503 588.210492885 639.365142247 588.210492885 733.313444186 c 0
 588.210492885 748.086467904 587.003062374 767.685343283 582.487304688 782 c 1
 531.027095459 777.225314351 443.425000866 616.878952046 443.425000866 527.523555137 c 0
 443.425000866 507.503817875 447.837642825 491.257172436 457.721679688 481 c 1
 613.399414062 481 l 2
EndSplineSet
EndChar

StartChar: section
Encoding: 167 167 75
Width: 571
Flags: HW
HStem: -254 98<168.631 240.422> 783 83<500.933 561.909>
LayerCount: 2
Fore
SplineSet
231.577148438 420 m 0
 214.532394178 420 209.752347876 402.629288849 209.752347876 384.11402687 c 0
 209.752347876 368.233462216 213.268796374 351.510906964 215.579101562 344.184570312 c 0
 231.375976562 294.084960938 290.819335938 222 338.021484375 222 c 0
 359.482004737 222 366.300391156 238.410582658 366.300391156 257.601199011 c 0
 366.300391156 269.592447303 363.638240957 282.669123553 360.22265625 293.505859375 c 0
 343.79296875 345.61328125 280.71875 420 231.577148438 420 c 0
202.354439924 -87.429767791 m 0
 202.354439924 -117.208272836 209.579592143 -156 242.036132812 -156 c 0
 284.407156213 -156 309.422929654 -105.435851021 309.422929654 -55.9550724819 c 0
 309.422929654 -42.4694372334 307.564767098 -29.0642743473 303.693359375 -16.78515625 c 0
 264.967559538 106.026503174 30.999738921 149.615366359 30.999738921 344.021259855 c 0
 30.999738921 423.318264193 81.4357123815 470.654769807 92.125 539.654296875 c 1
 81.9267578125 571.9921875 58.02734375 601.619140625 48.171875 632.869140625 c 0
 41.303478086 654.652191076 38.1624607655 674.807777386 38.1624607655 693.377626787 c 0
 38.1624607655 811.6650135 165.609702935 865.610890673 268.954101562 866 c 0
 356.21484375 866 436.21875 833.173828125 462.905273438 748.5390625 c 0
 468.962629465 729.328995255 471.844043332 711.168529623 471.844043332 694.529748718 c 0
 471.844043332 636.608662679 436.927115223 597.12732834 379.517578125 596 c 0
 361.844726562 596 343.90625 596.540039062 339.177734375 611.537109375 c 0
 334.810790731 625.386839084 333.640316796 638.169785711 333.640316796 650.797138654 c 0
 333.640316796 665.387482513 335.202989991 679.770096775 335.202989991 695.350602584 c 0
 335.202989991 722.908221133 326.691910458 783 297.081054688 783 c 1
 259.673008334 781.141619109 226.926053576 728.37570386 226.926053576 682.208559542 c 0
 226.926053576 673.619934769 228.059372537 665.259682749 230.506835938 657.498046875 c 0
 259.00390625 567.12109375 480.998046875 522.735351562 526.909179688 377.124023438 c 0
 535.86400123 348.724487691 539.877135917 322.175953688 539.877135917 297.369321553 c 0
 539.877135917 221.239555462 502.080154803 161.515576137 453.325195312 115.043945312 c 0
 449.287109375 111.1953125 456.020507812 102.08203125 458.006835938 95.787109375 c 0
 466.880859375 67.638671875 483.1328125 41.677734375 491.860351562 13.9990234375 c 0
 499.64895962 -10.7023700044 503.223952957 -34.024581984 503.223952957 -55.8254445831 c 0
 503.223952957 -178.351651649 390.300055125 -252.822747603 277.825195312 -254 c 0
 189.647460938 -254 82.240234375 -219.63671875 55.9404296875 -136.228515625 c 0
 52.661034111 -125.828286997 51.1625610741 -115.883404566 51.1625610741 -106.444437849 c 0
 51.1625610741 -42.6225874033 119.670169569 -1.93033272184 169.373046875 0 c 0
 174.005859375 0 178.282226562 0.2421875 182.134765625 0.2421875 c 0
 191.713867188 0.2421875 198.669921875 -1.255859375 201.962890625 -11.7021484375 c 0
 204.104600909 -21.1568816606 204.802688987 -30.0688318585 204.802688987 -38.7620872655 c 0
 204.802688987 -55.0421145071 202.354439924 -70.5551621456 202.354439924 -87.429767791 c 0
EndSplineSet
EndChar

StartChar: fi
Encoding: 259 64257 76
Width: 458
Flags: HW
HStem: -198 21G<67.851 107.076> 478.549 20G<469.677 523.816> 670 74<420.609 500.001>
VStem: 369.793 153.547<297.824 375.818>
LayerCount: 2
Fore
SplineSet
268.878164897 644.95136507 m 0
 268.878164897 658.503150644 264.147652763 665.669970705 252.028320312 670 c 1
 180.034250446 670 157.036841285 479.418296417 157.036841285 362.607233228 c 0
 157.036841285 325.452483128 157.094514185 298.905733893 165 281.296875 c 1
 166.104492188 277.790039062 l 1
 175.989257812 277.790039062 l 1
 177.076171875 274.34375 l 1
 179.2109375 274.22265625 189.420898438 273.330078125 192.735351562 273.330078125 c 0
 195.166015625 273.138671875 197.516601562 273.044921875 199.791015625 273.044921875 c 0
 311.370117188 273.044921875 240.462890625 498.548828125 340.08984375 498.548828125 c 0
 367.694335938 498.548828125 383.985351562 470.469726562 394.283203125 437.811523438 c 0
 416.65502791 366.860122618 421.23214353 347.876089958 421.23214353 316.912644169 c 0
 421.23214353 295.468003605 419.036656606 268.277245383 419.036656606 214.096816861 c 0
 419.036656606 208.011120679 419.064355761 201.584911853 419.125976562 194.788085938 c 0
 418.549804688 151.483398438 416.584960938 0.431640625 381.681640625 0.431640625 c 0
 340.426925845 0.431640625 290.113790623 27.1809241082 281.59375 74.322265625 c 2
 263.422851562 175.033203125 l 1
 241.000976562 154.107421875 216.522460938 136.20703125 187.048828125 133.217773438 c 1
 188.16796875 129.669921875 l 1
 186.430817303 117.872796931 185.751073452 104.862910971 185.751073452 91.029091685 c 0
 185.751073452 41.2310703092 194.559234896 -19.2435283539 194.559234896 -72.2576334065 c 0
 194.559234896 -133.264770659 182.89480036 -184.392157197 132.719726562 -198 c 1
 93.8759765625 -198 73.8642578125 -180.803710938 62.3564453125 -144.306640625 c 0
 39.0647185919 -70.4348241377 34.000485761 -3.0377991415 34.000485761 63.1962185352 c 0
 34.000485761 114.159955461 36.9987782415 164.435130818 36.9987782415 216.441552658 c 0
 36.9987782415 225.033328015 36.9133586854 233.33011327 36.9133586854 242.057747952 c 0
 36.9133586854 435.821230725 59.8487417489 744 260.696289062 744 c 0
 315.379882812 744 352.571289062 728.303710938 369.645507812 674.155273438 c 0
 374.938113305 657.368964233 377.610717279 639.784370821 377.610717279 623.230953189 c 0
 377.610717279 581.90146518 360.950551594 547 326.811523438 547 c 0
 299.345440329 547 278.134041032 563.415890646 268.845703125 592.583007812 c 0
 266.256310259 597.581323935 265.391983668 603.199886161 265.391983668 609.08677326 c 0
 265.391983668 620.909611561 268.878164897 633.814713381 268.878164897 644.95136507 c 0
EndSplineSet
EndChar

StartChar: fl
Encoding: 260 64258 77
Width: 666
Flags: HW
HStem: -5 136<438.873 530.653> 121 145<276.5 332.827> 616 139<314.797 436.035> 651 105<676.631 741.976>
LayerCount: 2
Fore
SplineSet
609.03125 248.990234375 m 0
 627.220459151 248.990234375 633.077356547 203.845223641 633.077356547 183.716958775 c 0
 633.077356547 75.9613842118 524.321204406 -9.193359375 430.016601562 -9.193359375 c 0
 340.48828125 -9.193359375 319.172851562 123.950195312 252.350585938 123.950195312 c 0
 206.018501147 123.950195312 193.672729382 94.5564553191 193.672729382 53.6605473899 c 0
 193.672729382 6.9989099258 209.745046227 -54.6368005239 209.745046227 -104.670629919 c 0
 209.745046227 -149.289114302 196.963581481 -184.681235422 148.604492188 -192 c 1
 101.192382812 -192 81.6650390625 -171.638671875 69.7734375 -133.923828125 c 0
 47.0360761979 -61.8144525876 34.0002626878 67.1155100122 34.0002626878 204.837828886 c 0
 34.0002626878 457.247920958 77.7870333404 739.191182354 185.88671875 755 c 1
 211.51171875 755 229.124023438 747.02734375 238.689453125 716.689453125 c 0
 245.099071421 695.101327085 249.079655993 651.333291094 249.079655993 607.666587333 c 0
 249.079655993 546.734641444 241.329041587 486 221.612304688 486 c 1
 207.755064821 496.474678977 202.658246441 508.644302629 202.658246441 529.819953814 c 0
 202.658246441 540.02235447 203.777403178 550.865109928 203.777403178 562.065063025 c 0
 203.777403178 573.931559594 201.753407886 587.872029593 197.491210938 598.1796875 c 0
 195.916015625 603.319335938 186.811523438 622.844726562 182.586914062 616 c 0
 173.276814245 600.920782996 170.021748457 566.968216523 170.021748457 525.679912503 c 0
 170.021748457 440.802008217 183.777837505 324.922869091 186.96484375 278.27734375 c 0
 187.01150009 278.130117078 187.874435831 266 197.708007812 266 c 2
 272.327148438 266 l 1x60
 292.845703125 420.616210938 350.885742188 727.806640625 501.688476562 756 c 1
 559.704352369 756 586.055835765 703.652731658 603.018554688 649.854492188 c 0
 619.343047157 598.08242435 626.529060566 550.290805807 626.529060566 506.237545902 c 0
 626.529060566 353.171848868 539.775428227 245.237739053 448.16796875 172.280273438 c 1
 452.158511549 149.201065796 463.95839607 131 486.716796875 131 c 0
 551.348632812 131.807617188 564.067382812 248.990234375 609.03125 248.990234375 c 0
443.3828125 284 m 1
 495.304440814 320.563482044 517.4645472 423.84448443 517.4645472 522.636754932 c 0
 517.4645472 562.986388209 513.767924796 602.587236865 506.892578125 636.587890625 c 0
 504.712890625 643.505859375 500.581054688 651 491.796875 651 c 0x10
 457.113009938 651 429.445496812 421.592209059 429.445496812 326.357877467 c 0
 429.445496812 321.516997373 429.282423521 316.500727962 429.282423521 311.686784857 c 0
 429.282423521 296.887265185 430.823684454 284 443.3828125 284 c 1
EndSplineSet
EndChar

StartChar: AE
Encoding: 198 198 78
Width: 1126
Flags: HW
HStem: -29 159<724.518 930.876> 171.996 165.004<419.366 531.651> 179.991 157.009<419.447 553.972> 203 134<499.378 565.027> 270 150<825.03 1079.38> 724 106<1021.96 1113.81>
LayerCount: 2
Fore
SplineSet
1059.06542969 233 m 0
 1081.66184774 233 1094.45223878 199.915451371 1094.45223878 173.601136871 c 0
 1094.45223878 52.5545669155 867.062994484 -29 775.362304688 -29 c 0
 649.693359375 -29 558.604492188 98.5498046875 499.33203125 203 c 1x94
 473.966796875 202.559570312 452.209960938 179.719726562 425.225585938 179.719726562 c 0
 405.470703125 179.719726562 368.328125 181.60546875 334.51171875 181.60546875 c 0
 172.192382812 178.096679688 244.630859375 -14.9287109375 113.5625 -14.9287109375 c 0
 108.65234375 -14.9287109375 103.45703125 -14.6572265625 97.951171875 -14.095703125 c 0
 95.986328125 -14.095703125 93.986328125 -14.064453125 91.9482421875 -14 c 0
 64.3502729309 -14 29.9995412743 12.3368609579 29.9995412743 48.2585501082 c 0
 29.9995412743 95.5491545381 78.0606533611 148.211968592 78.0606533611 177.176547726 c 0
 78.0606533611 179.397090445 77.7781799099 181.478349616 77.169921875 183.407226562 c 0
 69.6201171875 207.357421875 43.818359375 223.186523438 37.373046875 243.630859375 c 0
 34.5170568536 252.688065815 33.219454277 260.594839407 33.219454277 267.533699866 c 0
 33.219454277 325.858997347 124.900448976 315.797224369 153.384765625 345.745117188 c 0
 173.169336658 366.546978343 277.477585218 672.580547292 277.477585218 733.798755153 c 0
 277.477585218 736.813219391 277.224668404 739.234078406 276.696289062 740.998046875 c 0
 268.765625 766.15234375 244.590820312 771.3984375 239.047851562 788.98046875 c 0
 238.356963973 791.171269514 238.03072257 793.207078871 238.03072257 795.101297086 c 0
 238.03072257 823.521257876 311.469596113 820.068213308 328.639648438 830 c 1
 337.2578125 830 l 2
 429.040039062 830 496.098632812 739.334960938 540.733398438 652 c 1
 567.647460938 652 l 1
 631.217773438 747.887695312 726.510742188 830 849.899414062 830 c 0
 929.153320312 830 987.315429688 797.499023438 1010.796875 723.0234375 c 0
 1018.28290578 699.282994187 1021.74845448 675.641407906 1021.74845448 652.78008176 c 0
 1021.74845448 546.564919771 946.941461438 457.19237628 852.981445312 453 c 0
 840.623046875 453 819.125976562 462.388671875 814.822265625 476.036132812 c 0
 812.813890326 482.405575096 811.910989121 488.802275833 811.910989121 495.239821722 c 0
 811.910989121 552.626256398 883.660351189 613.258465477 883.660351189 686.761004825 c 0
 883.660351189 693.201607112 883.109459372 699.741027833 881.911132812 706.385742188 c 0
 879.181640625 719.681640625 866.50390625 724 858.579101562 724 c 0
 783.204093478 722.257255258 675.862893745 592.890500536 675.862893745 488.980518288 c 0
 675.862893745 466.429490063 681.537355794 445.667559855 690.247070312 430.216796875 c 1
 749.686523438 422.018554688 822.704101562 420 889.119140625 420 c 0
 929.508789062 420 967.383789062 421.985351562 999.079101562 421.985351562 c 0
 1024.04839058 421.985351562 1027.21361322 406.321520639 1027.21361322 383.65253282 c 0
 1027.21361322 331.098484826 986.000993287 270 945.322265625 270 c 2
 725.619140625 270 l 2
 717.961268048 270 715.510883083 264.46503734 715.510883083 257.168835423 c 0
 715.510883083 248.270714994 719.155376661 236.75307753 721.443359375 229.4609375 c 0
 738.502929688 175.357421875 787.639648438 130 840.029296875 130 c 0
 939.7421875 130 1006.81640625 233 1059.06542969 233 c 0
305.988608664 371.345363739 m 0
 305.988608664 356.525521629 306.947708476 337 322.486328125 337 c 2xc4
 444.213867188 337 l 1xa4
 452.103518299 341.830047848 455.112699508 347.255924393 455.112699508 354.25621125 c 0
 455.112699508 358.391913525 454.062395069 363.077137423 452.34765625 368.513671875 c 0
 449.090820312 378.842773438 443.4375 391.883789062 438.032226562 409.022460938 c 0
 421.403320312 461.765625 392.390625 549 366.481445312 549 c 1
 347.520244964 510.812867482 305.988608664 430.714576026 305.988608664 371.345363739 c 0
EndSplineSet
EndChar

StartChar: OE
Encoding: 261 338 79
Width: 1163
Flags: HW
HStem: -22 168<803.245 930.606> 88 7<460.574 633.714> 270 145<869.952 1121.21> 678 145<491.322 694.013> 732 98<1089.79 1200.54>
LayerCount: 2
Fore
SplineSet
1117.94824219 247 m 1
 1125.25735797 232.634221441 1130.58903843 214.679777397 1130.58903843 194.850429745 c 0
 1130.58903843 64.0585248989 915.303131286 -23.681640625 810.01953125 -23.681640625 c 0
 725.700195312 -23.681640625 664.572265625 47.3251953125 605.96484375 88 c 1
 544.888671875 36.88671875 461.874023438 -29 359.896484375 -29 c 0
 209.513671875 -29 98.4091796875 101.723632812 52.7470703125 246.534179688 c 0
 37.1637838388 295.956764259 29.9997502961 344.784318197 29.9997502961 391.864341942 c 0
 29.9997502961 629.737726868 212.883858697 823 416.751953125 823 c 1x70
 426.22265625 825.625 435.490234375 826.837890625 444.557617188 826.837890625 c 0
 537.856445312 826.837890625 609.991210938 698.462890625 662.379882812 659 c 1
 730.137695312 739.6328125 815.905273438 830 935.122070312 830 c 0
 1022.52551769 830 1081.84698404 760.024538411 1081.84698404 661.883247288 c 0
 1081.84698404 551.856488249 996.531513748 457.301008473 900.47265625 453 c 0
 888.317275378 453 870.362302172 458.312592754 870.362302172 470.857518331 c 0
 870.362302172 493.626488789 947.851742637 575.782729844 947.851742637 670.928760424 c 0
 947.851742637 684.916537372 946.176959526 699.185063284 942.334960938 713.586914062 c 0
 936.982421875 730.560546875 924.6171875 732 907.479492188 732 c 0
 832.299429212 730.157625864 727.397306805 578.93009586 727.397306805 471.699122718 c 0
 727.397306805 461.103924883 728.421452919 450.938259852 730.599609375 441.388671875 c 0
 733.754882812 431.376953125 741.434570312 415 756.134765625 415 c 2
 1068.9765625 415 l 1
 1075.05859375 407.921875 1078.97753906 400.869140625 1081.17285156 393.90625 c 1
 1080.16113281 333.953125 1036.87109375 271.125 964.42578125 269 c 0
 951.826171875 269 939.640625 270 926.516601562 270 c 2
 915.525390625 270 l 1
 909.1640625 267.3828125 897.755859375 266.6484375 883.876953125 266.6484375 c 0
 866.125 266.6484375 844.331054688 267.849609375 823.887695312 267.849609375 c 0
 788.876914075 267.849609375 757.82708453 264.32620928 757.82708453 245.208247475 c 0
 757.82708453 238.622257953 761.180654896 233.02868001 762.946289062 227.426757812 c 0
 780.626953125 171.35546875 834.965820312 146 877.559570312 146 c 0
 991.92578125 146 1053.54492188 247 1117.94824219 247 c 1
430.616210938 95 m 1
 514.693495216 108.315646265 544.575914883 214.309854508 544.575914883 322.742434173 c 0
 544.575914883 382.534679011 535.48963943 443.068353581 521.393554688 489.212890625 c 0
 491.739257812 583.256835938 430.342773438 678 336.823242188 678 c 1
 254.982248966 662.076825405 225.203401212 562.837925553 225.203401212 455.039979861 c 0
 225.203401212 389.776313893 236.118554789 321.375411033 253.00390625 266.426757812 c 0
 281.137695312 177.208007812 334.059570312 95 430.616210938 95 c 1
EndSplineSet
EndChar

StartChar: ae
Encoding: 230 230 80
Width: 793
Flags: HW
HStem: 150 135<560.311 747.13> 612 137<804.583 867.309> 628 136<474.339 669.669>
LayerCount: 2
Fore
SplineSet
565.4296875 506 m 1
 600.307278143 506.105450658 657.584240542 525.145862998 657.584240542 572.500481407 c 0
 657.584240542 579.086764956 656.476249772 586.220770968 654.045898438 593.927734375 c 0
 648.497070312 611.52734375 628.715820312 612 621.198242188 612 c 0
 582.342608717 612 563.314178195 571.249383506 563.314178195 529.777122895 c 0
 563.314178195 521.782654836 564.021255168 513.761371221 565.4296875 506 c 1
211.381501354 445.280424522 m 0
 211.381501354 398.52478164 227.766383093 338 271.100585938 338 c 0
 345.429238098 338 384.986084296 423.267126847 384.986084296 513.270052013 c 0
 384.986084296 541.386850836 381.12561452 569.965830244 373.258789062 596.551757812 c 0
 367.762695312 613.98046875 358.555664062 628 339.904296875 628 c 0xa0
 266.916408379 624.669226062 211.381501354 535.089462568 211.381501354 445.280424522 c 0
187.30859375 157.057617188 m 0
 94.7155486224 157.057617188 30.9997965509 253.635597521 30.9997965509 363.040540738 c 0
 30.9997965509 571.878676621 266.583028855 764 410.078125 764 c 0xa0
 447.459960938 764 461.92578125 694 504.899414062 694 c 0
 551.783203125 694 581.131835938 749 628.6640625 749 c 0xc0
 705.725070983 749 761.257692736 670.049206871 761.257692736 580.79325425 c 0
 761.257692736 468.634552332 646.189807545 432.986178643 560.251953125 414.756835938 c 0
 554.14860094 413.462357169 551.876821787 407.286257117 551.876821787 398.640929577 c 0
 551.876821787 379.939166689 562.289910909 350.420211037 568.057617188 332.046875 c 0
 582.442382812 286.428710938 603.091796875 285 628.9453125 285 c 0
 685.583007812 285 702.588867188 356.228515625 732.998046875 357.000976562 c 1
 739.249736982 338.00275351 742.07990078 320.250448712 742.07990078 303.769871154 c 0
 742.07990078 203.6896078 637.71280567 150.506445538 561.407226562 150 c 0
 462.460275839 150 439.304604548 197.289438755 404.975585938 306.272460938 c 1
 384.163085938 306.272460938 l 1
 338.428710938 229.560546875 278.2578125 157.057617188 187.30859375 157.057617188 c 0
EndSplineSet
EndChar

StartChar: oe
Encoding: 262 339 81
Width: 852
Flags: HW
HStem: 133 128<326.315 429.663> 140 137<600.813 779.079>
LayerCount: 2
Fore
SplineSet
596.02734375 367 m 0
 636.979978748 367 664.970874472 484.452561713 664.970874472 569.877486947 c 0
 664.970874472 594.205022401 662.700780633 615.935079698 657.813476562 631.615234375 c 0
 654.807617188 641.155273438 649.497070312 649 638.947265625 649 c 0
 585.82531913 649 564.950581141 532.339022742 564.950581141 457.619537962 c 0
 564.950581141 440.946620452 565.98996627 426.362033994 567.942382812 415.627929688 c 1
 578.85546875 381.016601562 l 1x00
 584.28515625 368.202148438 589.819335938 367 596.02734375 367 c 0
289.051757812 133 m 0x80
 147.411531234 133 29.9998486345 268.658288953 29.9998486345 439.404590953 c 0
 29.9998486345 616.408495059 169.633886821 757.716980553 307.840820312 763 c 0
 330.603515625 763 357.162109375 756.108398438 363.368164062 736.422851562 c 1
 318.993456361 683.213250486 203.80738494 592.966645898 203.80738494 467.442442992 c 0
 203.80738494 434.607503293 214.061534476 397.402752578 226.193359375 371.188476562 c 1
 244.369140625 313.543945312 291.913085938 261 344.125 261 c 0x80
 394.750310103 261 418.198015487 302.811090923 418.198015487 356.465982655 c 0
 418.198015487 378.210035081 414.347111631 401.89923896 406.893554688 425.5390625 c 0
 383.552734375 499.555664062 320.438476562 549.881835938 306.66796875 593.5546875 c 0
 305.352654239 597.726034643 304.739771235 601.675124613 304.739771235 605.410801844 c 0
 304.739771235 646.604251888 379.263610503 661.847664944 408.241210938 663 c 1
 433.494140625 663 457.79296875 645 487.709960938 645 c 0
 523.677734375 645 573.27734375 740 657.625 740 c 0
 747.100038299 740 816.491929499 660.446613306 816.491929499 554.639645642 c 0
 816.491929499 431.732796144 702.072824682 363.82224489 634.8671875 296.131835938 c 1
 639.794921875 280.5078125 655.330078125 277 664.743164062 277 c 0
 718.732421875 277 739.276367188 340 783.750976562 340 c 0
 801.97064197 340 816.894958987 317.921281198 816.894958987 296.167523859 c 0
 816.894958987 210.012320669 628.10248297 140 579.053710938 140 c 0x40
 531.876953125 140 491.809570312 172.537109375 454.338867188 212.142578125 c 1
 402.58984375 162.8671875 365.931640625 133 289.051757812 133 c 0x80
EndSplineSet
EndChar

StartChar: onehalf
Encoding: 189 189 82
Width: 912
Flags: HW
HStem: -11 21G<186.19 242.861> 354 90<753.339 837.761> 383 518<215.172 468.74>
LayerCount: 2
Fore
SplineSet
44.8623046875 413.7734375 m 0
 39.5946807114 430.478966413 37.4075185483 446.534237943 37.4075185483 462.126622673 c 0
 37.4075185483 538.479667056 89.8530651578 603.733236691 89.8530651578 679.888353797 c 0
 89.8530651578 695.392022429 87.6794663341 711.34750427 82.447265625 727.940429688 c 0
 71.41483849 762.93510807 29.9996252119 742.185181046 29.9996252119 787.441360668 c 0
 29.9996252119 848.98715471 142.836100677 901 184.641601562 901 c 0
 200.946289062 901 210.62109375 896.092773438 215.3671875 881.048828125 c 0
 221.500529707 861.596154479 223.869330861 842.538793735 223.869330861 823.767504348 c 0
 223.869330861 767.221016871 202.37362743 713.270486013 197.536132812 658.9296875 c 0
 188.572265625 558.23828125 214.307617188 383 94.4072265625 383 c 0
 69.5126953125 383 52.494140625 389.573242188 44.8623046875 413.7734375 c 0
639.633789062 842.241210938 m 0
 640.788493721 838.38799662 641.346483873 833.573193534 641.346483873 827.876308939 c 0
 641.346483873 685.174060412 291.229383626 -11 199.640625 -11 c 0
 181.282226562 -11 161.302734375 7.9267578125 154.954101562 28.0576171875 c 1
 158.684570312 202.345703125 314.944335938 442.302734375 367.510742188 592.049804688 c 0
 395.934570312 673.029296875 478.915039062 908 564.868164062 908 c 0
 599.221679688 908 628.014648438 879.096679688 639.633789062 842.241210938 c 0
752.621462683 62.6687283293 m 0
 752.621462683 55.6485681108 753.915364056 48.5080343603 755.654296875 43 c 1
 797.252929688 43 840.8359375 50.314453125 881.190429688 50.9541015625 c 1
 881.412068716 47.3190775797 881.521975522 43.730792121 881.521975522 40.1919493299 c 0
 881.521975522 -28.3064456726 840.344204045 -78.2806114616 771.2265625 -90.1201171875 c 1
 757.7890625 -90.1201171875 742.478515625 -89 737.337890625 -89 c 0
 680.851779695 -89 597.157741996 -85.5930131511 597.157741996 -20.8368820031 c 0
 597.157741996 53.7082081052 708.101491249 134.611372313 708.101491249 253.16773274 c 0
 708.101491249 264.207873989 707.139430754 275.574528923 705.036132812 287.29296875 c 1
 700.6328125 301.2578125 l 2
 699.600585938 307.3984375 700.095703125 314.521484375 697.892578125 321.509765625 c 0
 692.6484375 338.139648438 683.208984375 354 665.396484375 354 c 0
 664.864257812 354.024414062 664.340820312 354.036132812 663.831054688 354.036132812 c 0
 649.24292897 354.036132812 644.35678089 344.269115306 644.35678089 329.612287519 c 0
 644.35678089 299.870607447 664.476302485 249.994326062 664.476302485 220.7353325 c 0
 664.476302485 208.821365754 661.140413033 200.325819901 651.751953125 198 c 1
 603.12658464 198 565.119351717 267.970835807 565.119351717 326.268710859 c 0
 565.119351717 400.711812906 627.880255566 444 694.173828125 444 c 0xc0
 774.679326064 444 841.092162442 389.248262084 841.092162442 295.341227788 c 0
 841.092162442 196.339643908 752.621462683 132.027038446 752.621462683 62.6687283293 c 0
EndSplineSet
EndChar

StartChar: onequarter
Encoding: 188 188 83
Width: 894
Flags: HW
HStem: 382 524<225.777 478.149>
LayerCount: 2
Fore
SplineSet
192.474609375 906 m 1
 221.54348293 906 227.612856052 866.231940503 227.612856052 835.14770526 c 0
 227.612856052 782.959275647 210.312668317 723.141789382 206.678710938 687.971679688 c 0
 196.950195312 593.80859375 227.797851562 382 105.328125 382 c 0
 75.609375 382 52.3359375 391.83203125 43.5263671875 419.772460938 c 0
 38.7075293631 435.055084404 36.692448151 449.88659483 36.692448151 464.397594818 c 0
 36.692448151 538.549377519 89.3112631452 604.331830308 89.3112631452 679.172031906 c 0
 89.3112631452 693.979751304 87.2513565976 709.142060901 82.31640625 724.793945312 c 0
 71.3574453895 759.548473522 29.9998421356 744.525167139 29.9998421356 787.482221002 c 0
 29.9998421356 845.409245924 148.10072305 904.06066357 192.474609375 906 c 1
575.580078125 914 m 0
 614.377558799 914 641.370416537 867.053092801 641.370416537 821.256912102 c 0
 641.370416537 656.339778805 389.259083207 231.18501955 328.125976562 125.48828125 c 0
 304.935546875 85.3896484375 262.53125 -5 201.352539062 -5 c 0
 176.128264977 -5 163.500165299 11.6648492373 159.221679688 36.64453125 c 1
 159.110351562 37 l 1
 182.41796875 226.099609375 463.947265625 914 575.580078125 914 c 0
674.887695312 -66.314453125 m 0
 669.339211252 -48.7181903385 667.592715993 -32.9535886849 667.592715993 -17.781836408 c 0
 667.592715993 8.00018906563 672.636192376 32.0702019735 672.636192376 60.5074409113 c 0
 672.636192376 72.7077589925 671.707872938 85.7119235693 669.0546875 100 c 1
 569.154296875 100 l 1
 564.118164062 103.208984375 552.297851562 111.071289062 551.032226562 115.081054688 c 0
 544.06410902 137.180320839 540.717505831 163.53948808 540.717505831 191.574050305 c 0
 540.717505831 303.850748862 594.395457012 443 684.091796875 443 c 0
 699.015625 443 708.5703125 439.799804688 712.8125 426.344726562 c 0
 715.512020791 417.783229621 716.70612896 409.48931484 716.70612896 401.402337158 c 0
 716.70612896 339.361939189 646.427977437 289.500636131 646.427977437 224.436725581 c 0
 646.427977437 219.386991932 646.851305392 214.245683753 647.763671875 209 c 1
 699.709960938 209 l 2
 711.5390625 209 731.633789062 303 812.236328125 303 c 0
 820.438476562 303 831.970703125 307.447265625 835.1640625 297.321289062 c 0
 839.959960938 282.110351562 844.145507812 243.012695312 848.774414062 228.173828125 c 0
 854.356639142 210.469542815 863.339548497 202.918999137 863.339548497 182.994817446 c 0
 863.339548497 154.18838641 835.49308476 143.782604338 824.875 116.978515625 c 0
 811.354148329 85.8234752028 810.652241437 52.234060768 810.652241437 21.3269312766 c 0
 810.652241437 17.7462001782 810.661662623 14.201471441 810.661662623 10.7007016293 c 0
 810.661662623 -45.8940092406 808.199423884 -91 723.6640625 -91 c 0
 698.58984375 -91 682.296875 -89.814453125 674.887695312 -66.314453125 c 0
EndSplineSet
EndChar

StartChar: threequarters
Encoding: 190 190 84
Width: 1017
Flags: HW
HStem: 350 83<291.496 361.599> 816 90<417.311 505.776>
LayerCount: 2
Fore
SplineSet
808.945869601 45.1659132017 m 0
 808.945869601 69.7456988406 800.893853542 84.4425300299 786.482421875 100 c 1
 688.638671875 100 l 1
 682.043945312 104.826171875 667.4765625 127.470703125 666.067382812 131.94140625 c 1
 665.917310317 136.697240369 665.837796038 141.789099444 665.837796038 147.169739867 c 0
 665.837796038 246.233740446 692.790907674 443.186523438 802.590820312 443.186523438 c 0
 804.53125 443.186523438 806.499023438 443.125 808.490234375 443 c 0
 812.109375 443 815.809570312 443.170898438 819.33203125 443.170898438 c 0
 828.268554688 443.170898438 836.068359375 442.069335938 838.5234375 434.276367188 c 0
 841.189979459 425.819587437 842.372503471 417.669564496 842.372503471 409.757095997 c 0
 842.372503471 347.688291516 769.605793206 300.237418653 769.605793206 233.999965649 c 0
 769.605793206 226.479292677 770.944193076 218.125893209 772.874023438 212 c 1
 865.313476562 212 838.876953125 303 935.634765625 303 c 0
 941.322265625 303 953.1328125 302.846679688 957.090820312 302.4765625 c 1
 961.248607572 289.291507407 962.042043167 274.161174687 965.998046875 261.615234375 c 0
 972.575490894 240.761698457 985.60370099 215.471228971 985.60370099 190.569062271 c 0
 985.60370099 156.801241006 960.799805804 143.615476146 952.6015625 108.3671875 c 0
 931.422851562 13.1064453125 955.8515625 -91 841.78515625 -91 c 0
 813.138374455 -91 796.151354929 -71.1639019268 796.151354929 -38.8147052673 c 0
 796.151354929 -10.7336510941 808.945869601 17.0030110555 808.945869601 45.1659132017 c 0
764.400390625 846.52734375 m 0
 765.783191949 842.033096974 766.449070091 836.430506103 766.449070091 829.819779279 c 0
 766.449070091 677.837140851 414.496374347 -7 330.87109375 -7 c 0
 307.887695312 -7 287.969726562 8.34375 280.408203125 32.32421875 c 1
 315.127929688 253.323242188 455.743164062 494.294921875 537.530273438 698.958007812 c 0
 562.310546875 760.963867188 624.840820312 914 697.978515625 914 c 0
 730.040039062 914 753.830078125 880.052734375 764.400390625 846.52734375 c 0
147.359591834 494.091043049 m 0
 147.359591834 472.116241887 154.464405971 433 179.3359375 433 c 1
 224.238510342 435.179517931 250.049950819 498.263723883 250.049950819 551.589002645 c 0
 250.049950819 565.331691202 248.335640726 578.426224248 244.791992188 589.663085938 c 0
 229.030092472 639.654641199 173.270029213 623.76444235 173.270029213 671.307586355 c 0
 173.270029213 705.164526359 216.21665626 741.998338913 216.21665626 776.942088194 c 0
 216.21665626 795.203472648 207.61012929 805.10135506 192.477539062 816 c 1
 144.435546875 816 170.114257812 707 138.23046875 707 c 0
 103.507532212 707 74.3363201974 761.388478806 74.3363201974 804.060890153 c 0
 74.3363201974 875.748434965 158.269506014 905.139891618 217.266601562 906 c 0
 281.414727113 906 349.299806391 860.515302886 349.299806391 782.915566384 c 0
 349.299806391 745.532821965 325.405123381 726.38475422 300.138671875 695.1328125 c 1
 301.266601562 691.560546875 l 1
 331.815429688 656.265625 374.998046875 648.432617188 387.701171875 608.151367188 c 0
 392.263925026 593.680653785 394.370388643 579.062175852 394.370388643 564.52860894 c 0
 394.370388643 454.846266733 274.397541468 350 184.81640625 350 c 0
 109.422518022 350 30.0001896592 393.903900166 30.0001896592 483.955804994 c 0
 30.0001896592 551.606708161 83.2696258662 603.273118194 142.82421875 605 c 0
 154.0390625 605 162.334960938 607.189453125 164.84375 594.610351562 c 0
 165.54071001 590.924477834 165.849319745 587.295427461 165.849319745 583.697897896 c 0
 165.849319745 555.851769536 147.359591834 529.894146669 147.359591834 494.091043049 c 0
EndSplineSet
EndChar

StartChar: multiply
Encoding: 215 215 85
Width: 682
Flags: HW
HStem: 673 20G<752.746 765.259>
LayerCount: 2
Fore
SplineSet
88.9111328125 111 m 0
 68.2434579584 111 47.6436141988 128.836582385 47.6436141988 157.256823225 c 0
 47.6436141988 243.615357121 255.721273559 308.025185132 255.721273559 356.247401272 c 0
 255.721273559 362.970424528 252.747611538 366.871615295 248.216796875 371.038085938 c 2
 55.6220703125 548.186523438 l 2
 36.416440117 564.591064136 28.0000772449 619.954145162 28.0000772449 647.252763623 c 0
 28.0000772449 688.786245552 45.6585240318 716 91.962890625 716 c 0
 92.3212890625 716.004882812 92.6787109375 716.006835938 93.0361328125 716.006835938 c 0
 186.44140625 716.006835938 272.802734375 562.109375 348.50390625 508 c 0
 349.288085938 508 354.287109375 507.4765625 360.147460938 507.4765625 c 0
 367.9765625 507.4765625 377.341796875 508.411132812 380.245117188 512.779296875 c 2
 486.60546875 662.03125 l 2
 499.069335938 679.974609375 523.068359375 693 545.401367188 693 c 0
 581.646748794 693 606.526753306 662.18357289 606.526753306 618.398051969 c 0
 606.526753306 515.978034693 457.675313656 433.259679268 457.675313656 376.889651611 c 0
 457.675313656 375.008668 457.841053363 373.157022125 458.18359375 371.334960938 c 2
 462.16796875 358.704101562 l 1
 519.778320312 290.870117188 626.373046875 205.672851562 650.932617188 127.780273438 c 0
 651.945371525 124.56895637 652.403279416 121.416634732 652.403279416 118.382924628 c 0
 652.403279416 101.951706534 638.970388391 89 627.506835938 89 c 0
 566.951171875 89 416.916015625 280.83203125 354.80859375 280.83203125 c 0
 239.478515625 280.83203125 203.369140625 111 88.9111328125 111 c 0
EndSplineSet
EndChar

StartChar: f_f
Encoding: 263 64256 86
Width: 618
Flags: HW
LayerCount: 2
Fore
SplineSet
190.192059086 670.218397734 m 0
 190.192059086 603.819896054 192.745173427 529.344180102 219.177734375 489 c 1
 277.909179688 489 l 2
 308.4375 489 289.801757812 1001 439.250976562 1001 c 0
 469.55859375 1001 485.874023438 976.58984375 495.7265625 945.336914062 c 0
 505.028471114 914.127756228 513.734602329 855.494688147 513.734602329 804.836694829 c 0
 513.734602329 762.226989843 507.575090434 725.259580689 490.4296875 715 c 1
 466.703247165 715 458.82392998 792.990665332 450.733398438 818.65234375 c 2
 442.158203125 845.849609375 l 1
 440.435546875 821.095703125 l 1
 435.124248891 777.98214578 431.870467227 732.951040412 431.870467227 686.655072755 c 0
 431.870467227 621.462706612 436.928986889 543.469437735 456.96484375 479.926757812 c 1
 467.071289062 481.297851562 490.749023438 484.364257812 513.317382812 484.364257812 c 0
 542.138671875 484.364257812 569.500976562 478.438476562 577.159179688 454.150390625 c 0
 583.400876107 434.354865508 586.11790255 417.330148053 586.11790255 402.640261171 c 0
 586.11790255 300.121070035 463.027947591 315.214258369 463.027947591 286.254164375 c 0
 463.027947591 250.343935326 479.187065783 157.812511138 479.187065783 80.9066512626 c 0
 479.187065783 16.468345223 467.842522325 -37 426.142578125 -37 c 0
 392.561523438 -37 353.669921875 -22.310546875 342.264648438 13.865234375 c 0
 308.725585938 120.233398438 311.557617188 210.36328125 294.6484375 311 c 1
 229.294921875 311 l 2
 221.326596981 311 218.615639149 298.467309805 218.615639149 278.207215651 c 0
 218.615639149 235.0686185 230.906205047 156.896585407 230.906205047 90.0777587827 c 0
 230.906205047 24.5854235202 219.09878149 -30 172.337890625 -30 c 0
 117.114257812 -30 89.93359375 2.0810546875 73.796875 53.26171875 c 0
 49.1309498695 131.48714533 32.000354843 290.343226561 32.000354843 456.342630659 c 0
 32.000354843 722.490065683 76.0359591272 1007 203.653320312 1007 c 0
 225.124023438 1007 238.083007812 980.216796875 246.551757812 953.359375 c 0
 256.357500072 922.260871691 262.847079864 868.298569155 262.847079864 819.320420845 c 0
 262.847079864 770.065020419 256.283820592 725.850361843 239.9296875 715 c 1
 223.11498671 715 209.640986432 788.748837696 204.817382812 809 c 1
 193.6484375 809 l 2
 193.751953125 808.021484375 190.470703125 803.6484375 190.470703125 803.6484375 c 1
 191.801997492 800.712148837 192.255221276 792.757289716 192.255221276 781.149186127 c 0
 192.255221276 756.382288231 190.192059086 714.985116028 190.192059086 670.218397734 c 0
EndSplineSet
EndChar

StartChar: f_f_i
Encoding: 264 64259 87
Width: 742
Flags: HW
HStem: 360.059 140.941<588.598 640.092>
VStem: 799.884 133.824<837.224 900.54>
LayerCount: 2
Fore
SplineSet
389.215820312 -33 m 0
 312.219830639 -33 297.772608238 79.2688646169 297.772608238 153.876986825 c 0
 297.772608238 165.672729784 297.942711553 177.365000238 297.942711553 189.073275531 c 0
 297.942711553 224.082272807 296.421861944 259.234365203 284.28515625 297.723632812 c 0
 281.229492188 307.41796875 275.705078125 315.254882812 265.643554688 315.254882812 c 1
 256.885742188 317.625 249.202148438 318.74609375 242.481445312 318.74609375 c 0
 209.611453736 318.74609375 199.774115476 291.911216156 199.774115476 253.044412496 c 0
 199.774115476 195.092648102 221.644341834 110.391681874 221.644341834 48.0110357166 c 0
 221.644341834 0.543583784582 208.981086069 -34 164.3828125 -34 c 0
 110.526367188 -34 85.072265625 -1.8984375 69.3896484375 47.8388671875 c 0
 48.0822373578 115.414979029 32.9997400393 268.448910493 32.9997400393 432.387491106 c 0
 32.9997400393 691.13638476 70.5720519125 977.050068838 180.54296875 997 c 1
 205.5390625 997 218.965820312 976.012695312 227.338867188 949.458984375 c 0
 236.756479897 917.918000379 245.318880483 859.987980114 245.318880483 809.718178433 c 0
 245.318880483 766.930076012 239.115516678 729.691716589 221.956054688 719 c 1
 218.192382812 719 213.729492188 729.290039062 209.047851562 744.133789062 c 0
 202.982688751 763.371649204 197.607852186 790.57873439 190.735351562 812.287109375 c 1
 189.220703125 813.0625 185.259765625 813.436523438 183.94921875 813.436523438 c 0
 173.016258327 813.436523438 169.059893059 787.330690799 169.059893059 750.024052358 c 0
 169.059893059 671.108914995 186.762807805 542.075323752 193.58203125 504 c 1
 201.893554688 504 243.102539062 501 258.2265625 501 c 0
 296.399414062 501 265.887695312 1012 527.567382812 1012 c 0
 583.361328125 1012 626.03515625 981.68359375 643.853515625 925.166992188 c 0
 649.973512627 905.757784082 653.225655916 885.836990895 653.225655916 867.429353632 c 0
 653.225655916 824.00409129 635.126493442 789 593.8828125 789 c 0
 559.087890625 789 542.087890625 812.9609375 532.8828125 842.147460938 c 0
 526.985351562 860.856445312 527.971679688 881.362304688 522.165039062 899.780273438 c 0
 518.06640625 912.774414062 507.270507812 914 500.899414062 914 c 1
 436.042641216 858.305383743 403.293111905 754.824150795 403.293111905 651.673156553 c 0
 403.293111905 607.145935626 409.395634647 562.680251133 421.65234375 522.146484375 c 0
 424.977539062 511.600585938 437.348632812 501 448.119140625 501 c 0
 607.217773438 501 502.577148438 741 612.017578125 741 c 0
 642.82421875 741 661.029296875 708.237304688 672.311523438 672.45703125 c 0
 690.739310559 614.013804373 705.920527783 502.926365813 705.920527783 401.537907835 c 0
 705.920527783 294.991967682 689.15553501 199.156851105 641.775390625 186.381835938 c 1
 576.19195634 186.381835938 545.95966693 292.406678052 532.544921875 360.05859375 c 1
 531.461914062 360.05859375 519.690429688 361.07421875 516.837890625 361.07421875 c 0
 458.644292643 361.07421875 444.196649274 316.255931425 444.196649274 256.848362913 c 0
 444.196649274 198.2579987 458.249545952 125.476969899 458.249545952 67.5038830458 c 0
 458.249545952 9.95624268978 444.402152133 -33 389.215820312 -33 c 0
EndSplineSet
EndChar

StartChar: f_f_l
Encoding: 265 64260 88
Width: 968
Flags: HW
HStem: 174 152<736.064 910.558> 711 21G<453.861 474.611 711.222 734.56> 879 121<1040.44 1103.7>
LayerCount: 2
Fore
SplineSet
737.173828125 495 m 1
 785.802681766 548.593735979 815.623762705 637.41372475 815.623762705 731.719716617 c 0
 815.623762705 774.56814731 809.467535375 818.549101746 796.122070312 860.873046875 c 0
 792.922851562 871.017578125 787.442382812 879 777.20703125 879 c 0
 739.378197083 879 716.307561737 615.07172044 716.307561737 522.387933828 c 0
 716.307561737 509.643975469 716.743736672 500.13757665 717.637695312 495 c 1
 737.173828125 495 l 1
735.302602964 364.037825657 m 0
 735.302602964 335.662868298 760.93979464 326 777.612304688 326 c 0
 836.938476562 326 852.776367188 450.979492188 900.452148438 450.979492188 c 0
 918.1328125 450.979492188 925.202148438 445.811523438 929.16015625 433.2578125 c 0
 932.992730867 417.863093308 934.77301182 402.510407036 934.77301182 387.401990835 c 0
 934.77301182 273.795249646 834.11256129 174 748.44140625 174 c 0
 613.95703125 174 574.603515625 314 548.125 314 c 0
 537.25390625 314 463.892578125 308.575195312 464.790039062 287.337890625 c 1
 464.516780398 247.042070784 476.274422044 167.17414727 476.274422044 97.2074616359 c 0
 476.274422044 35.1506216948 467.024950309 -19.1171375208 431.927734375 -31.076171875 c 1
 424.28515625 -31.076171875 415.252929688 -30 411.5078125 -30 c 2
 410.475585938 -30 l 2
 360.294921875 -30 332.380859375 -9.6181640625 317.5390625 37.44921875 c 0
 289.627929688 125.969726562 308.500976562 198.424804688 293.822265625 280.19921875 c 0
 292.16796875 292.38671875 284.629882812 302 272.185546875 302 c 1
 263.657226562 304.2578125 256.155273438 305.327148438 249.57421875 305.327148438 c 0
 216.268696746 305.327148438 206.529763564 277.942398496 206.529763564 238.663650354 c 0
 206.529763564 183.33495059 225.85376402 104.406168315 225.85376402 45.17362237 c 0
 225.85376402 -2.21727843726 213.483864645 -37 168.950195312 -37 c 0
 117.254882812 -37 88.4521484375 -3.919921875 72.798828125 45.7255859375 c 0
 49.7644743955 118.775371844 33.000105655 279.907983639 33.000105655 448.922836647 c 0
 33.000105655 711.452589268 73.4478697531 993 193.672851562 993 c 0
 226.994140625 993 238.854492188 965.404296875 246.345703125 941.643554688 c 0
 253.923828834 917.60874888 259.591180962 868.945680062 259.591180962 822.417453286 c 0
 259.591180962 768.73612061 252.047318321 717.896495093 231.190429688 711 c 0
 228.15234375 711 218.734375 712.259765625 218.516601562 713.541015625 c 2
 202.693359375 807 l 1
 187.083007812 807 l 2
 184.144143243 807 182.91454504 784.185248102 182.91454504 750.674909107 c 0
 182.91454504 665.839996522 190.795063861 512.456857997 198.7734375 487.16015625 c 0
 203.4140625 472.442382812 218.727539062 469.33203125 231.737304688 469.33203125 c 0
 241.264648438 469.33203125 249.556640625 471 251.515625 471 c 0
 264.986328125 471 285.897460938 471.454101562 288.59765625 489.959960938 c 0
 301.375976562 609.287109375 308.681640625 1001 447.153320312 1001 c 0
 479.149414062 1001 496.807617188 986.212890625 506.47265625 955.55859375 c 0
 515.001324431 928.513805207 521.776519361 871.987577224 521.776519361 820.087099382 c 0
 521.776519361 762.717548342 513.49820366 711 490.159179688 711 c 0
 483.90625 711 477.825195312 711.850585938 477.512695312 713.373046875 c 2
 455.4921875 839 l 1
 436.950195312 839 l 1
 435.721975153 835.132550703 433.334751372 783.772025709 433.334751372 720.361627897 c 0
 433.334751372 640.131578329 437.156360783 540.611377702 451.982421875 493.590820312 c 0
 455.221679688 483.322265625 458.983398438 475.557617188 463.345703125 471.043945312 c 1
 528.98828125 471.043945312 l 2
 556.055664062 471.043945312 551.869140625 560.01953125 555.661132812 576.631835938 c 0
 578.770507812 683.526367188 664.103515625 1000 785.970703125 1000 c 0
 846.754882812 1000 882.59375 948.161132812 902.002929688 886.598632812 c 0
 918.19415543 835.24870311 925.234351638 787.418843878 925.234351638 742.959142625 c 0
 925.234351638 581.266188987 832.116301932 464.149058079 747.41796875 384.396484375 c 0
 739.735594166 377.157521097 735.302602964 372.442979172 735.302602964 364.037825657 c 0
EndSplineSet
EndChar

StartChar: parenright
Encoding: 41 41 89
Width: 410
Flags: HW
VStem: 356.583 177.812<372.954 597.992>
LayerCount: 2
Fore
SplineSet
211.432983785 378.997629042 m 0
 211.432983785 435.514876709 198.843471106 507.194237681 177.766601562 567.107421875 c 5
 165.128586164 657.286761095 69.1484251847 694.09710911 32.0693359375 744.547851562 c 5
 30.654120425 749.035818557 29.9998282437 753.166447673 29.9998282437 756.966921356 c 0
 29.9998282437 792.574727561 87.4361615126 799.200195312 114.607421875 799.200195312 c 4
 228.310546875 797.002929688 313.939453125 699.168945312 349.116210938 587.607421875 c 4
 369.177235741 523.983998268 378.412145506 462.475546245 378.412145506 404.137392757 c 0
 378.412145506 213.932307112 280.243782664 57.4279315825 139.055664062 -28.7998046875 c 5
 129.59765625 -28.7998046875 120.793945312 -25.4423828125 118.040039062 -16.705078125 c 5
 150.376621708 115.491146207 211.432983785 232.839270732 211.432983785 378.997629042 c 0
EndSplineSet
EndChar

StartChar: bracketright
Encoding: 93 93 90
Width: 402
Flags: HW
HStem: -3 147<295.176 392.33> 695 137<459.324 608.476>
LayerCount: 2
Fore
SplineSet
196.33984375 117 m 1
 197.969128853 143.990375222 198.55031267 177.933296188 198.55031267 215.850714255 c 0
 198.55031267 310.244225846 194.948506941 429.269129455 194.948506941 526.980034835 c 0
 194.948506941 577.965970875 195.929204294 623.148545149 198.9140625 656 c 1
 198.331054688 657.849609375 l 1
 186.749023438 668 l 1
 144.080078125 668 l 2
 97.3251953125 668 48.9833984375 674.219726562 35.9287109375 715.618164062 c 0
 31.87254566 728.482260048 29.9996151775 739.681793374 29.9996151775 749.432073856 c 0
 29.9996151775 813.627346722 111.187932094 815 185.002929688 815 c 2
 188.637695312 815 l 2
 247.501953125 815 322.155273438 806.069335938 335.866210938 762.58984375 c 1
 344.630859375 665.848632812 362.682617188 329.970703125 368.111328125 146.088867188 c 0
 368.496356909 133.027375763 370.026191412 109.025884685 370.026191412 83.2515853181 c 0
 370.026191412 34.7629606358 364.611790046 -20 335.974609375 -20 c 2
 147.561523438 -20 l 2
 102.698242188 -20 60.4306640625 9.5615234375 47.0595703125 51.9677734375 c 0
 45.4331069934 57.1269218065 44.6271060708 64.6748628648 44.6271060708 72.8173376145 c 0
 44.6271060708 93.0696618313 49.6133376016 117 59.36328125 117 c 2
 196.33984375 117 l 1
EndSplineSet
EndChar

StartChar: quotedbl
Encoding: 34 34 91
Width: 389
Flags: HW
LayerCount: 2
Fore
SplineSet
169.228515625 765.515625 m 1
 170.614686483 751.385786209 171.405836309 735.386674079 171.405836309 718.360093594 c 0
 171.405836309 628.724564518 149.479592532 510.613365131 77.01171875 486.846679688 c 1
 64.005859375 486.846679688 44.013671875 493.756835938 40.0146484375 506.4375 c 1
 37.432912923 544.651553213 33.0002960807 590.098599162 33.0002960807 633.358522206 c 0
 33.0002960807 711.973339913 47.6388282223 783.365275502 114.625976562 791 c 0
 121.017578125 791 128.013671875 791.530273438 134.672851562 791.530273438 c 0
 145.1328125 791.530273438 162.361328125 787.294921875 169.228515625 765.515625 c 1
352.630859375 778.127929688 m 1
 353.138572704 766.841652343 353.472469831 753.82806565 353.472469831 739.689707904 c 0
 353.472469831 647.715281523 339.342249794 508.141576238 267.01171875 486.846679688 c 1
 254.005859375 486.846679688 234.013671875 493.756835938 230.014648438 506.4375 c 1
 227.432912923 544.651553213 223.000296081 590.098599162 223.000296081 633.358522206 c 0
 223.000296081 711.973339913 237.638828222 783.365275502 304.625976562 791 c 0
 311.017578125 791 318.013671875 791.530273438 324.672851562 791.530273438 c 0
 337.470703125 791.530273438 349.021484375 789.572265625 352.630859375 778.127929688 c 1
EndSplineSet
EndChar
